%TF.GenerationSoftware,KiCad,Pcbnew,8.0.5*%
%TF.CreationDate,2025-01-18T12:13:10+01:00*%
%TF.ProjectId,Floppy voltmeter clock,466c6f70-7079-4207-966f-6c746d657465,1.0*%
%TF.SameCoordinates,Original*%
%TF.FileFunction,Drillmap*%
%TF.FilePolarity,Positive*%
%FSLAX45Y45*%
G04 Gerber Fmt 4.5, Leading zero omitted, Abs format (unit mm)*
G04 Created by KiCad (PCBNEW 8.0.5) date 2025-01-18 12:13:10*
%MOMM*%
%LPD*%
G01*
G04 APERTURE LIST*
%ADD10C,0.050000*%
%ADD11C,0.120000*%
%ADD12C,0.200000*%
%ADD13C,0.100000*%
G04 APERTURE END LIST*
D10*
X19700000Y-8300000D02*
X19700000Y-8000000D01*
X18100000Y-8000000D02*
G75*
G02*
X17700000Y-7600000I0J400000D01*
G01*
X21600000Y-6800000D02*
G75*
G02*
X22000000Y-7200000I0J-400000D01*
G01*
X18100000Y-14000000D02*
G75*
G02*
X17700000Y-13600000I0J400000D01*
G01*
X21000000Y-8000000D02*
X21600000Y-8000000D01*
X21600000Y-14000000D02*
X18100000Y-14000000D01*
X17700000Y-8700000D02*
G75*
G02*
X18100000Y-8300000I400000J0D01*
G01*
X22000000Y-7200000D02*
X22000000Y-7600000D01*
X19300000Y-8300000D02*
X19700000Y-8300000D01*
X22000000Y-7600000D02*
G75*
G02*
X21600000Y-8000000I-400000J0D01*
G01*
X22000000Y-13600000D02*
X22000000Y-8700000D01*
X21600000Y-6800000D02*
X18100000Y-6800000D01*
X22000000Y-13600000D02*
G75*
G02*
X21600000Y-14000000I-400000J0D01*
G01*
X18100000Y-8000000D02*
X18700000Y-8000000D01*
X20000000Y-8000000D02*
X20000000Y-8300000D01*
X17700000Y-8700000D02*
X17700000Y-13600000D01*
X17700000Y-7200000D02*
X17700000Y-7600000D01*
X19700000Y-8000000D02*
X19300000Y-8000000D01*
X20000000Y-8300000D02*
X20400000Y-8300000D01*
X21600000Y-8300000D02*
X21000000Y-8300000D01*
X21600000Y-8300000D02*
G75*
G02*
X22000000Y-8700000I0J-400000D01*
G01*
X20400000Y-8000000D02*
X20000000Y-8000000D01*
X18700000Y-8300000D02*
X18100000Y-8300000D01*
X17700000Y-7200000D02*
G75*
G02*
X18100000Y-6800000I400000J0D01*
G01*
D11*
X20400000Y-8000000D02*
G75*
G02*
X20400000Y-8300000I0J-150000D01*
G01*
X21000000Y-8300000D02*
G75*
G02*
X21000000Y-8000000I0J150000D01*
G01*
X18700000Y-8000000D02*
G75*
G02*
X18700000Y-8300000I0J-150000D01*
G01*
X19300000Y-8300000D02*
G75*
G02*
X19300000Y-8000000I0J150000D01*
G01*
D12*
D13*
X18823800Y-7975000D02*
X18873800Y-8025000D01*
X18873800Y-7975000D02*
X18823800Y-8025000D01*
X18823800Y-8275000D02*
X18873800Y-8325000D01*
X18873800Y-8275000D02*
X18823800Y-8325000D01*
X18898800Y-8275000D02*
X18948800Y-8325000D01*
X18948800Y-8275000D02*
X18898800Y-8325000D01*
X18900000Y-7975000D02*
X18950000Y-8025000D01*
X18950000Y-7975000D02*
X18900000Y-8025000D01*
X18975000Y-7975000D02*
X19025000Y-8025000D01*
X19025000Y-7975000D02*
X18975000Y-8025000D01*
X18975000Y-8275000D02*
X19025000Y-8325000D01*
X19025000Y-8275000D02*
X18975000Y-8325000D01*
X19050000Y-7975000D02*
X19100000Y-8025000D01*
X19100000Y-7975000D02*
X19050000Y-8025000D01*
X19050000Y-8275000D02*
X19100000Y-8325000D01*
X19100000Y-8275000D02*
X19050000Y-8325000D01*
X19127400Y-7975000D02*
X19177400Y-8025000D01*
X19177400Y-7975000D02*
X19127400Y-8025000D01*
X19127400Y-8275000D02*
X19177400Y-8325000D01*
X19177400Y-8275000D02*
X19127400Y-8325000D01*
X20523800Y-7975000D02*
X20573800Y-8025000D01*
X20573800Y-7975000D02*
X20523800Y-8025000D01*
X20523800Y-8275000D02*
X20573800Y-8325000D01*
X20573800Y-8275000D02*
X20523800Y-8325000D01*
X20598800Y-8275000D02*
X20648800Y-8325000D01*
X20648800Y-8275000D02*
X20598800Y-8325000D01*
X20600000Y-7975000D02*
X20650000Y-8025000D01*
X20650000Y-7975000D02*
X20600000Y-8025000D01*
X20675000Y-7975000D02*
X20725000Y-8025000D01*
X20725000Y-7975000D02*
X20675000Y-8025000D01*
X20675000Y-8275000D02*
X20725000Y-8325000D01*
X20725000Y-8275000D02*
X20675000Y-8325000D01*
X20750000Y-7975000D02*
X20800000Y-8025000D01*
X20800000Y-7975000D02*
X20750000Y-8025000D01*
X20750000Y-8275000D02*
X20800000Y-8325000D01*
X20800000Y-8275000D02*
X20750000Y-8325000D01*
X20827400Y-7975000D02*
X20877400Y-8025000D01*
X20877400Y-7975000D02*
X20827400Y-8025000D01*
X20827400Y-8275000D02*
X20877400Y-8325000D01*
X20877400Y-8275000D02*
X20827400Y-8325000D01*
D12*
X17958277Y-14313984D02*
X17958277Y-14113984D01*
X17958277Y-14113984D02*
X18005896Y-14113984D01*
X18005896Y-14113984D02*
X18034467Y-14123508D01*
X18034467Y-14123508D02*
X18053515Y-14142555D01*
X18053515Y-14142555D02*
X18063039Y-14161603D01*
X18063039Y-14161603D02*
X18072563Y-14199698D01*
X18072563Y-14199698D02*
X18072563Y-14228269D01*
X18072563Y-14228269D02*
X18063039Y-14266365D01*
X18063039Y-14266365D02*
X18053515Y-14285412D01*
X18053515Y-14285412D02*
X18034467Y-14304460D01*
X18034467Y-14304460D02*
X18005896Y-14313984D01*
X18005896Y-14313984D02*
X17958277Y-14313984D01*
X18158277Y-14313984D02*
X18158277Y-14180650D01*
X18158277Y-14218746D02*
X18167801Y-14199698D01*
X18167801Y-14199698D02*
X18177324Y-14190174D01*
X18177324Y-14190174D02*
X18196372Y-14180650D01*
X18196372Y-14180650D02*
X18215420Y-14180650D01*
X18282086Y-14313984D02*
X18282086Y-14180650D01*
X18282086Y-14113984D02*
X18272563Y-14123508D01*
X18272563Y-14123508D02*
X18282086Y-14133031D01*
X18282086Y-14133031D02*
X18291610Y-14123508D01*
X18291610Y-14123508D02*
X18282086Y-14113984D01*
X18282086Y-14113984D02*
X18282086Y-14133031D01*
X18405896Y-14313984D02*
X18386848Y-14304460D01*
X18386848Y-14304460D02*
X18377324Y-14285412D01*
X18377324Y-14285412D02*
X18377324Y-14113984D01*
X18510658Y-14313984D02*
X18491610Y-14304460D01*
X18491610Y-14304460D02*
X18482086Y-14285412D01*
X18482086Y-14285412D02*
X18482086Y-14113984D01*
X18739229Y-14313984D02*
X18739229Y-14113984D01*
X18739229Y-14113984D02*
X18805896Y-14256841D01*
X18805896Y-14256841D02*
X18872563Y-14113984D01*
X18872563Y-14113984D02*
X18872563Y-14313984D01*
X19053515Y-14313984D02*
X19053515Y-14209222D01*
X19053515Y-14209222D02*
X19043991Y-14190174D01*
X19043991Y-14190174D02*
X19024944Y-14180650D01*
X19024944Y-14180650D02*
X18986848Y-14180650D01*
X18986848Y-14180650D02*
X18967801Y-14190174D01*
X19053515Y-14304460D02*
X19034467Y-14313984D01*
X19034467Y-14313984D02*
X18986848Y-14313984D01*
X18986848Y-14313984D02*
X18967801Y-14304460D01*
X18967801Y-14304460D02*
X18958277Y-14285412D01*
X18958277Y-14285412D02*
X18958277Y-14266365D01*
X18958277Y-14266365D02*
X18967801Y-14247317D01*
X18967801Y-14247317D02*
X18986848Y-14237793D01*
X18986848Y-14237793D02*
X19034467Y-14237793D01*
X19034467Y-14237793D02*
X19053515Y-14228269D01*
X19148753Y-14180650D02*
X19148753Y-14380650D01*
X19148753Y-14190174D02*
X19167801Y-14180650D01*
X19167801Y-14180650D02*
X19205896Y-14180650D01*
X19205896Y-14180650D02*
X19224944Y-14190174D01*
X19224944Y-14190174D02*
X19234467Y-14199698D01*
X19234467Y-14199698D02*
X19243991Y-14218746D01*
X19243991Y-14218746D02*
X19243991Y-14275888D01*
X19243991Y-14275888D02*
X19234467Y-14294936D01*
X19234467Y-14294936D02*
X19224944Y-14304460D01*
X19224944Y-14304460D02*
X19205896Y-14313984D01*
X19205896Y-14313984D02*
X19167801Y-14313984D01*
X19167801Y-14313984D02*
X19148753Y-14304460D01*
X19329705Y-14294936D02*
X19339229Y-14304460D01*
X19339229Y-14304460D02*
X19329705Y-14313984D01*
X19329705Y-14313984D02*
X19320182Y-14304460D01*
X19320182Y-14304460D02*
X19329705Y-14294936D01*
X19329705Y-14294936D02*
X19329705Y-14313984D01*
X19329705Y-14190174D02*
X19339229Y-14199698D01*
X19339229Y-14199698D02*
X19329705Y-14209222D01*
X19329705Y-14209222D02*
X19320182Y-14199698D01*
X19320182Y-14199698D02*
X19329705Y-14190174D01*
X19329705Y-14190174D02*
X19329705Y-14209222D01*
D13*
X17647500Y-14617500D02*
X17697500Y-14667500D01*
X17697500Y-14617500D02*
X17647500Y-14667500D01*
D12*
X17996372Y-14533984D02*
X18015420Y-14533984D01*
X18015420Y-14533984D02*
X18034467Y-14543508D01*
X18034467Y-14543508D02*
X18043991Y-14553031D01*
X18043991Y-14553031D02*
X18053515Y-14572079D01*
X18053515Y-14572079D02*
X18063039Y-14610174D01*
X18063039Y-14610174D02*
X18063039Y-14657793D01*
X18063039Y-14657793D02*
X18053515Y-14695888D01*
X18053515Y-14695888D02*
X18043991Y-14714936D01*
X18043991Y-14714936D02*
X18034467Y-14724460D01*
X18034467Y-14724460D02*
X18015420Y-14733984D01*
X18015420Y-14733984D02*
X17996372Y-14733984D01*
X17996372Y-14733984D02*
X17977324Y-14724460D01*
X17977324Y-14724460D02*
X17967801Y-14714936D01*
X17967801Y-14714936D02*
X17958277Y-14695888D01*
X17958277Y-14695888D02*
X17948753Y-14657793D01*
X17948753Y-14657793D02*
X17948753Y-14610174D01*
X17948753Y-14610174D02*
X17958277Y-14572079D01*
X17958277Y-14572079D02*
X17967801Y-14553031D01*
X17967801Y-14553031D02*
X17977324Y-14543508D01*
X17977324Y-14543508D02*
X17996372Y-14533984D01*
X18148753Y-14714936D02*
X18158277Y-14724460D01*
X18158277Y-14724460D02*
X18148753Y-14733984D01*
X18148753Y-14733984D02*
X18139229Y-14724460D01*
X18139229Y-14724460D02*
X18148753Y-14714936D01*
X18148753Y-14714936D02*
X18148753Y-14733984D01*
X18339229Y-14533984D02*
X18243991Y-14533984D01*
X18243991Y-14533984D02*
X18234467Y-14629222D01*
X18234467Y-14629222D02*
X18243991Y-14619698D01*
X18243991Y-14619698D02*
X18263039Y-14610174D01*
X18263039Y-14610174D02*
X18310658Y-14610174D01*
X18310658Y-14610174D02*
X18329705Y-14619698D01*
X18329705Y-14619698D02*
X18339229Y-14629222D01*
X18339229Y-14629222D02*
X18348753Y-14648269D01*
X18348753Y-14648269D02*
X18348753Y-14695888D01*
X18348753Y-14695888D02*
X18339229Y-14714936D01*
X18339229Y-14714936D02*
X18329705Y-14724460D01*
X18329705Y-14724460D02*
X18310658Y-14733984D01*
X18310658Y-14733984D02*
X18263039Y-14733984D01*
X18263039Y-14733984D02*
X18243991Y-14724460D01*
X18243991Y-14724460D02*
X18234467Y-14714936D01*
X18472563Y-14533984D02*
X18491610Y-14533984D01*
X18491610Y-14533984D02*
X18510658Y-14543508D01*
X18510658Y-14543508D02*
X18520182Y-14553031D01*
X18520182Y-14553031D02*
X18529705Y-14572079D01*
X18529705Y-14572079D02*
X18539229Y-14610174D01*
X18539229Y-14610174D02*
X18539229Y-14657793D01*
X18539229Y-14657793D02*
X18529705Y-14695888D01*
X18529705Y-14695888D02*
X18520182Y-14714936D01*
X18520182Y-14714936D02*
X18510658Y-14724460D01*
X18510658Y-14724460D02*
X18491610Y-14733984D01*
X18491610Y-14733984D02*
X18472563Y-14733984D01*
X18472563Y-14733984D02*
X18453515Y-14724460D01*
X18453515Y-14724460D02*
X18443991Y-14714936D01*
X18443991Y-14714936D02*
X18434467Y-14695888D01*
X18434467Y-14695888D02*
X18424944Y-14657793D01*
X18424944Y-14657793D02*
X18424944Y-14610174D01*
X18424944Y-14610174D02*
X18434467Y-14572079D01*
X18434467Y-14572079D02*
X18443991Y-14553031D01*
X18443991Y-14553031D02*
X18453515Y-14543508D01*
X18453515Y-14543508D02*
X18472563Y-14533984D01*
X18663039Y-14533984D02*
X18682086Y-14533984D01*
X18682086Y-14533984D02*
X18701134Y-14543508D01*
X18701134Y-14543508D02*
X18710658Y-14553031D01*
X18710658Y-14553031D02*
X18720182Y-14572079D01*
X18720182Y-14572079D02*
X18729705Y-14610174D01*
X18729705Y-14610174D02*
X18729705Y-14657793D01*
X18729705Y-14657793D02*
X18720182Y-14695888D01*
X18720182Y-14695888D02*
X18710658Y-14714936D01*
X18710658Y-14714936D02*
X18701134Y-14724460D01*
X18701134Y-14724460D02*
X18682086Y-14733984D01*
X18682086Y-14733984D02*
X18663039Y-14733984D01*
X18663039Y-14733984D02*
X18643991Y-14724460D01*
X18643991Y-14724460D02*
X18634467Y-14714936D01*
X18634467Y-14714936D02*
X18624944Y-14695888D01*
X18624944Y-14695888D02*
X18615420Y-14657793D01*
X18615420Y-14657793D02*
X18615420Y-14610174D01*
X18615420Y-14610174D02*
X18624944Y-14572079D01*
X18624944Y-14572079D02*
X18634467Y-14553031D01*
X18634467Y-14553031D02*
X18643991Y-14543508D01*
X18643991Y-14543508D02*
X18663039Y-14533984D01*
X18815420Y-14733984D02*
X18815420Y-14600650D01*
X18815420Y-14619698D02*
X18824944Y-14610174D01*
X18824944Y-14610174D02*
X18843991Y-14600650D01*
X18843991Y-14600650D02*
X18872563Y-14600650D01*
X18872563Y-14600650D02*
X18891610Y-14610174D01*
X18891610Y-14610174D02*
X18901134Y-14629222D01*
X18901134Y-14629222D02*
X18901134Y-14733984D01*
X18901134Y-14629222D02*
X18910658Y-14610174D01*
X18910658Y-14610174D02*
X18929705Y-14600650D01*
X18929705Y-14600650D02*
X18958277Y-14600650D01*
X18958277Y-14600650D02*
X18977325Y-14610174D01*
X18977325Y-14610174D02*
X18986848Y-14629222D01*
X18986848Y-14629222D02*
X18986848Y-14733984D01*
X19082086Y-14733984D02*
X19082086Y-14600650D01*
X19082086Y-14619698D02*
X19091610Y-14610174D01*
X19091610Y-14610174D02*
X19110658Y-14600650D01*
X19110658Y-14600650D02*
X19139229Y-14600650D01*
X19139229Y-14600650D02*
X19158277Y-14610174D01*
X19158277Y-14610174D02*
X19167801Y-14629222D01*
X19167801Y-14629222D02*
X19167801Y-14733984D01*
X19167801Y-14629222D02*
X19177325Y-14610174D01*
X19177325Y-14610174D02*
X19196372Y-14600650D01*
X19196372Y-14600650D02*
X19224944Y-14600650D01*
X19224944Y-14600650D02*
X19243991Y-14610174D01*
X19243991Y-14610174D02*
X19253515Y-14629222D01*
X19253515Y-14629222D02*
X19253515Y-14733984D01*
X19643991Y-14524460D02*
X19472563Y-14781603D01*
X19901134Y-14533984D02*
X19920182Y-14533984D01*
X19920182Y-14533984D02*
X19939229Y-14543508D01*
X19939229Y-14543508D02*
X19948753Y-14553031D01*
X19948753Y-14553031D02*
X19958277Y-14572079D01*
X19958277Y-14572079D02*
X19967801Y-14610174D01*
X19967801Y-14610174D02*
X19967801Y-14657793D01*
X19967801Y-14657793D02*
X19958277Y-14695888D01*
X19958277Y-14695888D02*
X19948753Y-14714936D01*
X19948753Y-14714936D02*
X19939229Y-14724460D01*
X19939229Y-14724460D02*
X19920182Y-14733984D01*
X19920182Y-14733984D02*
X19901134Y-14733984D01*
X19901134Y-14733984D02*
X19882087Y-14724460D01*
X19882087Y-14724460D02*
X19872563Y-14714936D01*
X19872563Y-14714936D02*
X19863039Y-14695888D01*
X19863039Y-14695888D02*
X19853515Y-14657793D01*
X19853515Y-14657793D02*
X19853515Y-14610174D01*
X19853515Y-14610174D02*
X19863039Y-14572079D01*
X19863039Y-14572079D02*
X19872563Y-14553031D01*
X19872563Y-14553031D02*
X19882087Y-14543508D01*
X19882087Y-14543508D02*
X19901134Y-14533984D01*
X20053515Y-14714936D02*
X20063039Y-14724460D01*
X20063039Y-14724460D02*
X20053515Y-14733984D01*
X20053515Y-14733984D02*
X20043991Y-14724460D01*
X20043991Y-14724460D02*
X20053515Y-14714936D01*
X20053515Y-14714936D02*
X20053515Y-14733984D01*
X20186848Y-14533984D02*
X20205896Y-14533984D01*
X20205896Y-14533984D02*
X20224944Y-14543508D01*
X20224944Y-14543508D02*
X20234468Y-14553031D01*
X20234468Y-14553031D02*
X20243991Y-14572079D01*
X20243991Y-14572079D02*
X20253515Y-14610174D01*
X20253515Y-14610174D02*
X20253515Y-14657793D01*
X20253515Y-14657793D02*
X20243991Y-14695888D01*
X20243991Y-14695888D02*
X20234468Y-14714936D01*
X20234468Y-14714936D02*
X20224944Y-14724460D01*
X20224944Y-14724460D02*
X20205896Y-14733984D01*
X20205896Y-14733984D02*
X20186848Y-14733984D01*
X20186848Y-14733984D02*
X20167801Y-14724460D01*
X20167801Y-14724460D02*
X20158277Y-14714936D01*
X20158277Y-14714936D02*
X20148753Y-14695888D01*
X20148753Y-14695888D02*
X20139229Y-14657793D01*
X20139229Y-14657793D02*
X20139229Y-14610174D01*
X20139229Y-14610174D02*
X20148753Y-14572079D01*
X20148753Y-14572079D02*
X20158277Y-14553031D01*
X20158277Y-14553031D02*
X20167801Y-14543508D01*
X20167801Y-14543508D02*
X20186848Y-14533984D01*
X20443991Y-14733984D02*
X20329706Y-14733984D01*
X20386848Y-14733984D02*
X20386848Y-14533984D01*
X20386848Y-14533984D02*
X20367801Y-14562555D01*
X20367801Y-14562555D02*
X20348753Y-14581603D01*
X20348753Y-14581603D02*
X20329706Y-14591127D01*
X20539229Y-14733984D02*
X20577325Y-14733984D01*
X20577325Y-14733984D02*
X20596372Y-14724460D01*
X20596372Y-14724460D02*
X20605896Y-14714936D01*
X20605896Y-14714936D02*
X20624944Y-14686365D01*
X20624944Y-14686365D02*
X20634468Y-14648269D01*
X20634468Y-14648269D02*
X20634468Y-14572079D01*
X20634468Y-14572079D02*
X20624944Y-14553031D01*
X20624944Y-14553031D02*
X20615420Y-14543508D01*
X20615420Y-14543508D02*
X20596372Y-14533984D01*
X20596372Y-14533984D02*
X20558277Y-14533984D01*
X20558277Y-14533984D02*
X20539229Y-14543508D01*
X20539229Y-14543508D02*
X20529706Y-14553031D01*
X20529706Y-14553031D02*
X20520182Y-14572079D01*
X20520182Y-14572079D02*
X20520182Y-14619698D01*
X20520182Y-14619698D02*
X20529706Y-14638746D01*
X20529706Y-14638746D02*
X20539229Y-14648269D01*
X20539229Y-14648269D02*
X20558277Y-14657793D01*
X20558277Y-14657793D02*
X20596372Y-14657793D01*
X20596372Y-14657793D02*
X20615420Y-14648269D01*
X20615420Y-14648269D02*
X20624944Y-14638746D01*
X20624944Y-14638746D02*
X20634468Y-14619698D01*
X20701134Y-14533984D02*
X20834468Y-14533984D01*
X20834468Y-14533984D02*
X20748753Y-14733984D01*
X20901134Y-14533984D02*
X20901134Y-14572079D01*
X20977325Y-14533984D02*
X20977325Y-14572079D01*
X21272563Y-14810174D02*
X21263039Y-14800650D01*
X21263039Y-14800650D02*
X21243991Y-14772079D01*
X21243991Y-14772079D02*
X21234468Y-14753031D01*
X21234468Y-14753031D02*
X21224944Y-14724460D01*
X21224944Y-14724460D02*
X21215420Y-14676841D01*
X21215420Y-14676841D02*
X21215420Y-14638746D01*
X21215420Y-14638746D02*
X21224944Y-14591127D01*
X21224944Y-14591127D02*
X21234468Y-14562555D01*
X21234468Y-14562555D02*
X21243991Y-14543508D01*
X21243991Y-14543508D02*
X21263039Y-14514936D01*
X21263039Y-14514936D02*
X21272563Y-14505412D01*
X21339230Y-14553031D02*
X21348753Y-14543508D01*
X21348753Y-14543508D02*
X21367801Y-14533984D01*
X21367801Y-14533984D02*
X21415420Y-14533984D01*
X21415420Y-14533984D02*
X21434468Y-14543508D01*
X21434468Y-14543508D02*
X21443991Y-14553031D01*
X21443991Y-14553031D02*
X21453515Y-14572079D01*
X21453515Y-14572079D02*
X21453515Y-14591127D01*
X21453515Y-14591127D02*
X21443991Y-14619698D01*
X21443991Y-14619698D02*
X21329706Y-14733984D01*
X21329706Y-14733984D02*
X21453515Y-14733984D01*
X21577325Y-14533984D02*
X21596372Y-14533984D01*
X21596372Y-14533984D02*
X21615420Y-14543508D01*
X21615420Y-14543508D02*
X21624944Y-14553031D01*
X21624944Y-14553031D02*
X21634468Y-14572079D01*
X21634468Y-14572079D02*
X21643991Y-14610174D01*
X21643991Y-14610174D02*
X21643991Y-14657793D01*
X21643991Y-14657793D02*
X21634468Y-14695888D01*
X21634468Y-14695888D02*
X21624944Y-14714936D01*
X21624944Y-14714936D02*
X21615420Y-14724460D01*
X21615420Y-14724460D02*
X21596372Y-14733984D01*
X21596372Y-14733984D02*
X21577325Y-14733984D01*
X21577325Y-14733984D02*
X21558277Y-14724460D01*
X21558277Y-14724460D02*
X21548753Y-14714936D01*
X21548753Y-14714936D02*
X21539230Y-14695888D01*
X21539230Y-14695888D02*
X21529706Y-14657793D01*
X21529706Y-14657793D02*
X21529706Y-14610174D01*
X21529706Y-14610174D02*
X21539230Y-14572079D01*
X21539230Y-14572079D02*
X21548753Y-14553031D01*
X21548753Y-14553031D02*
X21558277Y-14543508D01*
X21558277Y-14543508D02*
X21577325Y-14533984D01*
X21882087Y-14733984D02*
X21882087Y-14533984D01*
X21967801Y-14733984D02*
X21967801Y-14629222D01*
X21967801Y-14629222D02*
X21958277Y-14610174D01*
X21958277Y-14610174D02*
X21939230Y-14600650D01*
X21939230Y-14600650D02*
X21910658Y-14600650D01*
X21910658Y-14600650D02*
X21891611Y-14610174D01*
X21891611Y-14610174D02*
X21882087Y-14619698D01*
X22091611Y-14733984D02*
X22072563Y-14724460D01*
X22072563Y-14724460D02*
X22063039Y-14714936D01*
X22063039Y-14714936D02*
X22053515Y-14695888D01*
X22053515Y-14695888D02*
X22053515Y-14638746D01*
X22053515Y-14638746D02*
X22063039Y-14619698D01*
X22063039Y-14619698D02*
X22072563Y-14610174D01*
X22072563Y-14610174D02*
X22091611Y-14600650D01*
X22091611Y-14600650D02*
X22120182Y-14600650D01*
X22120182Y-14600650D02*
X22139230Y-14610174D01*
X22139230Y-14610174D02*
X22148753Y-14619698D01*
X22148753Y-14619698D02*
X22158277Y-14638746D01*
X22158277Y-14638746D02*
X22158277Y-14695888D01*
X22158277Y-14695888D02*
X22148753Y-14714936D01*
X22148753Y-14714936D02*
X22139230Y-14724460D01*
X22139230Y-14724460D02*
X22120182Y-14733984D01*
X22120182Y-14733984D02*
X22091611Y-14733984D01*
X22272563Y-14733984D02*
X22253515Y-14724460D01*
X22253515Y-14724460D02*
X22243992Y-14705412D01*
X22243992Y-14705412D02*
X22243992Y-14533984D01*
X22424944Y-14724460D02*
X22405896Y-14733984D01*
X22405896Y-14733984D02*
X22367801Y-14733984D01*
X22367801Y-14733984D02*
X22348753Y-14724460D01*
X22348753Y-14724460D02*
X22339230Y-14705412D01*
X22339230Y-14705412D02*
X22339230Y-14629222D01*
X22339230Y-14629222D02*
X22348753Y-14610174D01*
X22348753Y-14610174D02*
X22367801Y-14600650D01*
X22367801Y-14600650D02*
X22405896Y-14600650D01*
X22405896Y-14600650D02*
X22424944Y-14610174D01*
X22424944Y-14610174D02*
X22434468Y-14629222D01*
X22434468Y-14629222D02*
X22434468Y-14648269D01*
X22434468Y-14648269D02*
X22339230Y-14667317D01*
X22510658Y-14724460D02*
X22529706Y-14733984D01*
X22529706Y-14733984D02*
X22567801Y-14733984D01*
X22567801Y-14733984D02*
X22586849Y-14724460D01*
X22586849Y-14724460D02*
X22596372Y-14705412D01*
X22596372Y-14705412D02*
X22596372Y-14695888D01*
X22596372Y-14695888D02*
X22586849Y-14676841D01*
X22586849Y-14676841D02*
X22567801Y-14667317D01*
X22567801Y-14667317D02*
X22539230Y-14667317D01*
X22539230Y-14667317D02*
X22520182Y-14657793D01*
X22520182Y-14657793D02*
X22510658Y-14638746D01*
X22510658Y-14638746D02*
X22510658Y-14629222D01*
X22510658Y-14629222D02*
X22520182Y-14610174D01*
X22520182Y-14610174D02*
X22539230Y-14600650D01*
X22539230Y-14600650D02*
X22567801Y-14600650D01*
X22567801Y-14600650D02*
X22586849Y-14610174D01*
X22663039Y-14810174D02*
X22672563Y-14800650D01*
X22672563Y-14800650D02*
X22691611Y-14772079D01*
X22691611Y-14772079D02*
X22701134Y-14753031D01*
X22701134Y-14753031D02*
X22710658Y-14724460D01*
X22710658Y-14724460D02*
X22720182Y-14676841D01*
X22720182Y-14676841D02*
X22720182Y-14638746D01*
X22720182Y-14638746D02*
X22710658Y-14591127D01*
X22710658Y-14591127D02*
X22701134Y-14562555D01*
X22701134Y-14562555D02*
X22691611Y-14543508D01*
X22691611Y-14543508D02*
X22672563Y-14514936D01*
X22672563Y-14514936D02*
X22663039Y-14505412D01*
X23024944Y-14810174D02*
X23015420Y-14800650D01*
X23015420Y-14800650D02*
X22996372Y-14772079D01*
X22996372Y-14772079D02*
X22986849Y-14753031D01*
X22986849Y-14753031D02*
X22977325Y-14724460D01*
X22977325Y-14724460D02*
X22967801Y-14676841D01*
X22967801Y-14676841D02*
X22967801Y-14638746D01*
X22967801Y-14638746D02*
X22977325Y-14591127D01*
X22977325Y-14591127D02*
X22986849Y-14562555D01*
X22986849Y-14562555D02*
X22996372Y-14543508D01*
X22996372Y-14543508D02*
X23015420Y-14514936D01*
X23015420Y-14514936D02*
X23024944Y-14505412D01*
X23101134Y-14600650D02*
X23101134Y-14733984D01*
X23101134Y-14619698D02*
X23110658Y-14610174D01*
X23110658Y-14610174D02*
X23129706Y-14600650D01*
X23129706Y-14600650D02*
X23158277Y-14600650D01*
X23158277Y-14600650D02*
X23177325Y-14610174D01*
X23177325Y-14610174D02*
X23186849Y-14629222D01*
X23186849Y-14629222D02*
X23186849Y-14733984D01*
X23310658Y-14733984D02*
X23291611Y-14724460D01*
X23291611Y-14724460D02*
X23282087Y-14714936D01*
X23282087Y-14714936D02*
X23272563Y-14695888D01*
X23272563Y-14695888D02*
X23272563Y-14638746D01*
X23272563Y-14638746D02*
X23282087Y-14619698D01*
X23282087Y-14619698D02*
X23291611Y-14610174D01*
X23291611Y-14610174D02*
X23310658Y-14600650D01*
X23310658Y-14600650D02*
X23339230Y-14600650D01*
X23339230Y-14600650D02*
X23358277Y-14610174D01*
X23358277Y-14610174D02*
X23367801Y-14619698D01*
X23367801Y-14619698D02*
X23377325Y-14638746D01*
X23377325Y-14638746D02*
X23377325Y-14695888D01*
X23377325Y-14695888D02*
X23367801Y-14714936D01*
X23367801Y-14714936D02*
X23358277Y-14724460D01*
X23358277Y-14724460D02*
X23339230Y-14733984D01*
X23339230Y-14733984D02*
X23310658Y-14733984D01*
X23434468Y-14600650D02*
X23510658Y-14600650D01*
X23463039Y-14533984D02*
X23463039Y-14705412D01*
X23463039Y-14705412D02*
X23472563Y-14724460D01*
X23472563Y-14724460D02*
X23491611Y-14733984D01*
X23491611Y-14733984D02*
X23510658Y-14733984D01*
X23729706Y-14600650D02*
X23729706Y-14800650D01*
X23729706Y-14610174D02*
X23748753Y-14600650D01*
X23748753Y-14600650D02*
X23786849Y-14600650D01*
X23786849Y-14600650D02*
X23805896Y-14610174D01*
X23805896Y-14610174D02*
X23815420Y-14619698D01*
X23815420Y-14619698D02*
X23824944Y-14638746D01*
X23824944Y-14638746D02*
X23824944Y-14695888D01*
X23824944Y-14695888D02*
X23815420Y-14714936D01*
X23815420Y-14714936D02*
X23805896Y-14724460D01*
X23805896Y-14724460D02*
X23786849Y-14733984D01*
X23786849Y-14733984D02*
X23748753Y-14733984D01*
X23748753Y-14733984D02*
X23729706Y-14724460D01*
X23939230Y-14733984D02*
X23920182Y-14724460D01*
X23920182Y-14724460D02*
X23910658Y-14705412D01*
X23910658Y-14705412D02*
X23910658Y-14533984D01*
X24101134Y-14733984D02*
X24101134Y-14629222D01*
X24101134Y-14629222D02*
X24091611Y-14610174D01*
X24091611Y-14610174D02*
X24072563Y-14600650D01*
X24072563Y-14600650D02*
X24034468Y-14600650D01*
X24034468Y-14600650D02*
X24015420Y-14610174D01*
X24101134Y-14724460D02*
X24082087Y-14733984D01*
X24082087Y-14733984D02*
X24034468Y-14733984D01*
X24034468Y-14733984D02*
X24015420Y-14724460D01*
X24015420Y-14724460D02*
X24005896Y-14705412D01*
X24005896Y-14705412D02*
X24005896Y-14686365D01*
X24005896Y-14686365D02*
X24015420Y-14667317D01*
X24015420Y-14667317D02*
X24034468Y-14657793D01*
X24034468Y-14657793D02*
X24082087Y-14657793D01*
X24082087Y-14657793D02*
X24101134Y-14648269D01*
X24167801Y-14600650D02*
X24243992Y-14600650D01*
X24196373Y-14533984D02*
X24196373Y-14705412D01*
X24196373Y-14705412D02*
X24205896Y-14724460D01*
X24205896Y-14724460D02*
X24224944Y-14733984D01*
X24224944Y-14733984D02*
X24243992Y-14733984D01*
X24386849Y-14724460D02*
X24367801Y-14733984D01*
X24367801Y-14733984D02*
X24329706Y-14733984D01*
X24329706Y-14733984D02*
X24310658Y-14724460D01*
X24310658Y-14724460D02*
X24301134Y-14705412D01*
X24301134Y-14705412D02*
X24301134Y-14629222D01*
X24301134Y-14629222D02*
X24310658Y-14610174D01*
X24310658Y-14610174D02*
X24329706Y-14600650D01*
X24329706Y-14600650D02*
X24367801Y-14600650D01*
X24367801Y-14600650D02*
X24386849Y-14610174D01*
X24386849Y-14610174D02*
X24396373Y-14629222D01*
X24396373Y-14629222D02*
X24396373Y-14648269D01*
X24396373Y-14648269D02*
X24301134Y-14667317D01*
X24567801Y-14733984D02*
X24567801Y-14533984D01*
X24567801Y-14724460D02*
X24548754Y-14733984D01*
X24548754Y-14733984D02*
X24510658Y-14733984D01*
X24510658Y-14733984D02*
X24491611Y-14724460D01*
X24491611Y-14724460D02*
X24482087Y-14714936D01*
X24482087Y-14714936D02*
X24472563Y-14695888D01*
X24472563Y-14695888D02*
X24472563Y-14638746D01*
X24472563Y-14638746D02*
X24482087Y-14619698D01*
X24482087Y-14619698D02*
X24491611Y-14610174D01*
X24491611Y-14610174D02*
X24510658Y-14600650D01*
X24510658Y-14600650D02*
X24548754Y-14600650D01*
X24548754Y-14600650D02*
X24567801Y-14610174D01*
X24643992Y-14810174D02*
X24653515Y-14800650D01*
X24653515Y-14800650D02*
X24672563Y-14772079D01*
X24672563Y-14772079D02*
X24682087Y-14753031D01*
X24682087Y-14753031D02*
X24691611Y-14724460D01*
X24691611Y-14724460D02*
X24701134Y-14676841D01*
X24701134Y-14676841D02*
X24701134Y-14638746D01*
X24701134Y-14638746D02*
X24691611Y-14591127D01*
X24691611Y-14591127D02*
X24682087Y-14562555D01*
X24682087Y-14562555D02*
X24672563Y-14543508D01*
X24672563Y-14543508D02*
X24653515Y-14514936D01*
X24653515Y-14514936D02*
X24643992Y-14505412D01*
M02*
