%TF.GenerationSoftware,KiCad,Pcbnew,8.0.5*%
%TF.CreationDate,2025-01-18T12:13:08+01:00*%
%TF.ProjectId,Floppy voltmeter clock,466c6f70-7079-4207-966f-6c746d657465,1.0*%
%TF.SameCoordinates,Original*%
%TF.FileFunction,Paste,Top*%
%TF.FilePolarity,Positive*%
%FSLAX46Y46*%
G04 Gerber Fmt 4.6, Leading zero omitted, Abs format (unit mm)*
G04 Created by KiCad (PCBNEW 8.0.5) date 2025-01-18 12:13:08*
%MOMM*%
%LPD*%
G01*
G04 APERTURE LIST*
G04 Aperture macros list*
%AMRoundRect*
0 Rectangle with rounded corners*
0 $1 Rounding radius*
0 $2 $3 $4 $5 $6 $7 $8 $9 X,Y pos of 4 corners*
0 Add a 4 corners polygon primitive as box body*
4,1,4,$2,$3,$4,$5,$6,$7,$8,$9,$2,$3,0*
0 Add four circle primitives for the rounded corners*
1,1,$1+$1,$2,$3*
1,1,$1+$1,$4,$5*
1,1,$1+$1,$6,$7*
1,1,$1+$1,$8,$9*
0 Add four rect primitives between the rounded corners*
20,1,$1+$1,$2,$3,$4,$5,0*
20,1,$1+$1,$4,$5,$6,$7,0*
20,1,$1+$1,$6,$7,$8,$9,0*
20,1,$1+$1,$8,$9,$2,$3,0*%
G04 Aperture macros list end*
%ADD10RoundRect,0.250000X0.350000X0.450000X-0.350000X0.450000X-0.350000X-0.450000X0.350000X-0.450000X0*%
%ADD11R,1.500000X1.200000*%
%ADD12R,1.500000X1.500000*%
%ADD13R,0.700000X1.200000*%
%ADD14R,0.800000X1.200000*%
%ADD15R,0.900000X1.200000*%
%ADD16RoundRect,0.250000X-0.475000X0.337500X-0.475000X-0.337500X0.475000X-0.337500X0.475000X0.337500X0*%
%ADD17RoundRect,0.250000X-0.337500X-0.475000X0.337500X-0.475000X0.337500X0.475000X-0.337500X0.475000X0*%
%ADD18R,1.100000X1.800000*%
%ADD19RoundRect,0.100000X0.100000X-0.637500X0.100000X0.637500X-0.100000X0.637500X-0.100000X-0.637500X0*%
%ADD20RoundRect,0.150000X-0.150000X0.587500X-0.150000X-0.587500X0.150000X-0.587500X0.150000X0.587500X0*%
%ADD21RoundRect,0.250000X0.475000X-0.337500X0.475000X0.337500X-0.475000X0.337500X-0.475000X-0.337500X0*%
%ADD22RoundRect,0.250000X0.337500X0.475000X-0.337500X0.475000X-0.337500X-0.475000X0.337500X-0.475000X0*%
%ADD23RoundRect,0.150000X-0.875000X-0.150000X0.875000X-0.150000X0.875000X0.150000X-0.875000X0.150000X0*%
%ADD24RoundRect,0.250000X-0.450000X0.350000X-0.450000X-0.350000X0.450000X-0.350000X0.450000X0.350000X0*%
%ADD25R,2.600000X3.600000*%
%ADD26RoundRect,0.250000X0.450000X-0.350000X0.450000X0.350000X-0.450000X0.350000X-0.450000X-0.350000X0*%
%ADD27RoundRect,0.250000X0.450000X-0.325000X0.450000X0.325000X-0.450000X0.325000X-0.450000X-0.325000X0*%
%ADD28RoundRect,0.250000X-0.350000X-0.450000X0.350000X-0.450000X0.350000X0.450000X-0.350000X0.450000X0*%
%ADD29RoundRect,0.250000X-0.450000X0.325000X-0.450000X-0.325000X0.450000X-0.325000X0.450000X0.325000X0*%
%ADD30R,1.800000X1.100000*%
G04 APERTURE END LIST*
D10*
%TO.C,R7*%
X210650000Y-108314000D03*
X208650000Y-108314000D03*
%TD*%
D11*
%TO.C,J2*%
X199675000Y-134375000D03*
X210325000Y-134375000D03*
D12*
X199675000Y-137975000D03*
X210325000Y-137975000D03*
D13*
X204500000Y-134025000D03*
D14*
X206520000Y-134025000D03*
D15*
X207750000Y-134025000D03*
D13*
X205500000Y-134025000D03*
D14*
X203480000Y-134025000D03*
D15*
X202250000Y-134025000D03*
%TD*%
D16*
%TO.C,C5*%
X186028000Y-134327500D03*
X186028000Y-136402500D03*
%TD*%
D17*
%TO.C,C1*%
X205229500Y-126756500D03*
X207304500Y-126756500D03*
%TD*%
D18*
%TO.C,SW3*%
X205150000Y-77100000D03*
X205150000Y-70900000D03*
X208850000Y-77100000D03*
X208850000Y-70900000D03*
%TD*%
D19*
%TO.C,U1*%
X203717000Y-121089500D03*
X204367000Y-121089500D03*
X205017000Y-121089500D03*
X205667000Y-121089500D03*
X206317000Y-121089500D03*
X206967000Y-121089500D03*
X207617000Y-121089500D03*
X208267000Y-121089500D03*
X208917000Y-121089500D03*
X209567000Y-121089500D03*
X209567000Y-115364500D03*
X208917000Y-115364500D03*
X208267000Y-115364500D03*
X207617000Y-115364500D03*
X206967000Y-115364500D03*
X206317000Y-115364500D03*
X205667000Y-115364500D03*
X205017000Y-115364500D03*
X204367000Y-115364500D03*
X203717000Y-115364500D03*
%TD*%
D20*
%TO.C,U2*%
X199337000Y-124782500D03*
X197437000Y-124782500D03*
X198387000Y-126657500D03*
%TD*%
D21*
%TO.C,C6*%
X201586000Y-126681500D03*
X201586000Y-124606500D03*
%TD*%
D22*
%TO.C,C3*%
X201719500Y-131301000D03*
X199644500Y-131301000D03*
%TD*%
D23*
%TO.C,U3*%
X187260000Y-112512000D03*
X187260000Y-113782000D03*
X187260000Y-115052000D03*
X187260000Y-116322000D03*
X187260000Y-117592000D03*
X187260000Y-118862000D03*
X187260000Y-120132000D03*
X187260000Y-121402000D03*
X196560000Y-121402000D03*
X196560000Y-120132000D03*
X196560000Y-118862000D03*
X196560000Y-117592000D03*
X196560000Y-116322000D03*
X196560000Y-115052000D03*
X196560000Y-113782000D03*
X196560000Y-112512000D03*
%TD*%
D24*
%TO.C,R5*%
X199276000Y-120402000D03*
X199276000Y-122402000D03*
%TD*%
D16*
%TO.C,C8*%
X184631000Y-113753500D03*
X184631000Y-115828500D03*
%TD*%
%TO.C,C7*%
X195363000Y-124802500D03*
X195363000Y-126877500D03*
%TD*%
D25*
%TO.C,BT1*%
X180943000Y-99177000D03*
X210243000Y-99177000D03*
%TD*%
D26*
%TO.C,R2*%
X204570000Y-131412000D03*
X204570000Y-129412000D03*
%TD*%
D17*
%TO.C,C2*%
X205229500Y-124364500D03*
X207304500Y-124364500D03*
%TD*%
D27*
%TO.C,D1*%
X193013000Y-126865000D03*
X193013000Y-124815000D03*
%TD*%
D28*
%TO.C,R3*%
X193029000Y-128888000D03*
X195029000Y-128888000D03*
%TD*%
D26*
%TO.C,R6*%
X201435000Y-122402000D03*
X201435000Y-120402000D03*
%TD*%
D24*
%TO.C,R1*%
X206729000Y-129412000D03*
X206729000Y-131412000D03*
%TD*%
D26*
%TO.C,R4*%
X207618000Y-112362000D03*
X207618000Y-110362000D03*
%TD*%
D29*
%TO.C,D2*%
X209904000Y-110337000D03*
X209904000Y-112387000D03*
%TD*%
D22*
%TO.C,C4*%
X201719500Y-129015000D03*
X199644500Y-129015000D03*
%TD*%
D18*
%TO.C,SW2*%
X191850000Y-70900000D03*
X191850000Y-77100000D03*
X188150000Y-70900000D03*
X188150000Y-77100000D03*
%TD*%
D30*
%TO.C,SW1*%
X194589000Y-138081000D03*
X188389000Y-138081000D03*
X194589000Y-134381000D03*
X188389000Y-134381000D03*
%TD*%
M02*
