%TF.GenerationSoftware,KiCad,Pcbnew,8.0.5*%
%TF.CreationDate,2025-01-18T12:13:08+01:00*%
%TF.ProjectId,Floppy voltmeter clock,466c6f70-7079-4207-966f-6c746d657465,1.0*%
%TF.SameCoordinates,Original*%
%TF.FileFunction,Soldermask,Top*%
%TF.FilePolarity,Negative*%
%FSLAX46Y46*%
G04 Gerber Fmt 4.6, Leading zero omitted, Abs format (unit mm)*
G04 Created by KiCad (PCBNEW 8.0.5) date 2025-01-18 12:13:08*
%MOMM*%
%LPD*%
G01*
G04 APERTURE LIST*
G04 Aperture macros list*
%AMRoundRect*
0 Rectangle with rounded corners*
0 $1 Rounding radius*
0 $2 $3 $4 $5 $6 $7 $8 $9 X,Y pos of 4 corners*
0 Add a 4 corners polygon primitive as box body*
4,1,4,$2,$3,$4,$5,$6,$7,$8,$9,$2,$3,0*
0 Add four circle primitives for the rounded corners*
1,1,$1+$1,$2,$3*
1,1,$1+$1,$4,$5*
1,1,$1+$1,$6,$7*
1,1,$1+$1,$8,$9*
0 Add four rect primitives between the rounded corners*
20,1,$1+$1,$2,$3,$4,$5,0*
20,1,$1+$1,$4,$5,$6,$7,0*
20,1,$1+$1,$6,$7,$8,$9,0*
20,1,$1+$1,$8,$9,$2,$3,0*%
G04 Aperture macros list end*
%ADD10RoundRect,0.250000X0.750000X-0.600000X0.750000X0.600000X-0.750000X0.600000X-0.750000X-0.600000X0*%
%ADD11O,2.000000X1.700000*%
%ADD12RoundRect,0.250000X0.350000X0.450000X-0.350000X0.450000X-0.350000X-0.450000X0.350000X-0.450000X0*%
%ADD13C,0.800000*%
%ADD14C,6.400000*%
%ADD15R,1.500000X1.200000*%
%ADD16R,1.500000X1.500000*%
%ADD17R,0.700000X1.200000*%
%ADD18R,0.800000X1.200000*%
%ADD19R,0.900000X1.200000*%
%ADD20RoundRect,0.250000X0.725000X-0.600000X0.725000X0.600000X-0.725000X0.600000X-0.725000X-0.600000X0*%
%ADD21O,1.950000X1.700000*%
%ADD22RoundRect,0.250000X-0.475000X0.337500X-0.475000X-0.337500X0.475000X-0.337500X0.475000X0.337500X0*%
%ADD23RoundRect,0.250000X-0.337500X-0.475000X0.337500X-0.475000X0.337500X0.475000X-0.337500X0.475000X0*%
%ADD24R,1.100000X1.800000*%
%ADD25RoundRect,0.100000X0.100000X-0.637500X0.100000X0.637500X-0.100000X0.637500X-0.100000X-0.637500X0*%
%ADD26RoundRect,0.150000X-0.150000X0.587500X-0.150000X-0.587500X0.150000X-0.587500X0.150000X0.587500X0*%
%ADD27C,0.500000*%
%ADD28RoundRect,0.250000X0.475000X-0.337500X0.475000X0.337500X-0.475000X0.337500X-0.475000X-0.337500X0*%
%ADD29RoundRect,0.250000X0.337500X0.475000X-0.337500X0.475000X-0.337500X-0.475000X0.337500X-0.475000X0*%
%ADD30RoundRect,0.150000X-0.875000X-0.150000X0.875000X-0.150000X0.875000X0.150000X-0.875000X0.150000X0*%
%ADD31RoundRect,0.250000X-0.450000X0.350000X-0.450000X-0.350000X0.450000X-0.350000X0.450000X0.350000X0*%
%ADD32R,2.600000X3.600000*%
%ADD33R,1.700000X1.700000*%
%ADD34O,1.700000X1.700000*%
%ADD35RoundRect,0.250000X0.450000X-0.350000X0.450000X0.350000X-0.450000X0.350000X-0.450000X-0.350000X0*%
%ADD36RoundRect,0.250000X0.450000X-0.325000X0.450000X0.325000X-0.450000X0.325000X-0.450000X-0.325000X0*%
%ADD37RoundRect,0.250000X-0.350000X-0.450000X0.350000X-0.450000X0.350000X0.450000X-0.350000X0.450000X0*%
%ADD38RoundRect,0.250000X-0.450000X0.325000X-0.450000X-0.325000X0.450000X-0.325000X0.450000X0.325000X0*%
%ADD39R,1.800000X1.100000*%
%ADD40RoundRect,0.250000X-0.725000X0.600000X-0.725000X-0.600000X0.725000X-0.600000X0.725000X0.600000X0*%
G04 APERTURE END LIST*
D10*
%TO.C,J5*%
X216000000Y-106500000D03*
D11*
X216000000Y-104000000D03*
%TD*%
D12*
%TO.C,R7*%
X210650000Y-108314000D03*
X208650000Y-108314000D03*
%TD*%
D13*
%TO.C,H3*%
X213600000Y-136000000D03*
X214302944Y-134302944D03*
X214302944Y-137697056D03*
X216000000Y-133600000D03*
D14*
X216000000Y-136000000D03*
D13*
X216000000Y-138400000D03*
X217697056Y-134302944D03*
X217697056Y-137697056D03*
X218400000Y-136000000D03*
%TD*%
D15*
%TO.C,J2*%
X199675000Y-134375000D03*
X210325000Y-134375000D03*
D16*
X199675000Y-137975000D03*
X210325000Y-137975000D03*
D17*
X204500000Y-134025000D03*
D18*
X206520000Y-134025000D03*
D19*
X207750000Y-134025000D03*
D17*
X205500000Y-134025000D03*
D18*
X203480000Y-134025000D03*
D19*
X202250000Y-134025000D03*
%TD*%
D20*
%TO.C,J3*%
X216000000Y-128500000D03*
D21*
X216000000Y-126000000D03*
X216000000Y-123500000D03*
%TD*%
D22*
%TO.C,C5*%
X186028000Y-134327500D03*
X186028000Y-136402500D03*
%TD*%
D23*
%TO.C,C1*%
X205229500Y-126756500D03*
X207304500Y-126756500D03*
%TD*%
D13*
%TO.C,H4*%
X178600000Y-136000000D03*
X179302944Y-134302944D03*
X179302944Y-137697056D03*
X181000000Y-133600000D03*
D14*
X181000000Y-136000000D03*
D13*
X181000000Y-138400000D03*
X182697056Y-134302944D03*
X182697056Y-137697056D03*
X183400000Y-136000000D03*
%TD*%
D24*
%TO.C,SW3*%
X205150000Y-77100000D03*
X205150000Y-70900000D03*
X208850000Y-77100000D03*
X208850000Y-70900000D03*
%TD*%
D25*
%TO.C,U1*%
X203717000Y-121089500D03*
X204367000Y-121089500D03*
X205017000Y-121089500D03*
X205667000Y-121089500D03*
X206317000Y-121089500D03*
X206967000Y-121089500D03*
X207617000Y-121089500D03*
X208267000Y-121089500D03*
X208917000Y-121089500D03*
X209567000Y-121089500D03*
X209567000Y-115364500D03*
X208917000Y-115364500D03*
X208267000Y-115364500D03*
X207617000Y-115364500D03*
X206967000Y-115364500D03*
X206317000Y-115364500D03*
X205667000Y-115364500D03*
X205017000Y-115364500D03*
X204367000Y-115364500D03*
X203717000Y-115364500D03*
%TD*%
D26*
%TO.C,U2*%
X199337000Y-124782500D03*
X197437000Y-124782500D03*
X198387000Y-126657500D03*
%TD*%
D27*
%TO.C,mouse-bite-3mm-slot*%
X205488000Y-80000000D03*
X205488000Y-83000000D03*
X206238000Y-83000000D03*
X206250000Y-80000000D03*
X207000000Y-80000000D03*
X207000000Y-83000000D03*
X207750000Y-80000000D03*
X207750000Y-83000000D03*
X208524000Y-80000000D03*
X208524000Y-83000000D03*
%TD*%
D13*
%TO.C,H2*%
X213600000Y-87000000D03*
X214302944Y-85302944D03*
X214302944Y-88697056D03*
X216000000Y-84600000D03*
D14*
X216000000Y-87000000D03*
D13*
X216000000Y-89400000D03*
X217697056Y-85302944D03*
X217697056Y-88697056D03*
X218400000Y-87000000D03*
%TD*%
D28*
%TO.C,C6*%
X201586000Y-126681500D03*
X201586000Y-124606500D03*
%TD*%
D29*
%TO.C,C3*%
X201719500Y-131301000D03*
X199644500Y-131301000D03*
%TD*%
D30*
%TO.C,U3*%
X187260000Y-112512000D03*
X187260000Y-113782000D03*
X187260000Y-115052000D03*
X187260000Y-116322000D03*
X187260000Y-117592000D03*
X187260000Y-118862000D03*
X187260000Y-120132000D03*
X187260000Y-121402000D03*
X196560000Y-121402000D03*
X196560000Y-120132000D03*
X196560000Y-118862000D03*
X196560000Y-117592000D03*
X196560000Y-116322000D03*
X196560000Y-115052000D03*
X196560000Y-113782000D03*
X196560000Y-112512000D03*
%TD*%
D31*
%TO.C,R5*%
X199276000Y-120402000D03*
X199276000Y-122402000D03*
%TD*%
D22*
%TO.C,C8*%
X184631000Y-113753500D03*
X184631000Y-115828500D03*
%TD*%
D10*
%TO.C,J6*%
X216000000Y-97000000D03*
D11*
X216000000Y-94500000D03*
%TD*%
D10*
%TO.C,J4*%
X216000000Y-116000000D03*
D11*
X216000000Y-113500000D03*
%TD*%
D22*
%TO.C,C7*%
X195363000Y-124802500D03*
X195363000Y-126877500D03*
%TD*%
D32*
%TO.C,BT1*%
X180943000Y-99177000D03*
X210243000Y-99177000D03*
%TD*%
D33*
%TO.C,J7*%
X199505000Y-109711000D03*
D34*
X202045000Y-109711000D03*
X204585000Y-109711000D03*
%TD*%
D35*
%TO.C,R2*%
X204570000Y-131412000D03*
X204570000Y-129412000D03*
%TD*%
D13*
%TO.C,H5*%
X178600000Y-74000000D03*
X179302944Y-72302944D03*
X179302944Y-75697056D03*
X181000000Y-71600000D03*
D14*
X181000000Y-74000000D03*
D13*
X181000000Y-76400000D03*
X182697056Y-72302944D03*
X182697056Y-75697056D03*
X183400000Y-74000000D03*
%TD*%
D23*
%TO.C,C2*%
X205229500Y-124364500D03*
X207304500Y-124364500D03*
%TD*%
D36*
%TO.C,D1*%
X193013000Y-126865000D03*
X193013000Y-124815000D03*
%TD*%
D37*
%TO.C,R3*%
X193029000Y-128888000D03*
X195029000Y-128888000D03*
%TD*%
D13*
%TO.C,H1*%
X178600000Y-87000000D03*
X179302944Y-85302944D03*
X179302944Y-88697056D03*
X181000000Y-84600000D03*
D14*
X181000000Y-87000000D03*
D13*
X181000000Y-89400000D03*
X182697056Y-85302944D03*
X182697056Y-88697056D03*
X183400000Y-87000000D03*
%TD*%
D35*
%TO.C,R6*%
X201435000Y-122402000D03*
X201435000Y-120402000D03*
%TD*%
D13*
%TO.C,H6*%
X213600000Y-74000000D03*
X214302944Y-72302944D03*
X214302944Y-75697056D03*
X216000000Y-71600000D03*
D14*
X216000000Y-74000000D03*
D13*
X216000000Y-76400000D03*
X217697056Y-72302944D03*
X217697056Y-75697056D03*
X218400000Y-74000000D03*
%TD*%
D27*
%TO.C,mouse-bite-3mm-slot*%
X188488000Y-80000000D03*
X188488000Y-83000000D03*
X189238000Y-83000000D03*
X189250000Y-80000000D03*
X190000000Y-80000000D03*
X190000000Y-83000000D03*
X190750000Y-80000000D03*
X190750000Y-83000000D03*
X191524000Y-80000000D03*
X191524000Y-83000000D03*
%TD*%
D31*
%TO.C,R1*%
X206729000Y-129412000D03*
X206729000Y-131412000D03*
%TD*%
D35*
%TO.C,R4*%
X207618000Y-112362000D03*
X207618000Y-110362000D03*
%TD*%
D38*
%TO.C,D2*%
X209904000Y-110337000D03*
X209904000Y-112387000D03*
%TD*%
D29*
%TO.C,C4*%
X201719500Y-129015000D03*
X199644500Y-129015000D03*
%TD*%
D24*
%TO.C,SW2*%
X191850000Y-70900000D03*
X191850000Y-77100000D03*
X188150000Y-70900000D03*
X188150000Y-77100000D03*
%TD*%
D39*
%TO.C,SW1*%
X194589000Y-138081000D03*
X188389000Y-138081000D03*
X194589000Y-134381000D03*
X188389000Y-134381000D03*
%TD*%
D40*
%TO.C,J1*%
X198525000Y-71500000D03*
D21*
X198525000Y-74000000D03*
X198525000Y-76500000D03*
%TD*%
M02*
