%TF.GenerationSoftware,KiCad,Pcbnew,8.0.5*%
%TF.CreationDate,2025-01-18T16:16:31+01:00*%
%TF.ProjectId,Floppy voltmeter clock,466c6f70-7079-4207-966f-6c746d657465,1.0*%
%TF.SameCoordinates,Original*%
%TF.FileFunction,Legend,Top*%
%TF.FilePolarity,Positive*%
%FSLAX46Y46*%
G04 Gerber Fmt 4.6, Leading zero omitted, Abs format (unit mm)*
G04 Created by KiCad (PCBNEW 8.0.5) date 2025-01-18 16:16:31*
%MOMM*%
%LPD*%
G01*
G04 APERTURE LIST*
G04 Aperture macros list*
%AMRoundRect*
0 Rectangle with rounded corners*
0 $1 Rounding radius*
0 $2 $3 $4 $5 $6 $7 $8 $9 X,Y pos of 4 corners*
0 Add a 4 corners polygon primitive as box body*
4,1,4,$2,$3,$4,$5,$6,$7,$8,$9,$2,$3,0*
0 Add four circle primitives for the rounded corners*
1,1,$1+$1,$2,$3*
1,1,$1+$1,$4,$5*
1,1,$1+$1,$6,$7*
1,1,$1+$1,$8,$9*
0 Add four rect primitives between the rounded corners*
20,1,$1+$1,$2,$3,$4,$5,0*
20,1,$1+$1,$4,$5,$6,$7,0*
20,1,$1+$1,$6,$7,$8,$9,0*
20,1,$1+$1,$8,$9,$2,$3,0*%
G04 Aperture macros list end*
%ADD10C,0.150000*%
%ADD11C,0.120000*%
%ADD12C,0.000000*%
%ADD13C,0.254000*%
%ADD14C,0.100000*%
%ADD15RoundRect,0.250000X0.750000X-0.600000X0.750000X0.600000X-0.750000X0.600000X-0.750000X-0.600000X0*%
%ADD16O,2.000000X1.700000*%
%ADD17RoundRect,0.250000X0.350000X0.450000X-0.350000X0.450000X-0.350000X-0.450000X0.350000X-0.450000X0*%
%ADD18C,0.800000*%
%ADD19C,6.400000*%
%ADD20R,1.500000X1.200000*%
%ADD21R,1.500000X1.500000*%
%ADD22R,0.700000X1.200000*%
%ADD23R,0.800000X1.200000*%
%ADD24R,0.900000X1.200000*%
%ADD25RoundRect,0.250000X0.725000X-0.600000X0.725000X0.600000X-0.725000X0.600000X-0.725000X-0.600000X0*%
%ADD26O,1.950000X1.700000*%
%ADD27RoundRect,0.250000X-0.475000X0.337500X-0.475000X-0.337500X0.475000X-0.337500X0.475000X0.337500X0*%
%ADD28RoundRect,0.250000X-0.337500X-0.475000X0.337500X-0.475000X0.337500X0.475000X-0.337500X0.475000X0*%
%ADD29R,1.100000X1.800000*%
%ADD30RoundRect,0.100000X0.100000X-0.637500X0.100000X0.637500X-0.100000X0.637500X-0.100000X-0.637500X0*%
%ADD31RoundRect,0.150000X-0.150000X0.587500X-0.150000X-0.587500X0.150000X-0.587500X0.150000X0.587500X0*%
%ADD32C,0.500000*%
%ADD33RoundRect,0.250000X0.475000X-0.337500X0.475000X0.337500X-0.475000X0.337500X-0.475000X-0.337500X0*%
%ADD34RoundRect,0.250000X0.337500X0.475000X-0.337500X0.475000X-0.337500X-0.475000X0.337500X-0.475000X0*%
%ADD35RoundRect,0.150000X-0.875000X-0.150000X0.875000X-0.150000X0.875000X0.150000X-0.875000X0.150000X0*%
%ADD36RoundRect,0.250000X-0.450000X0.350000X-0.450000X-0.350000X0.450000X-0.350000X0.450000X0.350000X0*%
%ADD37R,2.600000X3.600000*%
%ADD38R,1.700000X1.700000*%
%ADD39O,1.700000X1.700000*%
%ADD40RoundRect,0.250000X0.450000X-0.350000X0.450000X0.350000X-0.450000X0.350000X-0.450000X-0.350000X0*%
%ADD41RoundRect,0.250000X0.450000X-0.325000X0.450000X0.325000X-0.450000X0.325000X-0.450000X-0.325000X0*%
%ADD42RoundRect,0.250000X-0.350000X-0.450000X0.350000X-0.450000X0.350000X0.450000X-0.350000X0.450000X0*%
%ADD43RoundRect,0.250000X-0.450000X0.325000X-0.450000X-0.325000X0.450000X-0.325000X0.450000X0.325000X0*%
%ADD44R,1.800000X1.100000*%
%ADD45RoundRect,0.250000X-0.725000X0.600000X-0.725000X-0.600000X0.725000X-0.600000X0.725000X0.600000X0*%
G04 APERTURE END LIST*
D10*
X209483333Y-107244819D02*
X209150000Y-106768628D01*
X208911905Y-107244819D02*
X208911905Y-106244819D01*
X208911905Y-106244819D02*
X209292857Y-106244819D01*
X209292857Y-106244819D02*
X209388095Y-106292438D01*
X209388095Y-106292438D02*
X209435714Y-106340057D01*
X209435714Y-106340057D02*
X209483333Y-106435295D01*
X209483333Y-106435295D02*
X209483333Y-106578152D01*
X209483333Y-106578152D02*
X209435714Y-106673390D01*
X209435714Y-106673390D02*
X209388095Y-106721009D01*
X209388095Y-106721009D02*
X209292857Y-106768628D01*
X209292857Y-106768628D02*
X208911905Y-106768628D01*
X209816667Y-106244819D02*
X210483333Y-106244819D01*
X210483333Y-106244819D02*
X210054762Y-107244819D01*
X204617666Y-136470819D02*
X204617666Y-137185104D01*
X204617666Y-137185104D02*
X204570047Y-137327961D01*
X204570047Y-137327961D02*
X204474809Y-137423200D01*
X204474809Y-137423200D02*
X204331952Y-137470819D01*
X204331952Y-137470819D02*
X204236714Y-137470819D01*
X205046238Y-136566057D02*
X205093857Y-136518438D01*
X205093857Y-136518438D02*
X205189095Y-136470819D01*
X205189095Y-136470819D02*
X205427190Y-136470819D01*
X205427190Y-136470819D02*
X205522428Y-136518438D01*
X205522428Y-136518438D02*
X205570047Y-136566057D01*
X205570047Y-136566057D02*
X205617666Y-136661295D01*
X205617666Y-136661295D02*
X205617666Y-136756533D01*
X205617666Y-136756533D02*
X205570047Y-136899390D01*
X205570047Y-136899390D02*
X204998619Y-137470819D01*
X204998619Y-137470819D02*
X205617666Y-137470819D01*
X185861333Y-133184580D02*
X185813714Y-133232200D01*
X185813714Y-133232200D02*
X185670857Y-133279819D01*
X185670857Y-133279819D02*
X185575619Y-133279819D01*
X185575619Y-133279819D02*
X185432762Y-133232200D01*
X185432762Y-133232200D02*
X185337524Y-133136961D01*
X185337524Y-133136961D02*
X185289905Y-133041723D01*
X185289905Y-133041723D02*
X185242286Y-132851247D01*
X185242286Y-132851247D02*
X185242286Y-132708390D01*
X185242286Y-132708390D02*
X185289905Y-132517914D01*
X185289905Y-132517914D02*
X185337524Y-132422676D01*
X185337524Y-132422676D02*
X185432762Y-132327438D01*
X185432762Y-132327438D02*
X185575619Y-132279819D01*
X185575619Y-132279819D02*
X185670857Y-132279819D01*
X185670857Y-132279819D02*
X185813714Y-132327438D01*
X185813714Y-132327438D02*
X185861333Y-132375057D01*
X186766095Y-132279819D02*
X186289905Y-132279819D01*
X186289905Y-132279819D02*
X186242286Y-132756009D01*
X186242286Y-132756009D02*
X186289905Y-132708390D01*
X186289905Y-132708390D02*
X186385143Y-132660771D01*
X186385143Y-132660771D02*
X186623238Y-132660771D01*
X186623238Y-132660771D02*
X186718476Y-132708390D01*
X186718476Y-132708390D02*
X186766095Y-132756009D01*
X186766095Y-132756009D02*
X186813714Y-132851247D01*
X186813714Y-132851247D02*
X186813714Y-133089342D01*
X186813714Y-133089342D02*
X186766095Y-133184580D01*
X186766095Y-133184580D02*
X186718476Y-133232200D01*
X186718476Y-133232200D02*
X186623238Y-133279819D01*
X186623238Y-133279819D02*
X186385143Y-133279819D01*
X186385143Y-133279819D02*
X186289905Y-133232200D01*
X186289905Y-133232200D02*
X186242286Y-133184580D01*
X208975333Y-127215580D02*
X208927714Y-127263200D01*
X208927714Y-127263200D02*
X208784857Y-127310819D01*
X208784857Y-127310819D02*
X208689619Y-127310819D01*
X208689619Y-127310819D02*
X208546762Y-127263200D01*
X208546762Y-127263200D02*
X208451524Y-127167961D01*
X208451524Y-127167961D02*
X208403905Y-127072723D01*
X208403905Y-127072723D02*
X208356286Y-126882247D01*
X208356286Y-126882247D02*
X208356286Y-126739390D01*
X208356286Y-126739390D02*
X208403905Y-126548914D01*
X208403905Y-126548914D02*
X208451524Y-126453676D01*
X208451524Y-126453676D02*
X208546762Y-126358438D01*
X208546762Y-126358438D02*
X208689619Y-126310819D01*
X208689619Y-126310819D02*
X208784857Y-126310819D01*
X208784857Y-126310819D02*
X208927714Y-126358438D01*
X208927714Y-126358438D02*
X208975333Y-126406057D01*
X209927714Y-127310819D02*
X209356286Y-127310819D01*
X209642000Y-127310819D02*
X209642000Y-126310819D01*
X209642000Y-126310819D02*
X209546762Y-126453676D01*
X209546762Y-126453676D02*
X209451524Y-126548914D01*
X209451524Y-126548914D02*
X209356286Y-126596533D01*
X207517200Y-75333332D02*
X207564819Y-75190475D01*
X207564819Y-75190475D02*
X207564819Y-74952380D01*
X207564819Y-74952380D02*
X207517200Y-74857142D01*
X207517200Y-74857142D02*
X207469580Y-74809523D01*
X207469580Y-74809523D02*
X207374342Y-74761904D01*
X207374342Y-74761904D02*
X207279104Y-74761904D01*
X207279104Y-74761904D02*
X207183866Y-74809523D01*
X207183866Y-74809523D02*
X207136247Y-74857142D01*
X207136247Y-74857142D02*
X207088628Y-74952380D01*
X207088628Y-74952380D02*
X207041009Y-75142856D01*
X207041009Y-75142856D02*
X206993390Y-75238094D01*
X206993390Y-75238094D02*
X206945771Y-75285713D01*
X206945771Y-75285713D02*
X206850533Y-75333332D01*
X206850533Y-75333332D02*
X206755295Y-75333332D01*
X206755295Y-75333332D02*
X206660057Y-75285713D01*
X206660057Y-75285713D02*
X206612438Y-75238094D01*
X206612438Y-75238094D02*
X206564819Y-75142856D01*
X206564819Y-75142856D02*
X206564819Y-74904761D01*
X206564819Y-74904761D02*
X206612438Y-74761904D01*
X206564819Y-74428570D02*
X207564819Y-74190475D01*
X207564819Y-74190475D02*
X206850533Y-73999999D01*
X206850533Y-73999999D02*
X207564819Y-73809523D01*
X207564819Y-73809523D02*
X206564819Y-73571428D01*
X206564819Y-73285713D02*
X206564819Y-72666666D01*
X206564819Y-72666666D02*
X206945771Y-72999999D01*
X206945771Y-72999999D02*
X206945771Y-72857142D01*
X206945771Y-72857142D02*
X206993390Y-72761904D01*
X206993390Y-72761904D02*
X207041009Y-72714285D01*
X207041009Y-72714285D02*
X207136247Y-72666666D01*
X207136247Y-72666666D02*
X207374342Y-72666666D01*
X207374342Y-72666666D02*
X207469580Y-72714285D01*
X207469580Y-72714285D02*
X207517200Y-72761904D01*
X207517200Y-72761904D02*
X207564819Y-72857142D01*
X207564819Y-72857142D02*
X207564819Y-73142856D01*
X207564819Y-73142856D02*
X207517200Y-73238094D01*
X207517200Y-73238094D02*
X207469580Y-73285713D01*
X201395095Y-114753819D02*
X201395095Y-115563342D01*
X201395095Y-115563342D02*
X201442714Y-115658580D01*
X201442714Y-115658580D02*
X201490333Y-115706200D01*
X201490333Y-115706200D02*
X201585571Y-115753819D01*
X201585571Y-115753819D02*
X201776047Y-115753819D01*
X201776047Y-115753819D02*
X201871285Y-115706200D01*
X201871285Y-115706200D02*
X201918904Y-115658580D01*
X201918904Y-115658580D02*
X201966523Y-115563342D01*
X201966523Y-115563342D02*
X201966523Y-114753819D01*
X202966523Y-115753819D02*
X202395095Y-115753819D01*
X202680809Y-115753819D02*
X202680809Y-114753819D01*
X202680809Y-114753819D02*
X202585571Y-114896676D01*
X202585571Y-114896676D02*
X202490333Y-114991914D01*
X202490333Y-114991914D02*
X202395095Y-115039533D01*
X196696095Y-127834819D02*
X196696095Y-128644342D01*
X196696095Y-128644342D02*
X196743714Y-128739580D01*
X196743714Y-128739580D02*
X196791333Y-128787200D01*
X196791333Y-128787200D02*
X196886571Y-128834819D01*
X196886571Y-128834819D02*
X197077047Y-128834819D01*
X197077047Y-128834819D02*
X197172285Y-128787200D01*
X197172285Y-128787200D02*
X197219904Y-128739580D01*
X197219904Y-128739580D02*
X197267523Y-128644342D01*
X197267523Y-128644342D02*
X197267523Y-127834819D01*
X197696095Y-127930057D02*
X197743714Y-127882438D01*
X197743714Y-127882438D02*
X197838952Y-127834819D01*
X197838952Y-127834819D02*
X198077047Y-127834819D01*
X198077047Y-127834819D02*
X198172285Y-127882438D01*
X198172285Y-127882438D02*
X198219904Y-127930057D01*
X198219904Y-127930057D02*
X198267523Y-128025295D01*
X198267523Y-128025295D02*
X198267523Y-128120533D01*
X198267523Y-128120533D02*
X198219904Y-128263390D01*
X198219904Y-128263390D02*
X197648476Y-128834819D01*
X197648476Y-128834819D02*
X198267523Y-128834819D01*
X203260333Y-126003580D02*
X203212714Y-126051200D01*
X203212714Y-126051200D02*
X203069857Y-126098819D01*
X203069857Y-126098819D02*
X202974619Y-126098819D01*
X202974619Y-126098819D02*
X202831762Y-126051200D01*
X202831762Y-126051200D02*
X202736524Y-125955961D01*
X202736524Y-125955961D02*
X202688905Y-125860723D01*
X202688905Y-125860723D02*
X202641286Y-125670247D01*
X202641286Y-125670247D02*
X202641286Y-125527390D01*
X202641286Y-125527390D02*
X202688905Y-125336914D01*
X202688905Y-125336914D02*
X202736524Y-125241676D01*
X202736524Y-125241676D02*
X202831762Y-125146438D01*
X202831762Y-125146438D02*
X202974619Y-125098819D01*
X202974619Y-125098819D02*
X203069857Y-125098819D01*
X203069857Y-125098819D02*
X203212714Y-125146438D01*
X203212714Y-125146438D02*
X203260333Y-125194057D01*
X204117476Y-125098819D02*
X203927000Y-125098819D01*
X203927000Y-125098819D02*
X203831762Y-125146438D01*
X203831762Y-125146438D02*
X203784143Y-125194057D01*
X203784143Y-125194057D02*
X203688905Y-125336914D01*
X203688905Y-125336914D02*
X203641286Y-125527390D01*
X203641286Y-125527390D02*
X203641286Y-125908342D01*
X203641286Y-125908342D02*
X203688905Y-126003580D01*
X203688905Y-126003580D02*
X203736524Y-126051200D01*
X203736524Y-126051200D02*
X203831762Y-126098819D01*
X203831762Y-126098819D02*
X204022238Y-126098819D01*
X204022238Y-126098819D02*
X204117476Y-126051200D01*
X204117476Y-126051200D02*
X204165095Y-126003580D01*
X204165095Y-126003580D02*
X204212714Y-125908342D01*
X204212714Y-125908342D02*
X204212714Y-125670247D01*
X204212714Y-125670247D02*
X204165095Y-125575009D01*
X204165095Y-125575009D02*
X204117476Y-125527390D01*
X204117476Y-125527390D02*
X204022238Y-125479771D01*
X204022238Y-125479771D02*
X203831762Y-125479771D01*
X203831762Y-125479771D02*
X203736524Y-125527390D01*
X203736524Y-125527390D02*
X203688905Y-125575009D01*
X203688905Y-125575009D02*
X203641286Y-125670247D01*
X197672333Y-131660580D02*
X197624714Y-131708200D01*
X197624714Y-131708200D02*
X197481857Y-131755819D01*
X197481857Y-131755819D02*
X197386619Y-131755819D01*
X197386619Y-131755819D02*
X197243762Y-131708200D01*
X197243762Y-131708200D02*
X197148524Y-131612961D01*
X197148524Y-131612961D02*
X197100905Y-131517723D01*
X197100905Y-131517723D02*
X197053286Y-131327247D01*
X197053286Y-131327247D02*
X197053286Y-131184390D01*
X197053286Y-131184390D02*
X197100905Y-130993914D01*
X197100905Y-130993914D02*
X197148524Y-130898676D01*
X197148524Y-130898676D02*
X197243762Y-130803438D01*
X197243762Y-130803438D02*
X197386619Y-130755819D01*
X197386619Y-130755819D02*
X197481857Y-130755819D01*
X197481857Y-130755819D02*
X197624714Y-130803438D01*
X197624714Y-130803438D02*
X197672333Y-130851057D01*
X198005667Y-130755819D02*
X198624714Y-130755819D01*
X198624714Y-130755819D02*
X198291381Y-131136771D01*
X198291381Y-131136771D02*
X198434238Y-131136771D01*
X198434238Y-131136771D02*
X198529476Y-131184390D01*
X198529476Y-131184390D02*
X198577095Y-131232009D01*
X198577095Y-131232009D02*
X198624714Y-131327247D01*
X198624714Y-131327247D02*
X198624714Y-131565342D01*
X198624714Y-131565342D02*
X198577095Y-131660580D01*
X198577095Y-131660580D02*
X198529476Y-131708200D01*
X198529476Y-131708200D02*
X198434238Y-131755819D01*
X198434238Y-131755819D02*
X198148524Y-131755819D01*
X198148524Y-131755819D02*
X198053286Y-131708200D01*
X198053286Y-131708200D02*
X198005667Y-131660580D01*
X186409095Y-110054819D02*
X186409095Y-110864342D01*
X186409095Y-110864342D02*
X186456714Y-110959580D01*
X186456714Y-110959580D02*
X186504333Y-111007200D01*
X186504333Y-111007200D02*
X186599571Y-111054819D01*
X186599571Y-111054819D02*
X186790047Y-111054819D01*
X186790047Y-111054819D02*
X186885285Y-111007200D01*
X186885285Y-111007200D02*
X186932904Y-110959580D01*
X186932904Y-110959580D02*
X186980523Y-110864342D01*
X186980523Y-110864342D02*
X186980523Y-110054819D01*
X187361476Y-110054819D02*
X187980523Y-110054819D01*
X187980523Y-110054819D02*
X187647190Y-110435771D01*
X187647190Y-110435771D02*
X187790047Y-110435771D01*
X187790047Y-110435771D02*
X187885285Y-110483390D01*
X187885285Y-110483390D02*
X187932904Y-110531009D01*
X187932904Y-110531009D02*
X187980523Y-110626247D01*
X187980523Y-110626247D02*
X187980523Y-110864342D01*
X187980523Y-110864342D02*
X187932904Y-110959580D01*
X187932904Y-110959580D02*
X187885285Y-111007200D01*
X187885285Y-111007200D02*
X187790047Y-111054819D01*
X187790047Y-111054819D02*
X187504333Y-111054819D01*
X187504333Y-111054819D02*
X187409095Y-111007200D01*
X187409095Y-111007200D02*
X187361476Y-110959580D01*
X199069333Y-119309819D02*
X198736000Y-118833628D01*
X198497905Y-119309819D02*
X198497905Y-118309819D01*
X198497905Y-118309819D02*
X198878857Y-118309819D01*
X198878857Y-118309819D02*
X198974095Y-118357438D01*
X198974095Y-118357438D02*
X199021714Y-118405057D01*
X199021714Y-118405057D02*
X199069333Y-118500295D01*
X199069333Y-118500295D02*
X199069333Y-118643152D01*
X199069333Y-118643152D02*
X199021714Y-118738390D01*
X199021714Y-118738390D02*
X198974095Y-118786009D01*
X198974095Y-118786009D02*
X198878857Y-118833628D01*
X198878857Y-118833628D02*
X198497905Y-118833628D01*
X199974095Y-118309819D02*
X199497905Y-118309819D01*
X199497905Y-118309819D02*
X199450286Y-118786009D01*
X199450286Y-118786009D02*
X199497905Y-118738390D01*
X199497905Y-118738390D02*
X199593143Y-118690771D01*
X199593143Y-118690771D02*
X199831238Y-118690771D01*
X199831238Y-118690771D02*
X199926476Y-118738390D01*
X199926476Y-118738390D02*
X199974095Y-118786009D01*
X199974095Y-118786009D02*
X200021714Y-118881247D01*
X200021714Y-118881247D02*
X200021714Y-119119342D01*
X200021714Y-119119342D02*
X199974095Y-119214580D01*
X199974095Y-119214580D02*
X199926476Y-119262200D01*
X199926476Y-119262200D02*
X199831238Y-119309819D01*
X199831238Y-119309819D02*
X199593143Y-119309819D01*
X199593143Y-119309819D02*
X199497905Y-119262200D01*
X199497905Y-119262200D02*
X199450286Y-119214580D01*
X184464333Y-112610580D02*
X184416714Y-112658200D01*
X184416714Y-112658200D02*
X184273857Y-112705819D01*
X184273857Y-112705819D02*
X184178619Y-112705819D01*
X184178619Y-112705819D02*
X184035762Y-112658200D01*
X184035762Y-112658200D02*
X183940524Y-112562961D01*
X183940524Y-112562961D02*
X183892905Y-112467723D01*
X183892905Y-112467723D02*
X183845286Y-112277247D01*
X183845286Y-112277247D02*
X183845286Y-112134390D01*
X183845286Y-112134390D02*
X183892905Y-111943914D01*
X183892905Y-111943914D02*
X183940524Y-111848676D01*
X183940524Y-111848676D02*
X184035762Y-111753438D01*
X184035762Y-111753438D02*
X184178619Y-111705819D01*
X184178619Y-111705819D02*
X184273857Y-111705819D01*
X184273857Y-111705819D02*
X184416714Y-111753438D01*
X184416714Y-111753438D02*
X184464333Y-111801057D01*
X185035762Y-112134390D02*
X184940524Y-112086771D01*
X184940524Y-112086771D02*
X184892905Y-112039152D01*
X184892905Y-112039152D02*
X184845286Y-111943914D01*
X184845286Y-111943914D02*
X184845286Y-111896295D01*
X184845286Y-111896295D02*
X184892905Y-111801057D01*
X184892905Y-111801057D02*
X184940524Y-111753438D01*
X184940524Y-111753438D02*
X185035762Y-111705819D01*
X185035762Y-111705819D02*
X185226238Y-111705819D01*
X185226238Y-111705819D02*
X185321476Y-111753438D01*
X185321476Y-111753438D02*
X185369095Y-111801057D01*
X185369095Y-111801057D02*
X185416714Y-111896295D01*
X185416714Y-111896295D02*
X185416714Y-111943914D01*
X185416714Y-111943914D02*
X185369095Y-112039152D01*
X185369095Y-112039152D02*
X185321476Y-112086771D01*
X185321476Y-112086771D02*
X185226238Y-112134390D01*
X185226238Y-112134390D02*
X185035762Y-112134390D01*
X185035762Y-112134390D02*
X184940524Y-112182009D01*
X184940524Y-112182009D02*
X184892905Y-112229628D01*
X184892905Y-112229628D02*
X184845286Y-112324866D01*
X184845286Y-112324866D02*
X184845286Y-112515342D01*
X184845286Y-112515342D02*
X184892905Y-112610580D01*
X184892905Y-112610580D02*
X184940524Y-112658200D01*
X184940524Y-112658200D02*
X185035762Y-112705819D01*
X185035762Y-112705819D02*
X185226238Y-112705819D01*
X185226238Y-112705819D02*
X185321476Y-112658200D01*
X185321476Y-112658200D02*
X185369095Y-112610580D01*
X185369095Y-112610580D02*
X185416714Y-112515342D01*
X185416714Y-112515342D02*
X185416714Y-112324866D01*
X185416714Y-112324866D02*
X185369095Y-112229628D01*
X185369095Y-112229628D02*
X185321476Y-112182009D01*
X185321476Y-112182009D02*
X185226238Y-112134390D01*
X195132333Y-123659580D02*
X195084714Y-123707200D01*
X195084714Y-123707200D02*
X194941857Y-123754819D01*
X194941857Y-123754819D02*
X194846619Y-123754819D01*
X194846619Y-123754819D02*
X194703762Y-123707200D01*
X194703762Y-123707200D02*
X194608524Y-123611961D01*
X194608524Y-123611961D02*
X194560905Y-123516723D01*
X194560905Y-123516723D02*
X194513286Y-123326247D01*
X194513286Y-123326247D02*
X194513286Y-123183390D01*
X194513286Y-123183390D02*
X194560905Y-122992914D01*
X194560905Y-122992914D02*
X194608524Y-122897676D01*
X194608524Y-122897676D02*
X194703762Y-122802438D01*
X194703762Y-122802438D02*
X194846619Y-122754819D01*
X194846619Y-122754819D02*
X194941857Y-122754819D01*
X194941857Y-122754819D02*
X195084714Y-122802438D01*
X195084714Y-122802438D02*
X195132333Y-122850057D01*
X195465667Y-122754819D02*
X196132333Y-122754819D01*
X196132333Y-122754819D02*
X195703762Y-123754819D01*
X181214285Y-93931009D02*
X181357142Y-93978628D01*
X181357142Y-93978628D02*
X181404761Y-94026247D01*
X181404761Y-94026247D02*
X181452380Y-94121485D01*
X181452380Y-94121485D02*
X181452380Y-94264342D01*
X181452380Y-94264342D02*
X181404761Y-94359580D01*
X181404761Y-94359580D02*
X181357142Y-94407200D01*
X181357142Y-94407200D02*
X181261904Y-94454819D01*
X181261904Y-94454819D02*
X180880952Y-94454819D01*
X180880952Y-94454819D02*
X180880952Y-93454819D01*
X180880952Y-93454819D02*
X181214285Y-93454819D01*
X181214285Y-93454819D02*
X181309523Y-93502438D01*
X181309523Y-93502438D02*
X181357142Y-93550057D01*
X181357142Y-93550057D02*
X181404761Y-93645295D01*
X181404761Y-93645295D02*
X181404761Y-93740533D01*
X181404761Y-93740533D02*
X181357142Y-93835771D01*
X181357142Y-93835771D02*
X181309523Y-93883390D01*
X181309523Y-93883390D02*
X181214285Y-93931009D01*
X181214285Y-93931009D02*
X180880952Y-93931009D01*
X181738095Y-93454819D02*
X182309523Y-93454819D01*
X182023809Y-94454819D02*
X182023809Y-93454819D01*
X183166666Y-94454819D02*
X182595238Y-94454819D01*
X182880952Y-94454819D02*
X182880952Y-93454819D01*
X182880952Y-93454819D02*
X182785714Y-93597676D01*
X182785714Y-93597676D02*
X182690476Y-93692914D01*
X182690476Y-93692914D02*
X182595238Y-93740533D01*
X203260333Y-128580819D02*
X202927000Y-128104628D01*
X202688905Y-128580819D02*
X202688905Y-127580819D01*
X202688905Y-127580819D02*
X203069857Y-127580819D01*
X203069857Y-127580819D02*
X203165095Y-127628438D01*
X203165095Y-127628438D02*
X203212714Y-127676057D01*
X203212714Y-127676057D02*
X203260333Y-127771295D01*
X203260333Y-127771295D02*
X203260333Y-127914152D01*
X203260333Y-127914152D02*
X203212714Y-128009390D01*
X203212714Y-128009390D02*
X203165095Y-128057009D01*
X203165095Y-128057009D02*
X203069857Y-128104628D01*
X203069857Y-128104628D02*
X202688905Y-128104628D01*
X203641286Y-127676057D02*
X203688905Y-127628438D01*
X203688905Y-127628438D02*
X203784143Y-127580819D01*
X203784143Y-127580819D02*
X204022238Y-127580819D01*
X204022238Y-127580819D02*
X204117476Y-127628438D01*
X204117476Y-127628438D02*
X204165095Y-127676057D01*
X204165095Y-127676057D02*
X204212714Y-127771295D01*
X204212714Y-127771295D02*
X204212714Y-127866533D01*
X204212714Y-127866533D02*
X204165095Y-128009390D01*
X204165095Y-128009390D02*
X203593667Y-128580819D01*
X203593667Y-128580819D02*
X204212714Y-128580819D01*
X208975333Y-124802580D02*
X208927714Y-124850200D01*
X208927714Y-124850200D02*
X208784857Y-124897819D01*
X208784857Y-124897819D02*
X208689619Y-124897819D01*
X208689619Y-124897819D02*
X208546762Y-124850200D01*
X208546762Y-124850200D02*
X208451524Y-124754961D01*
X208451524Y-124754961D02*
X208403905Y-124659723D01*
X208403905Y-124659723D02*
X208356286Y-124469247D01*
X208356286Y-124469247D02*
X208356286Y-124326390D01*
X208356286Y-124326390D02*
X208403905Y-124135914D01*
X208403905Y-124135914D02*
X208451524Y-124040676D01*
X208451524Y-124040676D02*
X208546762Y-123945438D01*
X208546762Y-123945438D02*
X208689619Y-123897819D01*
X208689619Y-123897819D02*
X208784857Y-123897819D01*
X208784857Y-123897819D02*
X208927714Y-123945438D01*
X208927714Y-123945438D02*
X208975333Y-123993057D01*
X209356286Y-123993057D02*
X209403905Y-123945438D01*
X209403905Y-123945438D02*
X209499143Y-123897819D01*
X209499143Y-123897819D02*
X209737238Y-123897819D01*
X209737238Y-123897819D02*
X209832476Y-123945438D01*
X209832476Y-123945438D02*
X209880095Y-123993057D01*
X209880095Y-123993057D02*
X209927714Y-124088295D01*
X209927714Y-124088295D02*
X209927714Y-124183533D01*
X209927714Y-124183533D02*
X209880095Y-124326390D01*
X209880095Y-124326390D02*
X209308667Y-124897819D01*
X209308667Y-124897819D02*
X209927714Y-124897819D01*
X190242905Y-127691819D02*
X190242905Y-126691819D01*
X190242905Y-126691819D02*
X190481000Y-126691819D01*
X190481000Y-126691819D02*
X190623857Y-126739438D01*
X190623857Y-126739438D02*
X190719095Y-126834676D01*
X190719095Y-126834676D02*
X190766714Y-126929914D01*
X190766714Y-126929914D02*
X190814333Y-127120390D01*
X190814333Y-127120390D02*
X190814333Y-127263247D01*
X190814333Y-127263247D02*
X190766714Y-127453723D01*
X190766714Y-127453723D02*
X190719095Y-127548961D01*
X190719095Y-127548961D02*
X190623857Y-127644200D01*
X190623857Y-127644200D02*
X190481000Y-127691819D01*
X190481000Y-127691819D02*
X190242905Y-127691819D01*
X191766714Y-127691819D02*
X191195286Y-127691819D01*
X191481000Y-127691819D02*
X191481000Y-126691819D01*
X191481000Y-126691819D02*
X191385762Y-126834676D01*
X191385762Y-126834676D02*
X191290524Y-126929914D01*
X191290524Y-126929914D02*
X191195286Y-126977533D01*
X193862333Y-130993819D02*
X193529000Y-130517628D01*
X193290905Y-130993819D02*
X193290905Y-129993819D01*
X193290905Y-129993819D02*
X193671857Y-129993819D01*
X193671857Y-129993819D02*
X193767095Y-130041438D01*
X193767095Y-130041438D02*
X193814714Y-130089057D01*
X193814714Y-130089057D02*
X193862333Y-130184295D01*
X193862333Y-130184295D02*
X193862333Y-130327152D01*
X193862333Y-130327152D02*
X193814714Y-130422390D01*
X193814714Y-130422390D02*
X193767095Y-130470009D01*
X193767095Y-130470009D02*
X193671857Y-130517628D01*
X193671857Y-130517628D02*
X193290905Y-130517628D01*
X194195667Y-129993819D02*
X194814714Y-129993819D01*
X194814714Y-129993819D02*
X194481381Y-130374771D01*
X194481381Y-130374771D02*
X194624238Y-130374771D01*
X194624238Y-130374771D02*
X194719476Y-130422390D01*
X194719476Y-130422390D02*
X194767095Y-130470009D01*
X194767095Y-130470009D02*
X194814714Y-130565247D01*
X194814714Y-130565247D02*
X194814714Y-130803342D01*
X194814714Y-130803342D02*
X194767095Y-130898580D01*
X194767095Y-130898580D02*
X194719476Y-130946200D01*
X194719476Y-130946200D02*
X194624238Y-130993819D01*
X194624238Y-130993819D02*
X194338524Y-130993819D01*
X194338524Y-130993819D02*
X194243286Y-130946200D01*
X194243286Y-130946200D02*
X194195667Y-130898580D01*
X201228333Y-119309819D02*
X200895000Y-118833628D01*
X200656905Y-119309819D02*
X200656905Y-118309819D01*
X200656905Y-118309819D02*
X201037857Y-118309819D01*
X201037857Y-118309819D02*
X201133095Y-118357438D01*
X201133095Y-118357438D02*
X201180714Y-118405057D01*
X201180714Y-118405057D02*
X201228333Y-118500295D01*
X201228333Y-118500295D02*
X201228333Y-118643152D01*
X201228333Y-118643152D02*
X201180714Y-118738390D01*
X201180714Y-118738390D02*
X201133095Y-118786009D01*
X201133095Y-118786009D02*
X201037857Y-118833628D01*
X201037857Y-118833628D02*
X200656905Y-118833628D01*
X202085476Y-118309819D02*
X201895000Y-118309819D01*
X201895000Y-118309819D02*
X201799762Y-118357438D01*
X201799762Y-118357438D02*
X201752143Y-118405057D01*
X201752143Y-118405057D02*
X201656905Y-118547914D01*
X201656905Y-118547914D02*
X201609286Y-118738390D01*
X201609286Y-118738390D02*
X201609286Y-119119342D01*
X201609286Y-119119342D02*
X201656905Y-119214580D01*
X201656905Y-119214580D02*
X201704524Y-119262200D01*
X201704524Y-119262200D02*
X201799762Y-119309819D01*
X201799762Y-119309819D02*
X201990238Y-119309819D01*
X201990238Y-119309819D02*
X202085476Y-119262200D01*
X202085476Y-119262200D02*
X202133095Y-119214580D01*
X202133095Y-119214580D02*
X202180714Y-119119342D01*
X202180714Y-119119342D02*
X202180714Y-118881247D01*
X202180714Y-118881247D02*
X202133095Y-118786009D01*
X202133095Y-118786009D02*
X202085476Y-118738390D01*
X202085476Y-118738390D02*
X201990238Y-118690771D01*
X201990238Y-118690771D02*
X201799762Y-118690771D01*
X201799762Y-118690771D02*
X201704524Y-118738390D01*
X201704524Y-118738390D02*
X201656905Y-118786009D01*
X201656905Y-118786009D02*
X201609286Y-118881247D01*
X208467333Y-130866819D02*
X208134000Y-130390628D01*
X207895905Y-130866819D02*
X207895905Y-129866819D01*
X207895905Y-129866819D02*
X208276857Y-129866819D01*
X208276857Y-129866819D02*
X208372095Y-129914438D01*
X208372095Y-129914438D02*
X208419714Y-129962057D01*
X208419714Y-129962057D02*
X208467333Y-130057295D01*
X208467333Y-130057295D02*
X208467333Y-130200152D01*
X208467333Y-130200152D02*
X208419714Y-130295390D01*
X208419714Y-130295390D02*
X208372095Y-130343009D01*
X208372095Y-130343009D02*
X208276857Y-130390628D01*
X208276857Y-130390628D02*
X207895905Y-130390628D01*
X209419714Y-130866819D02*
X208848286Y-130866819D01*
X209134000Y-130866819D02*
X209134000Y-129866819D01*
X209134000Y-129866819D02*
X209038762Y-130009676D01*
X209038762Y-130009676D02*
X208943524Y-130104914D01*
X208943524Y-130104914D02*
X208848286Y-130152533D01*
X206816333Y-109276819D02*
X206483000Y-108800628D01*
X206244905Y-109276819D02*
X206244905Y-108276819D01*
X206244905Y-108276819D02*
X206625857Y-108276819D01*
X206625857Y-108276819D02*
X206721095Y-108324438D01*
X206721095Y-108324438D02*
X206768714Y-108372057D01*
X206768714Y-108372057D02*
X206816333Y-108467295D01*
X206816333Y-108467295D02*
X206816333Y-108610152D01*
X206816333Y-108610152D02*
X206768714Y-108705390D01*
X206768714Y-108705390D02*
X206721095Y-108753009D01*
X206721095Y-108753009D02*
X206625857Y-108800628D01*
X206625857Y-108800628D02*
X206244905Y-108800628D01*
X207673476Y-108610152D02*
X207673476Y-109276819D01*
X207435381Y-108229200D02*
X207197286Y-108943485D01*
X207197286Y-108943485D02*
X207816333Y-108943485D01*
X211070905Y-110419819D02*
X211070905Y-109419819D01*
X211070905Y-109419819D02*
X211309000Y-109419819D01*
X211309000Y-109419819D02*
X211451857Y-109467438D01*
X211451857Y-109467438D02*
X211547095Y-109562676D01*
X211547095Y-109562676D02*
X211594714Y-109657914D01*
X211594714Y-109657914D02*
X211642333Y-109848390D01*
X211642333Y-109848390D02*
X211642333Y-109991247D01*
X211642333Y-109991247D02*
X211594714Y-110181723D01*
X211594714Y-110181723D02*
X211547095Y-110276961D01*
X211547095Y-110276961D02*
X211451857Y-110372200D01*
X211451857Y-110372200D02*
X211309000Y-110419819D01*
X211309000Y-110419819D02*
X211070905Y-110419819D01*
X212023286Y-109515057D02*
X212070905Y-109467438D01*
X212070905Y-109467438D02*
X212166143Y-109419819D01*
X212166143Y-109419819D02*
X212404238Y-109419819D01*
X212404238Y-109419819D02*
X212499476Y-109467438D01*
X212499476Y-109467438D02*
X212547095Y-109515057D01*
X212547095Y-109515057D02*
X212594714Y-109610295D01*
X212594714Y-109610295D02*
X212594714Y-109705533D01*
X212594714Y-109705533D02*
X212547095Y-109848390D01*
X212547095Y-109848390D02*
X211975667Y-110419819D01*
X211975667Y-110419819D02*
X212594714Y-110419819D01*
X197672333Y-130136580D02*
X197624714Y-130184200D01*
X197624714Y-130184200D02*
X197481857Y-130231819D01*
X197481857Y-130231819D02*
X197386619Y-130231819D01*
X197386619Y-130231819D02*
X197243762Y-130184200D01*
X197243762Y-130184200D02*
X197148524Y-130088961D01*
X197148524Y-130088961D02*
X197100905Y-129993723D01*
X197100905Y-129993723D02*
X197053286Y-129803247D01*
X197053286Y-129803247D02*
X197053286Y-129660390D01*
X197053286Y-129660390D02*
X197100905Y-129469914D01*
X197100905Y-129469914D02*
X197148524Y-129374676D01*
X197148524Y-129374676D02*
X197243762Y-129279438D01*
X197243762Y-129279438D02*
X197386619Y-129231819D01*
X197386619Y-129231819D02*
X197481857Y-129231819D01*
X197481857Y-129231819D02*
X197624714Y-129279438D01*
X197624714Y-129279438D02*
X197672333Y-129327057D01*
X198529476Y-129565152D02*
X198529476Y-130231819D01*
X198291381Y-129184200D02*
X198053286Y-129898485D01*
X198053286Y-129898485D02*
X198672333Y-129898485D01*
X190499200Y-75333332D02*
X190546819Y-75190475D01*
X190546819Y-75190475D02*
X190546819Y-74952380D01*
X190546819Y-74952380D02*
X190499200Y-74857142D01*
X190499200Y-74857142D02*
X190451580Y-74809523D01*
X190451580Y-74809523D02*
X190356342Y-74761904D01*
X190356342Y-74761904D02*
X190261104Y-74761904D01*
X190261104Y-74761904D02*
X190165866Y-74809523D01*
X190165866Y-74809523D02*
X190118247Y-74857142D01*
X190118247Y-74857142D02*
X190070628Y-74952380D01*
X190070628Y-74952380D02*
X190023009Y-75142856D01*
X190023009Y-75142856D02*
X189975390Y-75238094D01*
X189975390Y-75238094D02*
X189927771Y-75285713D01*
X189927771Y-75285713D02*
X189832533Y-75333332D01*
X189832533Y-75333332D02*
X189737295Y-75333332D01*
X189737295Y-75333332D02*
X189642057Y-75285713D01*
X189642057Y-75285713D02*
X189594438Y-75238094D01*
X189594438Y-75238094D02*
X189546819Y-75142856D01*
X189546819Y-75142856D02*
X189546819Y-74904761D01*
X189546819Y-74904761D02*
X189594438Y-74761904D01*
X189546819Y-74428570D02*
X190546819Y-74190475D01*
X190546819Y-74190475D02*
X189832533Y-73999999D01*
X189832533Y-73999999D02*
X190546819Y-73809523D01*
X190546819Y-73809523D02*
X189546819Y-73571428D01*
X189642057Y-73238094D02*
X189594438Y-73190475D01*
X189594438Y-73190475D02*
X189546819Y-73095237D01*
X189546819Y-73095237D02*
X189546819Y-72857142D01*
X189546819Y-72857142D02*
X189594438Y-72761904D01*
X189594438Y-72761904D02*
X189642057Y-72714285D01*
X189642057Y-72714285D02*
X189737295Y-72666666D01*
X189737295Y-72666666D02*
X189832533Y-72666666D01*
X189832533Y-72666666D02*
X189975390Y-72714285D01*
X189975390Y-72714285D02*
X190546819Y-73285713D01*
X190546819Y-73285713D02*
X190546819Y-72666666D01*
X190160667Y-136661200D02*
X190303524Y-136708819D01*
X190303524Y-136708819D02*
X190541619Y-136708819D01*
X190541619Y-136708819D02*
X190636857Y-136661200D01*
X190636857Y-136661200D02*
X190684476Y-136613580D01*
X190684476Y-136613580D02*
X190732095Y-136518342D01*
X190732095Y-136518342D02*
X190732095Y-136423104D01*
X190732095Y-136423104D02*
X190684476Y-136327866D01*
X190684476Y-136327866D02*
X190636857Y-136280247D01*
X190636857Y-136280247D02*
X190541619Y-136232628D01*
X190541619Y-136232628D02*
X190351143Y-136185009D01*
X190351143Y-136185009D02*
X190255905Y-136137390D01*
X190255905Y-136137390D02*
X190208286Y-136089771D01*
X190208286Y-136089771D02*
X190160667Y-135994533D01*
X190160667Y-135994533D02*
X190160667Y-135899295D01*
X190160667Y-135899295D02*
X190208286Y-135804057D01*
X190208286Y-135804057D02*
X190255905Y-135756438D01*
X190255905Y-135756438D02*
X190351143Y-135708819D01*
X190351143Y-135708819D02*
X190589238Y-135708819D01*
X190589238Y-135708819D02*
X190732095Y-135756438D01*
X191065429Y-135708819D02*
X191303524Y-136708819D01*
X191303524Y-136708819D02*
X191494000Y-135994533D01*
X191494000Y-135994533D02*
X191684476Y-136708819D01*
X191684476Y-136708819D02*
X191922572Y-135708819D01*
X192827333Y-136708819D02*
X192255905Y-136708819D01*
X192541619Y-136708819D02*
X192541619Y-135708819D01*
X192541619Y-135708819D02*
X192446381Y-135851676D01*
X192446381Y-135851676D02*
X192351143Y-135946914D01*
X192351143Y-135946914D02*
X192255905Y-135994533D01*
D11*
%TO.C,J5*%
X213250000Y-108100000D02*
X213250000Y-109350000D01*
X213250000Y-109350000D02*
X214500000Y-109350000D01*
X213540000Y-101440000D02*
X213540000Y-109060000D01*
X213540000Y-109060000D02*
X219510000Y-109060000D01*
X213550000Y-101450000D02*
X213550000Y-103250000D01*
X213550000Y-103250000D02*
X214300000Y-103250000D01*
X213550000Y-104750000D02*
X213550000Y-105750000D01*
X213550000Y-105750000D02*
X214300000Y-105750000D01*
X213550000Y-107250000D02*
X213550000Y-109050000D01*
X213550000Y-109050000D02*
X214300000Y-109050000D01*
X214300000Y-101450000D02*
X213550000Y-101450000D01*
X214300000Y-103250000D02*
X214300000Y-101450000D01*
X214300000Y-104750000D02*
X213550000Y-104750000D01*
X214300000Y-105750000D02*
X214300000Y-104750000D01*
X214300000Y-107250000D02*
X213550000Y-107250000D01*
X214300000Y-109050000D02*
X214300000Y-107250000D01*
X215800000Y-101450000D02*
X215800000Y-102200000D01*
X215800000Y-102200000D02*
X218750000Y-102200000D01*
X215800000Y-108300000D02*
X218750000Y-108300000D01*
X215800000Y-109050000D02*
X215800000Y-108300000D01*
X218750000Y-102200000D02*
X218750000Y-105250000D01*
X218750000Y-108300000D02*
X218750000Y-105250000D01*
X219510000Y-101440000D02*
X213540000Y-101440000D01*
X219510000Y-109060000D02*
X219510000Y-101440000D01*
%TO.C,R7*%
X209877064Y-107579000D02*
X209422936Y-107579000D01*
X209877064Y-109049000D02*
X209422936Y-109049000D01*
D12*
%TO.C,kibuzzard-675B2EC4*%
G36*
X179457989Y-116069209D02*
G01*
X179553593Y-116136242D01*
X179632165Y-116188989D01*
X179733813Y-116254923D01*
X179238209Y-116231846D01*
X179238209Y-115909868D01*
X179457989Y-116069209D01*
G37*
G36*
X179321725Y-113058769D02*
G01*
X179438209Y-113073604D01*
X179533538Y-113095582D01*
X179617330Y-113126352D01*
X179719527Y-113204374D01*
X179750297Y-113296681D01*
X179727495Y-113375527D01*
X179659088Y-113436242D01*
X179543978Y-113474978D01*
X179381066Y-113487890D01*
X179203593Y-113475802D01*
X179036011Y-113437341D01*
X178912934Y-113376352D01*
X178855791Y-113310418D01*
X178841505Y-113246132D01*
X178883264Y-113142286D01*
X179001396Y-113075802D01*
X179087797Y-113059319D01*
X179194253Y-113053824D01*
X179321725Y-113058769D01*
G37*
G36*
X180450663Y-107335143D02*
G01*
X180450663Y-107897780D01*
X180450663Y-116858220D01*
X180450663Y-117420857D01*
X180450663Y-118189966D01*
X179297000Y-117420857D01*
X178143337Y-118189966D01*
X178143337Y-117420857D01*
X178143337Y-116858220D01*
X178143337Y-116140637D01*
X178547000Y-116140637D01*
X178548648Y-116265912D01*
X178549198Y-116380198D01*
X178548648Y-116494758D01*
X178547000Y-116605473D01*
X178712079Y-116606449D01*
X178839552Y-116609380D01*
X178929418Y-116614264D01*
X178930516Y-116659319D01*
X178929418Y-116772231D01*
X178926121Y-116853824D01*
X178977769Y-116853824D01*
X179120352Y-116854923D01*
X179255791Y-116858220D01*
X179253044Y-116815363D01*
X179252495Y-116750527D01*
X179254692Y-116626352D01*
X179396038Y-116629786D01*
X179591505Y-116637890D01*
X179741017Y-116645766D01*
X179892849Y-116655473D01*
X180047000Y-116667011D01*
X180045352Y-116534593D01*
X180044802Y-116405473D01*
X180045352Y-116261791D01*
X180047000Y-116101077D01*
X179906768Y-116010906D01*
X179768856Y-115917683D01*
X179633264Y-115821407D01*
X179506219Y-115727451D01*
X179393947Y-115641187D01*
X179296451Y-115562615D01*
X179236011Y-115561516D01*
X179027220Y-115552725D01*
X178955791Y-115549429D01*
X178921725Y-115546132D01*
X178928319Y-115959319D01*
X178928319Y-116049429D01*
X178929418Y-116169209D01*
X178754692Y-116158220D01*
X178647824Y-116149978D01*
X178547000Y-116140637D01*
X178143337Y-116140637D01*
X178143337Y-115263714D01*
X178547000Y-115263714D01*
X178652495Y-115271269D01*
X178740407Y-115278549D01*
X178872275Y-115288989D01*
X178862385Y-115167011D01*
X178857989Y-114990637D01*
X178855791Y-114820857D01*
X178856890Y-114699978D01*
X178950419Y-114801810D01*
X179037598Y-114893385D01*
X179118429Y-114974703D01*
X179239582Y-115087341D01*
X179356890Y-115185692D01*
X179434363Y-115242286D01*
X179512934Y-115288989D01*
X179623923Y-115334044D01*
X179723923Y-115346132D01*
X179867330Y-115304374D01*
X179983813Y-115179099D01*
X180026533Y-115090088D01*
X180054692Y-114990088D01*
X180070352Y-114882121D01*
X180075571Y-114769209D01*
X180070199Y-114596681D01*
X180054082Y-114416095D01*
X180027220Y-114227451D01*
X179845901Y-114198879D01*
X179688758Y-114170308D01*
X179720077Y-114302038D01*
X179739308Y-114402725D01*
X179752495Y-114564813D01*
X179742604Y-114664813D01*
X179716231Y-114739538D01*
X179676121Y-114784593D01*
X179620626Y-114798879D01*
X179573374Y-114790088D01*
X179490956Y-114740637D01*
X179403319Y-114668110D01*
X179307440Y-114580198D01*
X179221969Y-114496437D01*
X179132592Y-114404862D01*
X179039308Y-114305473D01*
X178950022Y-114205198D01*
X178857989Y-114095582D01*
X178683813Y-114088440D01*
X178547000Y-114081297D01*
X178547962Y-114212959D01*
X178548648Y-114358495D01*
X178549060Y-114517904D01*
X178549198Y-114691187D01*
X178549060Y-114839058D01*
X178548648Y-114983769D01*
X178547962Y-115125321D01*
X178547000Y-115263714D01*
X178143337Y-115263714D01*
X178143337Y-114081297D01*
X178143337Y-113228549D01*
X178518429Y-113228549D01*
X178532989Y-113379923D01*
X178576670Y-113521956D01*
X178646863Y-113645995D01*
X178740956Y-113743385D01*
X178864170Y-113818659D01*
X179021725Y-113876352D01*
X179197275Y-113913027D01*
X179374473Y-113925253D01*
X179519466Y-113916400D01*
X179651151Y-113889844D01*
X179769527Y-113845582D01*
X179912522Y-113750253D01*
X180006341Y-113623604D01*
X180058264Y-113472643D01*
X180075571Y-113304374D01*
X180062247Y-113159868D01*
X180022275Y-113023055D01*
X179954555Y-112901352D01*
X179857989Y-112802176D01*
X179730791Y-112724016D01*
X179571176Y-112665363D01*
X179393703Y-112628687D01*
X179212934Y-112616462D01*
X179066918Y-112625253D01*
X178929967Y-112651626D01*
X178806478Y-112699978D01*
X178700846Y-112774703D01*
X178617604Y-112869758D01*
X178561286Y-112979099D01*
X178529143Y-113099703D01*
X178518429Y-113228549D01*
X178143337Y-113228549D01*
X178143337Y-112331846D01*
X178547000Y-112331846D01*
X178652495Y-112339401D01*
X178740407Y-112346681D01*
X178872275Y-112357121D01*
X178862385Y-112235143D01*
X178857989Y-112058769D01*
X178855791Y-111888989D01*
X178856890Y-111768110D01*
X178950419Y-111869941D01*
X179037598Y-111961516D01*
X179118429Y-112042835D01*
X179239582Y-112155473D01*
X179356890Y-112253824D01*
X179434363Y-112310418D01*
X179512934Y-112357121D01*
X179623923Y-112402176D01*
X179723923Y-112414264D01*
X179867330Y-112372505D01*
X179983813Y-112247231D01*
X180026533Y-112158220D01*
X180054692Y-112058220D01*
X180070352Y-111950253D01*
X180075571Y-111837341D01*
X180070199Y-111664813D01*
X180054082Y-111484227D01*
X180027220Y-111295582D01*
X179845901Y-111267011D01*
X179688758Y-111238440D01*
X179720077Y-111370170D01*
X179739308Y-111470857D01*
X179752495Y-111632945D01*
X179742604Y-111732945D01*
X179716231Y-111807670D01*
X179676121Y-111852725D01*
X179620626Y-111867011D01*
X179573374Y-111858220D01*
X179490956Y-111808769D01*
X179403319Y-111736242D01*
X179307440Y-111648330D01*
X179221969Y-111564569D01*
X179132592Y-111472994D01*
X179039308Y-111373604D01*
X178950022Y-111273330D01*
X178857989Y-111163714D01*
X178683813Y-111156571D01*
X178547000Y-111149429D01*
X178547962Y-111281091D01*
X178548648Y-111426626D01*
X178549060Y-111586036D01*
X178549198Y-111759319D01*
X178549060Y-111907190D01*
X178548648Y-112051901D01*
X178547962Y-112193453D01*
X178547000Y-112331846D01*
X178143337Y-112331846D01*
X178143337Y-111149429D01*
X178143337Y-111050527D01*
X178978868Y-111050527D01*
X179136286Y-111056297D01*
X179283264Y-111067011D01*
X179279967Y-110915637D01*
X179278868Y-110771407D01*
X179279967Y-110628549D01*
X179283264Y-110476901D01*
X179134637Y-110471132D01*
X178978868Y-110460418D01*
X178981341Y-110611516D01*
X178982165Y-110754923D01*
X178981341Y-110898604D01*
X178978868Y-111050527D01*
X178143337Y-111050527D01*
X178143337Y-110460418D01*
X178143337Y-110264813D01*
X178547000Y-110264813D01*
X178652495Y-110272368D01*
X178740407Y-110279648D01*
X178872275Y-110290088D01*
X178862385Y-110168110D01*
X178857989Y-109991736D01*
X178855791Y-109821956D01*
X178856890Y-109701077D01*
X178950419Y-109802908D01*
X179037598Y-109894484D01*
X179118429Y-109975802D01*
X179239582Y-110088440D01*
X179356890Y-110186791D01*
X179434363Y-110243385D01*
X179512934Y-110290088D01*
X179623923Y-110335143D01*
X179723923Y-110347231D01*
X179867330Y-110305473D01*
X179983813Y-110180198D01*
X180026533Y-110091187D01*
X180054692Y-109991187D01*
X180070352Y-109883220D01*
X180075571Y-109770308D01*
X180070199Y-109597780D01*
X180054082Y-109417194D01*
X180027220Y-109228549D01*
X179845901Y-109199978D01*
X179688758Y-109171407D01*
X179720077Y-109303137D01*
X179739308Y-109403824D01*
X179752495Y-109565912D01*
X179742604Y-109665912D01*
X179716231Y-109740637D01*
X179676121Y-109785692D01*
X179620626Y-109799978D01*
X179573374Y-109791187D01*
X179490956Y-109741736D01*
X179403319Y-109669209D01*
X179307440Y-109581297D01*
X179221969Y-109497536D01*
X179132592Y-109405961D01*
X179039308Y-109306571D01*
X178950022Y-109206297D01*
X178857989Y-109096681D01*
X178683813Y-109089538D01*
X178547000Y-109082396D01*
X178547962Y-109214058D01*
X178548648Y-109359593D01*
X178549060Y-109519003D01*
X178549198Y-109692286D01*
X178549060Y-109840157D01*
X178548648Y-109984868D01*
X178547962Y-110126420D01*
X178547000Y-110264813D01*
X178143337Y-110264813D01*
X178143337Y-109082396D01*
X178143337Y-108082396D01*
X178547000Y-108082396D01*
X178548648Y-108198879D01*
X178549198Y-108341736D01*
X178548648Y-108465637D01*
X178547000Y-108569209D01*
X178689857Y-108569209D01*
X178988758Y-108580198D01*
X179801945Y-108627451D01*
X180047000Y-108649429D01*
X180045352Y-108524429D01*
X180044802Y-108402176D01*
X180045352Y-108282121D01*
X180047000Y-108176901D01*
X180010187Y-108129099D01*
X179954692Y-108042286D01*
X179878868Y-107915363D01*
X179693703Y-107909868D01*
X179575984Y-107904099D01*
X179474473Y-107897780D01*
X179549885Y-108003824D01*
X179591505Y-108064813D01*
X179641505Y-108143934D01*
X179508294Y-108139661D01*
X179326976Y-108131236D01*
X179097549Y-108118659D01*
X178867391Y-108104862D01*
X178683874Y-108092774D01*
X178547000Y-108082396D01*
X178143337Y-108082396D01*
X178143337Y-107897780D01*
X178143337Y-107335143D01*
X178143337Y-106566034D01*
X179297000Y-107335143D01*
X180450663Y-106566034D01*
X180450663Y-107335143D01*
G37*
D13*
%TO.C,J2*%
X200656000Y-133975000D02*
X200656000Y-140775000D01*
X200656000Y-133975000D02*
X201269000Y-133975000D01*
X200656000Y-140775000D02*
X209320000Y-140775000D01*
X208731000Y-133975000D02*
X209320000Y-133975000D01*
X209320000Y-140775000D02*
X209320000Y-133975000D01*
D11*
%TO.C,J3*%
X213250000Y-130100000D02*
X213250000Y-131350000D01*
X213250000Y-131350000D02*
X214500000Y-131350000D01*
X213540000Y-120940000D02*
X213540000Y-131060000D01*
X213540000Y-131060000D02*
X219510000Y-131060000D01*
X213550000Y-120950000D02*
X213550000Y-122750000D01*
X213550000Y-122750000D02*
X214300000Y-122750000D01*
X213550000Y-124250000D02*
X213550000Y-127750000D01*
X213550000Y-127750000D02*
X214300000Y-127750000D01*
X213550000Y-129250000D02*
X213550000Y-131050000D01*
X213550000Y-131050000D02*
X214300000Y-131050000D01*
X214300000Y-120950000D02*
X213550000Y-120950000D01*
X214300000Y-122750000D02*
X214300000Y-120950000D01*
X214300000Y-124250000D02*
X213550000Y-124250000D01*
X214300000Y-127750000D02*
X214300000Y-124250000D01*
X214300000Y-129250000D02*
X213550000Y-129250000D01*
X214300000Y-131050000D02*
X214300000Y-129250000D01*
X215800000Y-120950000D02*
X215800000Y-121700000D01*
X215800000Y-121700000D02*
X218750000Y-121700000D01*
X215800000Y-130300000D02*
X218750000Y-130300000D01*
X215800000Y-131050000D02*
X215800000Y-130300000D01*
X218750000Y-121700000D02*
X218750000Y-126000000D01*
X218750000Y-130300000D02*
X218750000Y-126000000D01*
X219510000Y-120940000D02*
X213540000Y-120940000D01*
X219510000Y-131060000D02*
X219510000Y-120940000D01*
D12*
%TO.C,kibuzzard-6786B82B*%
G36*
X194280700Y-109483894D02*
G01*
X194330150Y-109497960D01*
X194397256Y-109564480D01*
X194416158Y-109617740D01*
X194422458Y-109681989D01*
X194418209Y-109738179D01*
X194405462Y-109793051D01*
X194383850Y-109842355D01*
X194353007Y-109881842D01*
X194270663Y-109926971D01*
X194220553Y-109934883D01*
X194163996Y-109937520D01*
X194096597Y-109934590D01*
X194116524Y-109482722D01*
X194216158Y-109479205D01*
X194280700Y-109483894D01*
G37*
G36*
X195509125Y-109483894D02*
G01*
X195558575Y-109497960D01*
X195625681Y-109564480D01*
X195644582Y-109617740D01*
X195650883Y-109681989D01*
X195646634Y-109738179D01*
X195633886Y-109793051D01*
X195612275Y-109842355D01*
X195581432Y-109881842D01*
X195499088Y-109926971D01*
X195448978Y-109934883D01*
X195392421Y-109937520D01*
X195325022Y-109934590D01*
X195344949Y-109482722D01*
X195444582Y-109479205D01*
X195509125Y-109483894D01*
G37*
G36*
X196943484Y-109479498D02*
G01*
X196997696Y-109501476D01*
X197042531Y-109536714D01*
X197075059Y-109583821D01*
X197094839Y-109639278D01*
X197101432Y-109699571D01*
X197094326Y-109762648D01*
X197073007Y-109822941D01*
X197038136Y-109875249D01*
X196990370Y-109914370D01*
X196933447Y-109938766D01*
X196871103Y-109946897D01*
X196811762Y-109939645D01*
X196755645Y-109917886D01*
X196708099Y-109883234D01*
X196674473Y-109837300D01*
X196654473Y-109783088D01*
X196647806Y-109723601D01*
X196655132Y-109658326D01*
X196677110Y-109597300D01*
X196712714Y-109544846D01*
X196760919Y-109505286D01*
X196818648Y-109480451D01*
X196882824Y-109472172D01*
X196943484Y-109479498D01*
G37*
G36*
X198065470Y-109711000D02*
G01*
X197655278Y-110326287D01*
X197355205Y-110326287D01*
X196865242Y-110326287D01*
X196001359Y-110326287D01*
X195071835Y-110326287D01*
X193843410Y-110326287D01*
X192857623Y-110326287D01*
X192384656Y-110326287D01*
X191547733Y-110326287D01*
X190701432Y-110326287D01*
X189992861Y-110326287D01*
X189632421Y-110326287D01*
X189178795Y-110326287D01*
X188878722Y-110326287D01*
X188468530Y-110326287D01*
X188864070Y-109732978D01*
X189178795Y-109732978D01*
X189186121Y-109819425D01*
X189208099Y-109897081D01*
X189247147Y-109965579D01*
X189305681Y-110024553D01*
X189377330Y-110071147D01*
X189455718Y-110102502D01*
X189540773Y-110120304D01*
X189632421Y-110126238D01*
X189701058Y-110124219D01*
X189775685Y-110118163D01*
X189832900Y-110111000D01*
X189992861Y-110111000D01*
X190066707Y-110110487D01*
X190146414Y-110110121D01*
X190231982Y-110109901D01*
X190323410Y-110109828D01*
X190418030Y-110109958D01*
X190515905Y-110110349D01*
X190617037Y-110111000D01*
X190701432Y-110111000D01*
X190788612Y-110110121D01*
X190835645Y-110109828D01*
X190962824Y-110111000D01*
X190976890Y-109748802D01*
X190980651Y-109689022D01*
X190995059Y-109689022D01*
X191060747Y-109795360D01*
X191118558Y-109890727D01*
X191168492Y-109975123D01*
X191210549Y-110048547D01*
X191244729Y-110111000D01*
X191340407Y-110110121D01*
X191403557Y-110109828D01*
X191547733Y-110111000D01*
X191302751Y-109755249D01*
X191291725Y-109737667D01*
X191905242Y-109737667D01*
X191910736Y-109808582D01*
X191927220Y-109877154D01*
X191953813Y-109940011D01*
X191989637Y-109993784D01*
X192035132Y-110037886D01*
X192090736Y-110071733D01*
X192155425Y-110096495D01*
X192228172Y-110113344D01*
X192305681Y-110123015D01*
X192384656Y-110126238D01*
X192436670Y-110125139D01*
X192495425Y-110121842D01*
X192553081Y-110117154D01*
X192601799Y-110111879D01*
X192607863Y-110111000D01*
X192857623Y-110111000D01*
X192932055Y-110110121D01*
X192978355Y-110109828D01*
X193025095Y-110110121D01*
X193089125Y-110111000D01*
X193094985Y-109877154D01*
X193107293Y-109599352D01*
X193135571Y-109653857D01*
X193162971Y-109703674D01*
X193205901Y-109780451D01*
X193252641Y-109860744D01*
X193351103Y-110027777D01*
X193396231Y-110111000D01*
X193482971Y-110110121D01*
X193548612Y-110109828D01*
X193617330Y-110110121D01*
X193691029Y-110111000D01*
X193843410Y-110111000D01*
X193908026Y-110109681D01*
X193951835Y-110109242D01*
X194188612Y-110111000D01*
X195071835Y-110111000D01*
X195136451Y-110109681D01*
X195180260Y-110109242D01*
X195417037Y-110111000D01*
X196001359Y-110111000D01*
X196091908Y-110110121D01*
X196145535Y-110109828D01*
X196265681Y-110111000D01*
X196266072Y-110039140D01*
X196267244Y-109957968D01*
X196269198Y-109867484D01*
X196271249Y-109794791D01*
X196273617Y-109727117D01*
X196394033Y-109727117D01*
X196401066Y-109810487D01*
X196422165Y-109885945D01*
X196460040Y-109954150D01*
X196517403Y-110015762D01*
X196590443Y-110066018D01*
X196675352Y-110100158D01*
X196768245Y-110119718D01*
X196865242Y-110126238D01*
X196963557Y-110119571D01*
X197058062Y-110099571D01*
X197144216Y-110065212D01*
X197217476Y-110015469D01*
X197276451Y-109951806D01*
X197319747Y-109875689D01*
X197346341Y-109789315D01*
X197355205Y-109694883D01*
X197347147Y-109606531D01*
X197322971Y-109529022D01*
X197282531Y-109461110D01*
X197225681Y-109401549D01*
X197155205Y-109353711D01*
X197073886Y-109320963D01*
X196985388Y-109302062D01*
X196893374Y-109295762D01*
X196798982Y-109301818D01*
X196711168Y-109319987D01*
X196629930Y-109350267D01*
X196558363Y-109391326D01*
X196499560Y-109441826D01*
X196453520Y-109501769D01*
X196420472Y-109569917D01*
X196400643Y-109645033D01*
X196394033Y-109727117D01*
X196273617Y-109727117D01*
X196273886Y-109719425D01*
X196277110Y-109641385D01*
X196280919Y-109560670D01*
X196285673Y-109480573D01*
X196291339Y-109397349D01*
X196297916Y-109311000D01*
X196211322Y-109311879D01*
X196171908Y-109312172D01*
X196120333Y-109311879D01*
X196034766Y-109311000D01*
X196035352Y-109386604D01*
X196034821Y-109453436D01*
X196033227Y-109527044D01*
X196030571Y-109607429D01*
X196026853Y-109694590D01*
X196022073Y-109788527D01*
X196016231Y-109889242D01*
X196009326Y-109996733D01*
X196001359Y-110111000D01*
X195417037Y-110111000D01*
X195493081Y-110109242D01*
X195560626Y-110103967D01*
X195650297Y-110086971D01*
X195715352Y-110057667D01*
X195792421Y-109997007D01*
X195823996Y-109958106D01*
X195851322Y-109912319D01*
X195873740Y-109860084D01*
X195890590Y-109801842D01*
X195901139Y-109739352D01*
X195904656Y-109674370D01*
X195900114Y-109607923D01*
X195886487Y-109543381D01*
X195864216Y-109483821D01*
X195833740Y-109432319D01*
X195794985Y-109389388D01*
X195747879Y-109355542D01*
X195694619Y-109331220D01*
X195637403Y-109316861D01*
X195573374Y-109309828D01*
X195499674Y-109307484D01*
X195428758Y-109308143D01*
X195353154Y-109310121D01*
X195282678Y-109312099D01*
X195227147Y-109312758D01*
X195172641Y-109312319D01*
X195108758Y-109311000D01*
X195108758Y-109379571D01*
X195108172Y-109430560D01*
X195106414Y-109499913D01*
X195103484Y-109587630D01*
X195099967Y-109678179D01*
X195096451Y-109759938D01*
X195092934Y-109832905D01*
X195089418Y-109897081D01*
X195085380Y-109956535D01*
X195079519Y-110027842D01*
X195071835Y-110111000D01*
X194188612Y-110111000D01*
X194264656Y-110109242D01*
X194332201Y-110103967D01*
X194421872Y-110086971D01*
X194486927Y-110057667D01*
X194563996Y-109997007D01*
X194595571Y-109958106D01*
X194622897Y-109912319D01*
X194645315Y-109860084D01*
X194662165Y-109801842D01*
X194672714Y-109739352D01*
X194676231Y-109674370D01*
X194671689Y-109607923D01*
X194658062Y-109543381D01*
X194635791Y-109483821D01*
X194605315Y-109432319D01*
X194566560Y-109389388D01*
X194519454Y-109355542D01*
X194466194Y-109331220D01*
X194408978Y-109316861D01*
X194344949Y-109309828D01*
X194271249Y-109307484D01*
X194200333Y-109308143D01*
X194124729Y-109310121D01*
X194054253Y-109312099D01*
X193998722Y-109312758D01*
X193944216Y-109312319D01*
X193880333Y-109311000D01*
X193880333Y-109379571D01*
X193879747Y-109430560D01*
X193877989Y-109499913D01*
X193875059Y-109587630D01*
X193871542Y-109678179D01*
X193868026Y-109759938D01*
X193864509Y-109832905D01*
X193860993Y-109897081D01*
X193856955Y-109956535D01*
X193851094Y-110027842D01*
X193843410Y-110111000D01*
X193691029Y-110111000D01*
X193694546Y-109970927D01*
X193720919Y-109485652D01*
X193734985Y-109311000D01*
X193658795Y-109311879D01*
X193620114Y-109312172D01*
X193569564Y-109311879D01*
X193504656Y-109311000D01*
X193503907Y-109368501D01*
X193501660Y-109450357D01*
X193497916Y-109556568D01*
X193493455Y-109666165D01*
X193489059Y-109758179D01*
X193484729Y-109832612D01*
X193450150Y-109765799D01*
X193199308Y-109311000D01*
X193119161Y-109311879D01*
X193059234Y-109312172D01*
X192984216Y-109311879D01*
X192898648Y-109311000D01*
X192898648Y-109402429D01*
X192892201Y-109570634D01*
X192869344Y-109987923D01*
X192857623Y-110111000D01*
X192607863Y-110111000D01*
X192651835Y-110104626D01*
X192713447Y-110094004D01*
X192715303Y-110035982D01*
X192718526Y-109961940D01*
X192723117Y-109871879D01*
X192728359Y-109781232D01*
X192733536Y-109705432D01*
X192738648Y-109644480D01*
X192654839Y-109645359D01*
X192544070Y-109645652D01*
X192469491Y-109645359D01*
X192391103Y-109644480D01*
X192389930Y-109704553D01*
X192388172Y-109738253D01*
X192384070Y-109810341D01*
X192446194Y-109809755D01*
X192491322Y-109811513D01*
X192484875Y-109938692D01*
X192425242Y-109950121D01*
X192370590Y-109953930D01*
X192310810Y-109947777D01*
X192256890Y-109929315D01*
X192212788Y-109899059D01*
X192182458Y-109857520D01*
X192164875Y-109807044D01*
X192159015Y-109749974D01*
X192164143Y-109692245D01*
X192179527Y-109637447D01*
X192205242Y-109587850D01*
X192241359Y-109545725D01*
X192286707Y-109512319D01*
X192340114Y-109488875D01*
X192399308Y-109475029D01*
X192462018Y-109470414D01*
X192517989Y-109473344D01*
X192584216Y-109482429D01*
X192645168Y-109495908D01*
X192713447Y-109517300D01*
X192707733Y-109417227D01*
X192705828Y-109326824D01*
X192604957Y-109309567D01*
X192510207Y-109299213D01*
X192421579Y-109295762D01*
X192337714Y-109299480D01*
X192261945Y-109310634D01*
X192194271Y-109329223D01*
X192134692Y-109355249D01*
X192066414Y-109399628D01*
X192009662Y-109453450D01*
X191964436Y-109516714D01*
X191931550Y-109586588D01*
X191911819Y-109660239D01*
X191905242Y-109737667D01*
X191291725Y-109737667D01*
X191259381Y-109686092D01*
X191305681Y-109623381D01*
X191553007Y-109311000D01*
X191453227Y-109311879D01*
X191412934Y-109312172D01*
X191356670Y-109311879D01*
X191265242Y-109311000D01*
X191232421Y-109361403D01*
X191126341Y-109510267D01*
X190995059Y-109689022D01*
X190980651Y-109689022D01*
X191004436Y-109311000D01*
X190921799Y-109311879D01*
X190877842Y-109312172D01*
X190825681Y-109311879D01*
X190743044Y-109311000D01*
X190743044Y-109361403D01*
X190742263Y-109413759D01*
X190739918Y-109486433D01*
X190736011Y-109579425D01*
X190731103Y-109684590D01*
X190726341Y-109777960D01*
X190721725Y-109859535D01*
X190717256Y-109929315D01*
X190710956Y-110010780D01*
X190701432Y-110111000D01*
X190617037Y-110111000D01*
X190629930Y-109934004D01*
X190568848Y-109936283D01*
X190491094Y-109937650D01*
X190396670Y-109938106D01*
X190348612Y-109937667D01*
X190265388Y-109936348D01*
X190267733Y-109854883D01*
X190285315Y-109523161D01*
X190299381Y-109311000D01*
X190230516Y-109311879D01*
X190179821Y-109312172D01*
X190113740Y-109311879D01*
X190038575Y-109311000D01*
X190037891Y-109384162D01*
X190035840Y-109470023D01*
X190032421Y-109568582D01*
X190028960Y-109647392D01*
X190024729Y-109726458D01*
X190019729Y-109805780D01*
X190013960Y-109885359D01*
X190008750Y-109949242D01*
X190001717Y-110024455D01*
X189992861Y-110111000D01*
X189832900Y-110111000D01*
X189856304Y-110108070D01*
X189869784Y-110012245D01*
X189886780Y-109915835D01*
X189819161Y-109932026D01*
X189763996Y-109941916D01*
X189673447Y-109948656D01*
X189603337Y-109942136D01*
X189545388Y-109922575D01*
X189498868Y-109891073D01*
X189463044Y-109848729D01*
X189440187Y-109796201D01*
X189432568Y-109734150D01*
X189441652Y-109664114D01*
X189468905Y-109600524D01*
X189511982Y-109547337D01*
X189568538Y-109508509D01*
X189635791Y-109484773D01*
X189710956Y-109476861D01*
X189789784Y-109482722D01*
X189838795Y-109491220D01*
X189900846Y-109504993D01*
X189896744Y-109438179D01*
X189893227Y-109367264D01*
X189892055Y-109318033D01*
X189811436Y-109305660D01*
X189739934Y-109298236D01*
X189677549Y-109295762D01*
X189584656Y-109301842D01*
X189494692Y-109320084D01*
X189409784Y-109352465D01*
X189332055Y-109400963D01*
X189266560Y-109464553D01*
X189218355Y-109542209D01*
X189188685Y-109632245D01*
X189178795Y-109732978D01*
X188864070Y-109732978D01*
X188878722Y-109711000D01*
X188468530Y-109095713D01*
X188878722Y-109095713D01*
X189178795Y-109095713D01*
X197355205Y-109095713D01*
X197655278Y-109095713D01*
X198065470Y-109711000D01*
G37*
D11*
%TO.C,C5*%
X185293000Y-135103748D02*
X185293000Y-135626252D01*
X186763000Y-135103748D02*
X186763000Y-135626252D01*
%TO.C,C1*%
X206005748Y-126021500D02*
X206528252Y-126021500D01*
X206005748Y-127491500D02*
X206528252Y-127491500D01*
%TO.C,SW3*%
X204280000Y-72550000D02*
X204770000Y-72060000D01*
X204280000Y-75450000D02*
X204280000Y-72550000D01*
X204280000Y-75450000D02*
X204770000Y-75940000D01*
X208040000Y-71280000D02*
X205960000Y-71280000D01*
X208040000Y-76720000D02*
X205960000Y-76720000D01*
X209720000Y-72550000D02*
X209230000Y-72060000D01*
X209720000Y-75450000D02*
X209230000Y-75940000D01*
X209720000Y-75450000D02*
X209720000Y-72550000D01*
%TO.C,U1*%
X203257000Y-118227000D02*
X203257000Y-116027000D01*
X203257000Y-118227000D02*
X203257000Y-120427000D01*
X210027000Y-118227000D02*
X210027000Y-116027000D01*
X210027000Y-118227000D02*
X210027000Y-120427000D01*
X203957000Y-122417000D02*
X203477000Y-122417000D01*
X203717000Y-122087000D01*
X203957000Y-122417000D01*
G36*
X203957000Y-122417000D02*
G01*
X203477000Y-122417000D01*
X203717000Y-122087000D01*
X203957000Y-122417000D01*
G37*
%TO.C,U2*%
X196827000Y-125720000D02*
X196827000Y-125070000D01*
X196827000Y-125720000D02*
X196827000Y-126370000D01*
X199947000Y-125720000D02*
X199947000Y-125070000D01*
X199947000Y-125720000D02*
X199947000Y-126370000D01*
X200227000Y-124797500D02*
X199897000Y-124557500D01*
X200227000Y-124317500D01*
X200227000Y-124797500D01*
G36*
X200227000Y-124797500D02*
G01*
X199897000Y-124557500D01*
X200227000Y-124317500D01*
X200227000Y-124797500D01*
G37*
D14*
%TO.C,mouse-bite-3mm-slot*%
X204000000Y-80000000D02*
G75*
G02*
X204000000Y-83000000I0J-1500000D01*
G01*
X210000000Y-83000000D02*
G75*
G02*
X210000000Y-80000000I0J1500000D01*
G01*
D11*
%TO.C,C6*%
X200851000Y-125905252D02*
X200851000Y-125382748D01*
X202321000Y-125905252D02*
X202321000Y-125382748D01*
%TO.C,C3*%
X200943252Y-130566000D02*
X200420748Y-130566000D01*
X200943252Y-132036000D02*
X200420748Y-132036000D01*
%TO.C,U3*%
X188050000Y-111697000D02*
X188050000Y-111952000D01*
X188050000Y-122217000D02*
X188050000Y-121962000D01*
X191910000Y-111697000D02*
X188050000Y-111697000D01*
X191910000Y-111697000D02*
X195770000Y-111697000D01*
X191910000Y-122217000D02*
X188050000Y-122217000D01*
X191910000Y-122217000D02*
X195770000Y-122217000D01*
X195770000Y-111697000D02*
X195770000Y-111952000D01*
X195770000Y-122217000D02*
X195770000Y-121962000D01*
X187197500Y-111952000D02*
X186857500Y-111482000D01*
X187537500Y-111482000D01*
X187197500Y-111952000D01*
G36*
X187197500Y-111952000D02*
G01*
X186857500Y-111482000D01*
X187537500Y-111482000D01*
X187197500Y-111952000D01*
G37*
%TO.C,R5*%
X198541000Y-121174936D02*
X198541000Y-121629064D01*
X200011000Y-121174936D02*
X200011000Y-121629064D01*
D12*
%TO.C,kibuzzard-675B2D96*%
G36*
X199901109Y-135613023D02*
G01*
X199963632Y-135622298D01*
X200024944Y-135637656D01*
X200084456Y-135658949D01*
X200141595Y-135685974D01*
X200195809Y-135718469D01*
X200246577Y-135756121D01*
X200293410Y-135798568D01*
X200335858Y-135845401D01*
X200373510Y-135896169D01*
X200406005Y-135950384D01*
X200433029Y-136007522D01*
X200454323Y-136067034D01*
X200469681Y-136128347D01*
X200478955Y-136190869D01*
X200482057Y-136254000D01*
X200478955Y-136317131D01*
X200469681Y-136379653D01*
X200454323Y-136440966D01*
X200433029Y-136500478D01*
X200406005Y-136557616D01*
X200373510Y-136611831D01*
X200335858Y-136662599D01*
X200293410Y-136709432D01*
X200246577Y-136751879D01*
X200195809Y-136789531D01*
X200141595Y-136822026D01*
X200084456Y-136849051D01*
X200024944Y-136870344D01*
X199963632Y-136885702D01*
X199901109Y-136894977D01*
X199837978Y-136898078D01*
X199837853Y-136898078D01*
X199160930Y-136898078D01*
X197948476Y-136898078D01*
X197410747Y-136898078D01*
X196130161Y-136898078D01*
X195078146Y-136898078D01*
X195078021Y-136898078D01*
X195014891Y-136894977D01*
X194952368Y-136885702D01*
X194891055Y-136870344D01*
X194831543Y-136849051D01*
X194774405Y-136822026D01*
X194720191Y-136789531D01*
X194672283Y-136754000D01*
X195078146Y-136754000D01*
X195171736Y-136752901D01*
X195231260Y-136752535D01*
X195289319Y-136752901D01*
X195390234Y-136754000D01*
X195391654Y-136649467D01*
X195393714Y-136543927D01*
X195396416Y-136437379D01*
X195399758Y-136329824D01*
X195404886Y-136193072D01*
X195410503Y-136070972D01*
X195416608Y-135963524D01*
X195480711Y-135961692D01*
X195533824Y-135960593D01*
X195645546Y-135972315D01*
X195698659Y-136007846D01*
X195715509Y-136063158D01*
X195693165Y-136134220D01*
X195627231Y-136184037D01*
X195530161Y-136200154D01*
X195452505Y-136192828D01*
X195527963Y-136400154D01*
X195558183Y-136483487D01*
X195579978Y-136545941D01*
X195601223Y-136612608D01*
X195627231Y-136699604D01*
X195643714Y-136754000D01*
X195747011Y-136752901D01*
X195816608Y-136752535D01*
X195878146Y-136752901D01*
X195979245Y-136754000D01*
X196130161Y-136754000D01*
X196234190Y-136753267D01*
X196556535Y-136752535D01*
X196660976Y-136752626D01*
X196761113Y-136752901D01*
X196856947Y-136753359D01*
X196948476Y-136754000D01*
X196955070Y-136640081D01*
X196963128Y-136529824D01*
X196850308Y-136535685D01*
X196698659Y-136539348D01*
X196601407Y-136540996D01*
X196544081Y-136541546D01*
X196459831Y-136541546D01*
X196462436Y-136488799D01*
X197089135Y-136488799D01*
X197097113Y-136558233D01*
X197104439Y-136641505D01*
X197111113Y-136738615D01*
X197224829Y-136757744D01*
X197324707Y-136769222D01*
X197410747Y-136773048D01*
X197485747Y-136769201D01*
X197556901Y-136757663D01*
X197568397Y-136754000D01*
X197948476Y-136754000D01*
X198052505Y-136753267D01*
X198374850Y-136752535D01*
X198479291Y-136752626D01*
X198579429Y-136752901D01*
X198675262Y-136753359D01*
X198766791Y-136754000D01*
X198773385Y-136640081D01*
X198781443Y-136529824D01*
X198668623Y-136535685D01*
X198516974Y-136539348D01*
X198419722Y-136540996D01*
X198362396Y-136541546D01*
X198278146Y-136541546D01*
X198286938Y-136363524D01*
X198406168Y-136359678D01*
X198513311Y-136358396D01*
X198596095Y-136358762D01*
X198708183Y-136359861D01*
X198714960Y-136239165D01*
X198722103Y-136136418D01*
X198578879Y-136140264D01*
X198503787Y-136141546D01*
X198395912Y-136140996D01*
X198302322Y-136139348D01*
X198310767Y-135978176D01*
X198892798Y-135978176D01*
X199204886Y-135970117D01*
X199202195Y-136090892D01*
X199198308Y-136208736D01*
X199193225Y-136323649D01*
X199186945Y-136435633D01*
X199179470Y-136544686D01*
X199170798Y-136650808D01*
X199160930Y-136754000D01*
X199271553Y-136752901D01*
X199329429Y-136752535D01*
X199385839Y-136752901D01*
X199484740Y-136754000D01*
X199485839Y-136648231D01*
X199489135Y-136514073D01*
X199492473Y-136414155D01*
X199496624Y-136312201D01*
X199501590Y-136208212D01*
X199508733Y-136093377D01*
X199518440Y-135968652D01*
X199569722Y-135968652D01*
X199643714Y-135969466D01*
X199729917Y-135971908D01*
X199828330Y-135975978D01*
X199829429Y-135919568D01*
X199833458Y-135825062D01*
X199837853Y-135754000D01*
X199742615Y-135754733D01*
X199566791Y-135754733D01*
X199385839Y-135755465D01*
X199251681Y-135755374D01*
X199126132Y-135755099D01*
X199009190Y-135754641D01*
X198900857Y-135754000D01*
X198899026Y-135828542D01*
X198896461Y-135896857D01*
X198892798Y-135978176D01*
X198310767Y-135978176D01*
X198311113Y-135971582D01*
X198426498Y-135968286D01*
X198480619Y-135968011D01*
X198568989Y-135967919D01*
X198676315Y-135969385D01*
X198806352Y-135973780D01*
X198807817Y-135921766D01*
X198812212Y-135841912D01*
X198815875Y-135778176D01*
X198817341Y-135754000D01*
X198727551Y-135754641D01*
X198631077Y-135755099D01*
X198527918Y-135755374D01*
X198418073Y-135755465D01*
X198299896Y-135755374D01*
X198190784Y-135755099D01*
X198090738Y-135754641D01*
X197999758Y-135754000D01*
X198000491Y-135818469D01*
X197999555Y-135880211D01*
X197996746Y-135973617D01*
X197992066Y-136098689D01*
X197986449Y-136230272D01*
X197980833Y-136343214D01*
X197975216Y-136437516D01*
X197968501Y-136529336D01*
X197959587Y-136634830D01*
X197948476Y-136754000D01*
X197568397Y-136754000D01*
X197623293Y-136736509D01*
X197684007Y-136703817D01*
X197735289Y-136660044D01*
X197773385Y-136605648D01*
X197797011Y-136544385D01*
X197804886Y-136480007D01*
X197799758Y-136432022D01*
X197784007Y-136387700D01*
X197753604Y-136339348D01*
X197706718Y-136285868D01*
X197656168Y-136239714D01*
X197603421Y-136197956D01*
X197520637Y-136131656D01*
X197478146Y-136090630D01*
X197456168Y-136058029D01*
X197450308Y-136029458D01*
X197488037Y-135976711D01*
X197582908Y-135955465D01*
X197678879Y-135966088D01*
X197737487Y-135980832D01*
X197801956Y-136003817D01*
X197792982Y-135914165D01*
X197788037Y-135856198D01*
X197782908Y-135763524D01*
X197688159Y-135747651D01*
X197598293Y-135738127D01*
X197513311Y-135734952D01*
X197390967Y-135744842D01*
X197279612Y-135781839D01*
X197196095Y-135846308D01*
X197148842Y-135926527D01*
X197133092Y-136014073D01*
X197142982Y-136084769D01*
X197174483Y-136150337D01*
X197234923Y-136219934D01*
X197302322Y-136279275D01*
X197440051Y-136399421D01*
X197469355Y-136430557D01*
X197483275Y-136456198D01*
X197486938Y-136480007D01*
X197449209Y-136535319D01*
X197347744Y-136554000D01*
X197235289Y-136539714D01*
X197166700Y-136519842D01*
X197089135Y-136488799D01*
X196462436Y-136488799D01*
X196468623Y-136363524D01*
X196587853Y-136359678D01*
X196694996Y-136358396D01*
X196777780Y-136358762D01*
X196889868Y-136359861D01*
X196896645Y-136239165D01*
X196903787Y-136136418D01*
X196760564Y-136140264D01*
X196685472Y-136141546D01*
X196577597Y-136140996D01*
X196484007Y-136139348D01*
X196492798Y-135971582D01*
X196608183Y-135968286D01*
X196662304Y-135968011D01*
X196750674Y-135967919D01*
X196858000Y-135969385D01*
X196988037Y-135973780D01*
X196989502Y-135921766D01*
X196993897Y-135841912D01*
X196997560Y-135778176D01*
X196999026Y-135754000D01*
X196909236Y-135754641D01*
X196812762Y-135755099D01*
X196709603Y-135755374D01*
X196599758Y-135755465D01*
X196481581Y-135755374D01*
X196372469Y-135755099D01*
X196272423Y-135754641D01*
X196181443Y-135754000D01*
X196182176Y-135818469D01*
X196181240Y-135880211D01*
X196178431Y-135973617D01*
X196173751Y-136098689D01*
X196168134Y-136230272D01*
X196162518Y-136343214D01*
X196156901Y-136437516D01*
X196150186Y-136529336D01*
X196141272Y-136634830D01*
X196130161Y-136754000D01*
X195979245Y-136754000D01*
X195955802Y-136699055D01*
X195857634Y-136484403D01*
X195823201Y-136405282D01*
X195785106Y-136312242D01*
X195850216Y-136283945D01*
X195899026Y-136256198D01*
X195966425Y-136190996D01*
X196005619Y-136110410D01*
X196018073Y-136018469D01*
X196006718Y-135936051D01*
X195974850Y-135869018D01*
X195923568Y-135817370D01*
X195847744Y-135778176D01*
X195747744Y-135756930D01*
X195669355Y-135751436D01*
X195580711Y-135749604D01*
X195499758Y-135750429D01*
X195416608Y-135752901D01*
X195338769Y-135755374D01*
X195273751Y-135756198D01*
X195208549Y-135755648D01*
X195125766Y-135754000D01*
X195125033Y-135858853D01*
X195122835Y-135994659D01*
X195120556Y-136093845D01*
X195117626Y-136189694D01*
X195114044Y-136282205D01*
X195107634Y-136410227D01*
X195100124Y-136521766D01*
X195090601Y-136631473D01*
X195078146Y-136754000D01*
X194672283Y-136754000D01*
X194669423Y-136751879D01*
X194622589Y-136709432D01*
X194580142Y-136662599D01*
X194542490Y-136611831D01*
X194509995Y-136557616D01*
X194482971Y-136500478D01*
X194461677Y-136440966D01*
X194446319Y-136379653D01*
X194437045Y-136317131D01*
X194433943Y-136254000D01*
X194437045Y-136190869D01*
X194446319Y-136128347D01*
X194461677Y-136067034D01*
X194482971Y-136007522D01*
X194509995Y-135950384D01*
X194542490Y-135896169D01*
X194580142Y-135845401D01*
X194622589Y-135798568D01*
X194669423Y-135756121D01*
X194720191Y-135718469D01*
X194774405Y-135685974D01*
X194831543Y-135658949D01*
X194891055Y-135637656D01*
X194952368Y-135622298D01*
X195014891Y-135613023D01*
X195078021Y-135609922D01*
X195078146Y-135609922D01*
X199837853Y-135609922D01*
X199837978Y-135609922D01*
X199901109Y-135613023D01*
G37*
D11*
%TO.C,C8*%
X183896000Y-114529748D02*
X183896000Y-115052252D01*
X185366000Y-114529748D02*
X185366000Y-115052252D01*
%TO.C,J6*%
X213250000Y-98600000D02*
X213250000Y-99850000D01*
X213250000Y-99850000D02*
X214500000Y-99850000D01*
X213540000Y-91940000D02*
X213540000Y-99560000D01*
X213540000Y-99560000D02*
X219510000Y-99560000D01*
X213550000Y-91950000D02*
X213550000Y-93750000D01*
X213550000Y-93750000D02*
X214300000Y-93750000D01*
X213550000Y-95250000D02*
X213550000Y-96250000D01*
X213550000Y-96250000D02*
X214300000Y-96250000D01*
X213550000Y-97750000D02*
X213550000Y-99550000D01*
X213550000Y-99550000D02*
X214300000Y-99550000D01*
X214300000Y-91950000D02*
X213550000Y-91950000D01*
X214300000Y-93750000D02*
X214300000Y-91950000D01*
X214300000Y-95250000D02*
X213550000Y-95250000D01*
X214300000Y-96250000D02*
X214300000Y-95250000D01*
X214300000Y-97750000D02*
X213550000Y-97750000D01*
X214300000Y-99550000D02*
X214300000Y-97750000D01*
X215800000Y-91950000D02*
X215800000Y-92700000D01*
X215800000Y-92700000D02*
X218750000Y-92700000D01*
X215800000Y-98800000D02*
X218750000Y-98800000D01*
X215800000Y-99550000D02*
X215800000Y-98800000D01*
X218750000Y-92700000D02*
X218750000Y-95750000D01*
X218750000Y-98800000D02*
X218750000Y-95750000D01*
X219510000Y-91940000D02*
X213540000Y-91940000D01*
X219510000Y-99560000D02*
X219510000Y-91940000D01*
D12*
%TO.C,kibuzzard-677D17B8*%
G36*
X205355275Y-111870000D02*
G01*
X205868014Y-112639109D01*
X205355275Y-112639109D01*
X204980183Y-112639109D01*
X204973590Y-112639109D01*
X203915714Y-112639109D01*
X202685678Y-112639109D01*
X202175055Y-112639109D01*
X201285678Y-112639109D01*
X200816813Y-112639109D01*
X200162601Y-112639109D01*
X199401429Y-112639109D01*
X199079817Y-112639109D01*
X198704725Y-112639109D01*
X198191986Y-112639109D01*
X198548192Y-112104799D01*
X199079817Y-112104799D01*
X199087794Y-112174233D01*
X199095120Y-112257505D01*
X199101795Y-112354615D01*
X199215511Y-112373744D01*
X199315389Y-112385222D01*
X199401429Y-112389048D01*
X199476429Y-112385201D01*
X199547582Y-112373663D01*
X199613974Y-112352509D01*
X199674689Y-112319817D01*
X199725971Y-112276044D01*
X199764066Y-112221648D01*
X199787692Y-112160385D01*
X199795568Y-112096007D01*
X199790440Y-112048022D01*
X199774689Y-112003700D01*
X199744286Y-111955348D01*
X199697399Y-111901868D01*
X199646850Y-111855714D01*
X199594103Y-111813956D01*
X199511319Y-111747656D01*
X199468828Y-111706630D01*
X199446850Y-111674029D01*
X199440989Y-111645458D01*
X199478718Y-111592711D01*
X199573590Y-111571465D01*
X199669560Y-111582088D01*
X199728168Y-111596832D01*
X199792637Y-111619817D01*
X199790070Y-111594176D01*
X199894469Y-111594176D01*
X200206557Y-111586117D01*
X200203866Y-111706892D01*
X200199978Y-111824736D01*
X200194895Y-111939649D01*
X200188616Y-112051633D01*
X200181140Y-112160686D01*
X200172468Y-112266808D01*
X200162601Y-112370000D01*
X200273223Y-112368901D01*
X200331099Y-112368535D01*
X200387509Y-112368901D01*
X200486410Y-112370000D01*
X201285678Y-112370000D01*
X201377985Y-112369359D01*
X201477619Y-112368901D01*
X201584579Y-112368626D01*
X201698864Y-112368535D01*
X201817139Y-112368698D01*
X201939483Y-112369186D01*
X202065897Y-112370000D01*
X202175055Y-112370000D01*
X202288242Y-112368901D01*
X202355275Y-112368535D01*
X202505458Y-112370000D01*
X202685678Y-112370000D01*
X202778718Y-112368901D01*
X202836593Y-112368535D01*
X202895018Y-112368901D01*
X202975055Y-112370000D01*
X202982381Y-112077692D01*
X202997766Y-111730440D01*
X203033114Y-111798571D01*
X203067363Y-111860842D01*
X203121026Y-111956813D01*
X203179451Y-112057179D01*
X203302527Y-112265971D01*
X203358938Y-112370000D01*
X203467363Y-112368901D01*
X203549414Y-112368535D01*
X203635311Y-112368901D01*
X203727436Y-112370000D01*
X203915714Y-112370000D01*
X204024689Y-112368901D01*
X204083480Y-112368535D01*
X204242454Y-112370000D01*
X204260037Y-111917253D01*
X204264739Y-111842527D01*
X204282747Y-111842527D01*
X204364857Y-111975451D01*
X204437121Y-112094659D01*
X204499538Y-112200154D01*
X204552110Y-112291934D01*
X204594835Y-112370000D01*
X204714432Y-112368901D01*
X204793370Y-112368535D01*
X204973590Y-112370000D01*
X204667363Y-111925311D01*
X204613150Y-111838864D01*
X204671026Y-111760476D01*
X204980183Y-111370000D01*
X204855458Y-111371099D01*
X204805092Y-111371465D01*
X204734762Y-111371099D01*
X204620476Y-111370000D01*
X204579451Y-111433004D01*
X204446850Y-111619084D01*
X204282747Y-111842527D01*
X204264739Y-111842527D01*
X204294469Y-111370000D01*
X204191172Y-111371099D01*
X204136227Y-111371465D01*
X204071026Y-111371099D01*
X203967729Y-111370000D01*
X203967729Y-111433004D01*
X203966752Y-111498449D01*
X203963822Y-111589292D01*
X203958938Y-111705531D01*
X203952802Y-111836987D01*
X203946850Y-111953700D01*
X203941081Y-112055668D01*
X203935495Y-112142894D01*
X203927619Y-112244725D01*
X203915714Y-112370000D01*
X203727436Y-112370000D01*
X203731832Y-112194908D01*
X203764799Y-111588315D01*
X203782381Y-111370000D01*
X203687143Y-111371099D01*
X203638791Y-111371465D01*
X203575604Y-111371099D01*
X203494469Y-111370000D01*
X203493533Y-111441876D01*
X203490724Y-111544196D01*
X203486044Y-111676960D01*
X203480468Y-111813956D01*
X203474974Y-111928974D01*
X203469560Y-112022015D01*
X203426337Y-111938498D01*
X203112784Y-111370000D01*
X203012601Y-111371099D01*
X202937692Y-111371465D01*
X202843919Y-111371099D01*
X202736960Y-111370000D01*
X202736960Y-111484286D01*
X202728901Y-111694542D01*
X202700330Y-112216154D01*
X202685678Y-112370000D01*
X202505458Y-112370000D01*
X202505946Y-112280175D01*
X202507411Y-112178710D01*
X202509853Y-112065604D01*
X202512418Y-111974739D01*
X202515714Y-111880531D01*
X202519744Y-111782981D01*
X202524505Y-111682088D01*
X202530448Y-111581966D01*
X202537530Y-111477937D01*
X202545751Y-111370000D01*
X202437509Y-111371099D01*
X202388242Y-111371465D01*
X202323773Y-111371099D01*
X202216813Y-111370000D01*
X202217546Y-111464505D01*
X202216882Y-111548045D01*
X202214890Y-111640055D01*
X202211571Y-111740536D01*
X202206923Y-111849487D01*
X202200948Y-111966909D01*
X202193645Y-112092802D01*
X202185014Y-112227166D01*
X202175055Y-112370000D01*
X202065897Y-112370000D01*
X202082015Y-112148755D01*
X202005661Y-112151604D01*
X201908470Y-112153313D01*
X201790440Y-112153883D01*
X201730366Y-112153333D01*
X201626337Y-112151685D01*
X201629267Y-112049853D01*
X201651245Y-111635201D01*
X201668828Y-111370000D01*
X201582747Y-111371099D01*
X201519377Y-111371465D01*
X201436777Y-111371099D01*
X201342821Y-111370000D01*
X201341966Y-111461453D01*
X201339402Y-111568779D01*
X201335128Y-111691978D01*
X201330801Y-111790490D01*
X201325513Y-111889322D01*
X201319263Y-111988475D01*
X201312051Y-112087949D01*
X201305539Y-112167802D01*
X201296748Y-112261819D01*
X201285678Y-112370000D01*
X200486410Y-112370000D01*
X200487509Y-112264231D01*
X200490806Y-112130073D01*
X200492409Y-112082088D01*
X200816813Y-112082088D01*
X200917546Y-112080440D01*
X201013150Y-112079890D01*
X201108938Y-112080440D01*
X201210220Y-112082088D01*
X201214066Y-111977143D01*
X201221209Y-111879158D01*
X201120293Y-111881355D01*
X201024139Y-111882088D01*
X200928901Y-111881355D01*
X200827802Y-111879158D01*
X200823956Y-111978242D01*
X200816813Y-112082088D01*
X200492409Y-112082088D01*
X200494143Y-112030155D01*
X200498295Y-111928201D01*
X200503260Y-111824212D01*
X200510403Y-111709377D01*
X200520110Y-111584652D01*
X200571392Y-111584652D01*
X200645385Y-111585466D01*
X200731587Y-111587908D01*
X200830000Y-111591978D01*
X200831099Y-111535568D01*
X200835128Y-111441062D01*
X200839524Y-111370000D01*
X200744286Y-111370733D01*
X200568462Y-111370733D01*
X200387509Y-111371465D01*
X200253352Y-111371374D01*
X200127802Y-111371099D01*
X200010861Y-111370641D01*
X199902527Y-111370000D01*
X199900696Y-111444542D01*
X199898132Y-111512857D01*
X199894469Y-111594176D01*
X199790070Y-111594176D01*
X199783663Y-111530165D01*
X199778718Y-111472198D01*
X199773590Y-111379524D01*
X199678840Y-111363651D01*
X199588974Y-111354127D01*
X199503993Y-111350952D01*
X199381648Y-111360842D01*
X199270293Y-111397839D01*
X199186777Y-111462308D01*
X199139524Y-111542527D01*
X199123773Y-111630073D01*
X199133663Y-111700769D01*
X199165165Y-111766337D01*
X199225604Y-111835934D01*
X199293004Y-111895275D01*
X199430733Y-112015421D01*
X199460037Y-112046557D01*
X199473956Y-112072198D01*
X199477619Y-112096007D01*
X199439890Y-112151319D01*
X199338425Y-112170000D01*
X199225971Y-112155714D01*
X199157381Y-112135842D01*
X199079817Y-112104799D01*
X198548192Y-112104799D01*
X198704725Y-111870000D01*
X198191986Y-111100891D01*
X198704725Y-111100891D01*
X199079817Y-111100891D01*
X204980183Y-111100891D01*
X205355275Y-111100891D01*
X205868014Y-111100891D01*
X205355275Y-111870000D01*
G37*
D11*
%TO.C,J4*%
X213250000Y-117600000D02*
X213250000Y-118850000D01*
X213250000Y-118850000D02*
X214500000Y-118850000D01*
X213540000Y-110940000D02*
X213540000Y-118560000D01*
X213540000Y-118560000D02*
X219510000Y-118560000D01*
X213550000Y-110950000D02*
X213550000Y-112750000D01*
X213550000Y-112750000D02*
X214300000Y-112750000D01*
X213550000Y-114250000D02*
X213550000Y-115250000D01*
X213550000Y-115250000D02*
X214300000Y-115250000D01*
X213550000Y-116750000D02*
X213550000Y-118550000D01*
X213550000Y-118550000D02*
X214300000Y-118550000D01*
X214300000Y-110950000D02*
X213550000Y-110950000D01*
X214300000Y-112750000D02*
X214300000Y-110950000D01*
X214300000Y-114250000D02*
X213550000Y-114250000D01*
X214300000Y-115250000D02*
X214300000Y-114250000D01*
X214300000Y-116750000D02*
X213550000Y-116750000D01*
X214300000Y-118550000D02*
X214300000Y-116750000D01*
X215800000Y-110950000D02*
X215800000Y-111700000D01*
X215800000Y-111700000D02*
X218750000Y-111700000D01*
X215800000Y-117800000D02*
X218750000Y-117800000D01*
X215800000Y-118550000D02*
X215800000Y-117800000D01*
X218750000Y-111700000D02*
X218750000Y-114750000D01*
X218750000Y-117800000D02*
X218750000Y-114750000D01*
X219510000Y-110940000D02*
X213540000Y-110940000D01*
X219510000Y-118560000D02*
X219510000Y-110940000D01*
%TO.C,C7*%
X194628000Y-125578748D02*
X194628000Y-126101252D01*
X196098000Y-125578748D02*
X196098000Y-126101252D01*
D12*
%TO.C,kibuzzard-675B2D1E*%
G36*
X211975934Y-129780154D02*
G01*
X212017253Y-129805648D01*
X212043626Y-129848286D01*
X212054615Y-129898835D01*
X212057692Y-129986308D01*
X212057692Y-130111143D01*
X211822088Y-130100593D01*
X211822088Y-129942352D01*
X211834396Y-129837736D01*
X211872198Y-129788066D01*
X211930220Y-129772681D01*
X211975934Y-129780154D01*
G37*
G36*
X212472637Y-129773121D02*
G01*
X212515714Y-129805209D01*
X212541209Y-129864110D01*
X212549121Y-129962571D01*
X212549121Y-130131363D01*
X212295934Y-130120813D01*
X212295934Y-129935319D01*
X212302527Y-129847407D01*
X212324066Y-129799934D01*
X212360989Y-129770923D01*
X212411978Y-129761253D01*
X212472637Y-129773121D01*
G37*
G36*
X212267473Y-124516528D02*
G01*
X212357912Y-124548506D01*
X212436374Y-124600813D01*
X212495055Y-124672462D01*
X212531648Y-124757846D01*
X212543846Y-124851363D01*
X212532967Y-124940374D01*
X212500330Y-125024550D01*
X212448352Y-125095868D01*
X212379451Y-125146308D01*
X212298132Y-125176308D01*
X212208901Y-125186308D01*
X212110989Y-125175319D01*
X212019451Y-125142352D01*
X211940769Y-125088945D01*
X211881429Y-125016637D01*
X211844176Y-124930044D01*
X211831758Y-124833780D01*
X211842747Y-124742791D01*
X211875714Y-124661473D01*
X211928571Y-124594220D01*
X211999231Y-124545429D01*
X212082418Y-124515758D01*
X212172857Y-124505868D01*
X212267473Y-124516528D01*
G37*
G36*
X212962894Y-123983670D02*
G01*
X212962894Y-124860154D01*
X212962894Y-126419714D01*
X212962894Y-127562571D01*
X212962894Y-128638615D01*
X212962894Y-130503231D01*
X212962894Y-130503381D01*
X212959172Y-130579138D01*
X212948043Y-130654165D01*
X212929613Y-130727740D01*
X212904061Y-130799154D01*
X212871631Y-130867720D01*
X212832638Y-130932778D01*
X212787455Y-130993699D01*
X212736518Y-131049899D01*
X212680319Y-131100836D01*
X212619397Y-131146018D01*
X212554340Y-131185012D01*
X212485774Y-131217441D01*
X212414359Y-131242994D01*
X212340784Y-131261424D01*
X212265757Y-131272553D01*
X212190000Y-131276275D01*
X212114243Y-131272553D01*
X212039216Y-131261424D01*
X211965641Y-131242994D01*
X211894226Y-131217441D01*
X211825660Y-131185012D01*
X211760603Y-131146018D01*
X211699681Y-131100836D01*
X211643482Y-131049899D01*
X211592545Y-130993699D01*
X211547362Y-130932778D01*
X211508369Y-130867720D01*
X211475939Y-130799154D01*
X211450387Y-130727740D01*
X211431957Y-130654165D01*
X211420828Y-130579138D01*
X211417106Y-130503381D01*
X211417106Y-130503231D01*
X211417106Y-129826308D01*
X211584725Y-129826308D01*
X211585714Y-129926747D01*
X211588681Y-130045209D01*
X211591648Y-130164769D01*
X211592637Y-130268506D01*
X211591978Y-130349165D01*
X211590000Y-130454000D01*
X211699011Y-130453121D01*
X211788388Y-130454049D01*
X211912344Y-130456833D01*
X212070879Y-130461473D01*
X212234200Y-130467089D01*
X212372515Y-130472803D01*
X212485824Y-130478615D01*
X212568852Y-130484086D01*
X212670244Y-130492291D01*
X212790000Y-130503231D01*
X212789121Y-130332681D01*
X212790000Y-130101473D01*
X212789121Y-129969714D01*
X212786484Y-129845209D01*
X212782088Y-129743121D01*
X212775934Y-129678615D01*
X212740769Y-129568725D01*
X212679231Y-129481692D01*
X212578132Y-129420154D01*
X212452418Y-129398176D01*
X212360549Y-129410923D01*
X212281868Y-129449165D01*
X212224286Y-129506747D01*
X212191758Y-129566967D01*
X212173736Y-129641692D01*
X212147363Y-129567407D01*
X212110440Y-129510703D01*
X212051099Y-129458396D01*
X211969780Y-129422352D01*
X211873956Y-129409604D01*
X211753516Y-129431582D01*
X211669121Y-129485209D01*
X211619011Y-129562132D01*
X211590879Y-129669824D01*
X211586264Y-129732242D01*
X211584725Y-129826308D01*
X211417106Y-129826308D01*
X211417106Y-127972242D01*
X211590000Y-127972242D01*
X211591758Y-128150703D01*
X211591319Y-128241253D01*
X211590000Y-128359934D01*
X211733516Y-128364550D01*
X211859890Y-128369604D01*
X211987363Y-128377077D01*
X212127143Y-128387187D01*
X212267802Y-128399055D01*
X212346923Y-128408286D01*
X212424286Y-128429385D01*
X212477033Y-128461912D01*
X212507802Y-128497077D01*
X212529780Y-128548945D01*
X212539451Y-128628066D01*
X212523626Y-128722571D01*
X212476593Y-128793341D01*
X212400549Y-128828506D01*
X212288901Y-128838176D01*
X212161429Y-128834220D01*
X212065824Y-128829275D01*
X211963626Y-128822352D01*
X211590000Y-128795978D01*
X211591319Y-128901253D01*
X211591758Y-128983231D01*
X211591319Y-129059714D01*
X211590000Y-129176637D01*
X211937253Y-129192462D01*
X212031538Y-129197517D01*
X212099890Y-129202132D01*
X212240549Y-129213561D01*
X212363187Y-129221473D01*
X212426923Y-129223231D01*
X212543846Y-129207407D01*
X212626923Y-129168725D01*
X212695055Y-129098396D01*
X212757912Y-128980593D01*
X212781538Y-128908725D01*
X212798791Y-128828506D01*
X212809341Y-128735319D01*
X212812857Y-128638615D01*
X212808242Y-128529385D01*
X212794396Y-128421473D01*
X212769451Y-128319934D01*
X212731538Y-128229824D01*
X212684396Y-128155539D01*
X212631758Y-128101473D01*
X212501209Y-128038615D01*
X212399121Y-128023561D01*
X212243187Y-128016198D01*
X212214176Y-128015319D01*
X211590000Y-127972242D01*
X211417106Y-127972242D01*
X211417106Y-126750264D01*
X211590000Y-126750264D01*
X211590879Y-126864550D01*
X211590879Y-127075539D01*
X211591758Y-127292681D01*
X211591648Y-127453670D01*
X211591319Y-127604330D01*
X211590769Y-127744659D01*
X211590000Y-127874659D01*
X211679451Y-127876857D01*
X211761429Y-127879934D01*
X211859011Y-127884330D01*
X211849341Y-127509824D01*
X211994270Y-127513054D01*
X212135683Y-127517718D01*
X212273579Y-127523818D01*
X212407959Y-127531354D01*
X212538823Y-127540324D01*
X212666170Y-127550730D01*
X212790000Y-127562571D01*
X212788681Y-127429824D01*
X212788242Y-127360374D01*
X212788681Y-127292681D01*
X212790000Y-127174000D01*
X212663077Y-127172681D01*
X212502088Y-127168725D01*
X212382186Y-127164720D01*
X212259841Y-127159739D01*
X212135055Y-127153780D01*
X211997253Y-127145209D01*
X211847582Y-127133561D01*
X211847582Y-127072022D01*
X211848559Y-126983231D01*
X211851490Y-126879788D01*
X211856374Y-126761692D01*
X211788681Y-126760374D01*
X211675275Y-126755539D01*
X211590000Y-126750264D01*
X211417106Y-126750264D01*
X211417106Y-125607407D01*
X211590000Y-125607407D01*
X211590879Y-125721692D01*
X211590879Y-125932681D01*
X211591758Y-126149824D01*
X211591648Y-126310813D01*
X211591319Y-126461473D01*
X211590769Y-126601802D01*
X211590000Y-126731802D01*
X211679451Y-126734000D01*
X211761429Y-126737077D01*
X211859011Y-126741473D01*
X211849341Y-126366967D01*
X211994270Y-126370197D01*
X212135683Y-126374861D01*
X212273579Y-126380961D01*
X212407959Y-126388497D01*
X212538823Y-126397467D01*
X212666170Y-126407873D01*
X212790000Y-126419714D01*
X212788681Y-126286967D01*
X212788242Y-126217517D01*
X212788681Y-126149824D01*
X212790000Y-126031143D01*
X212663077Y-126029824D01*
X212502088Y-126025868D01*
X212382186Y-126021863D01*
X212259841Y-126016882D01*
X212135055Y-126010923D01*
X211997253Y-126002352D01*
X211847582Y-125990703D01*
X211847582Y-125929165D01*
X211848559Y-125840374D01*
X211851490Y-125736930D01*
X211856374Y-125618835D01*
X211788681Y-125617517D01*
X211675275Y-125612681D01*
X211590000Y-125607407D01*
X211417106Y-125607407D01*
X211417106Y-124817956D01*
X211567143Y-124817956D01*
X211576227Y-124959543D01*
X211603480Y-125091265D01*
X211648901Y-125213121D01*
X211710488Y-125320471D01*
X211786239Y-125408676D01*
X211876154Y-125477736D01*
X211978376Y-125527309D01*
X212091050Y-125557053D01*
X212214176Y-125566967D01*
X212339231Y-125556418D01*
X212452418Y-125524769D01*
X212554725Y-125467956D01*
X212647143Y-125381912D01*
X212722527Y-125272352D01*
X212773736Y-125144989D01*
X212803077Y-125005648D01*
X212812857Y-124860154D01*
X212802857Y-124712681D01*
X212772857Y-124570923D01*
X212721319Y-124441692D01*
X212646703Y-124331802D01*
X212551209Y-124243341D01*
X212437033Y-124178396D01*
X212307473Y-124138506D01*
X212165824Y-124125209D01*
X212033297Y-124137297D01*
X211917033Y-124173561D01*
X211815165Y-124234220D01*
X211725824Y-124319495D01*
X211654066Y-124425209D01*
X211604945Y-124547187D01*
X211576593Y-124679934D01*
X211567143Y-124817956D01*
X211417106Y-124817956D01*
X211417106Y-122667626D01*
X211590000Y-122667626D01*
X211591319Y-122781912D01*
X211591758Y-122839934D01*
X211591319Y-122915758D01*
X211590000Y-123013121D01*
X211676252Y-123014244D01*
X211799035Y-123017614D01*
X211958352Y-123023231D01*
X212122747Y-123029922D01*
X212260769Y-123036515D01*
X212372418Y-123043011D01*
X212272198Y-123094879D01*
X211590000Y-123471143D01*
X211591319Y-123591363D01*
X211591758Y-123681253D01*
X211591319Y-123793780D01*
X211590000Y-123922132D01*
X211727143Y-123922132D01*
X211979451Y-123931802D01*
X212605385Y-123966088D01*
X212790000Y-123983670D01*
X212788681Y-123872022D01*
X212788242Y-123802571D01*
X212788681Y-123732462D01*
X212790000Y-123636418D01*
X212439231Y-123627626D01*
X212022527Y-123609165D01*
X212104286Y-123566747D01*
X212179011Y-123525648D01*
X212294176Y-123461253D01*
X212414615Y-123391143D01*
X212665165Y-123243451D01*
X212790000Y-123175758D01*
X212788681Y-123045648D01*
X212788242Y-122947187D01*
X212788681Y-122844110D01*
X212790000Y-122733561D01*
X212579890Y-122728286D01*
X211851978Y-122688725D01*
X211590000Y-122667626D01*
X211417106Y-122667626D01*
X211417106Y-122034659D01*
X211567143Y-122034659D01*
X211579011Y-122181473D01*
X211623407Y-122315099D01*
X211700769Y-122415319D01*
X211797033Y-122472022D01*
X211902088Y-122490923D01*
X211986923Y-122479055D01*
X212065604Y-122441253D01*
X212149121Y-122368725D01*
X212220330Y-122287846D01*
X212364505Y-122122571D01*
X212401868Y-122087407D01*
X212432637Y-122070703D01*
X212461209Y-122066308D01*
X212527582Y-122111582D01*
X212550000Y-122233341D01*
X212532857Y-122368286D01*
X212509011Y-122450593D01*
X212471758Y-122543670D01*
X212555079Y-122534098D01*
X212655006Y-122525307D01*
X212771538Y-122517297D01*
X212794493Y-122380838D01*
X212808266Y-122260984D01*
X212812857Y-122157736D01*
X212808242Y-122067736D01*
X212794396Y-121982352D01*
X212769011Y-121902681D01*
X212729780Y-121829824D01*
X212677253Y-121768286D01*
X212611978Y-121722571D01*
X212538462Y-121694220D01*
X212461209Y-121684769D01*
X212403626Y-121690923D01*
X212350440Y-121709824D01*
X212292418Y-121746308D01*
X212228242Y-121802571D01*
X212172857Y-121863231D01*
X212122747Y-121926528D01*
X212043187Y-122025868D01*
X211993956Y-122076857D01*
X211954835Y-122103231D01*
X211920549Y-122110264D01*
X211857253Y-122064989D01*
X211831758Y-121951143D01*
X211844505Y-121835978D01*
X211862198Y-121765648D01*
X211889780Y-121688286D01*
X211782198Y-121699055D01*
X211712637Y-121704989D01*
X211601429Y-121711143D01*
X211582381Y-121824843D01*
X211570952Y-121932681D01*
X211567143Y-122034659D01*
X211417106Y-122034659D01*
X211417106Y-121684769D01*
X211417106Y-121684619D01*
X211420828Y-121608862D01*
X211431957Y-121533835D01*
X211450387Y-121460260D01*
X211475939Y-121388846D01*
X211508369Y-121320280D01*
X211547362Y-121255222D01*
X211592545Y-121194301D01*
X211643482Y-121138101D01*
X211699681Y-121087164D01*
X211760603Y-121041982D01*
X211825660Y-121002988D01*
X211894226Y-120970559D01*
X211965641Y-120945006D01*
X212039216Y-120926576D01*
X212114243Y-120915447D01*
X212190000Y-120911725D01*
X212265757Y-120915447D01*
X212340784Y-120926576D01*
X212414359Y-120945006D01*
X212485774Y-120970559D01*
X212554340Y-121002988D01*
X212619397Y-121041982D01*
X212680319Y-121087164D01*
X212736518Y-121138101D01*
X212787455Y-121194301D01*
X212832638Y-121255222D01*
X212871631Y-121320280D01*
X212904061Y-121388846D01*
X212929613Y-121460260D01*
X212948043Y-121533835D01*
X212959172Y-121608862D01*
X212962894Y-121684619D01*
X212962894Y-121684769D01*
X212962894Y-122157736D01*
X212962894Y-123983670D01*
G37*
D11*
%TO.C,BT1*%
X181043000Y-95327000D02*
X181043000Y-96877000D01*
X181043000Y-103027000D02*
X181043000Y-101477000D01*
X182593000Y-104177000D02*
X182593000Y-106177000D01*
X183593000Y-105177000D02*
X181593000Y-105177000D01*
X184243000Y-90827000D02*
X184243000Y-95327000D01*
X184243000Y-90827000D02*
X206943000Y-90827000D01*
X184243000Y-95327000D02*
X181043000Y-95327000D01*
X184243000Y-103027000D02*
X181043000Y-103027000D01*
X184243000Y-105727000D02*
X184243000Y-103027000D01*
X186043000Y-107527000D02*
X184243000Y-105727000D01*
X206943000Y-90827000D02*
X206943000Y-95327000D01*
X206943000Y-95327000D02*
X210143000Y-95327000D01*
X206943000Y-103027000D02*
X210143000Y-103027000D01*
X206943000Y-107527000D02*
X186043000Y-107527000D01*
X206943000Y-107527000D02*
X206943000Y-103027000D01*
X210143000Y-95327000D02*
X210143000Y-96877000D01*
X210143000Y-103027000D02*
X210143000Y-101477000D01*
%TO.C,J7*%
X198175000Y-111041000D02*
X198175000Y-109711000D01*
X199505000Y-111041000D02*
X198175000Y-111041000D01*
X200775000Y-108381000D02*
X205915000Y-108381000D01*
X200775000Y-111041000D02*
X200775000Y-108381000D01*
X200775000Y-111041000D02*
X205915000Y-111041000D01*
X205915000Y-111041000D02*
X205915000Y-108381000D01*
%TO.C,R2*%
X203835000Y-130639064D02*
X203835000Y-130184936D01*
X205305000Y-130639064D02*
X205305000Y-130184936D01*
%TO.C,C2*%
X206005748Y-123629500D02*
X206528252Y-123629500D01*
X206005748Y-125099500D02*
X206528252Y-125099500D01*
D12*
%TO.C,kibuzzard-675B2D7A*%
G36*
X212940037Y-105029517D02*
G01*
X212940037Y-105642264D01*
X212940037Y-107324022D01*
X212940037Y-107324172D01*
X212925625Y-107470497D01*
X212882943Y-107611199D01*
X212813633Y-107740870D01*
X212720356Y-107854528D01*
X212606698Y-107947805D01*
X212477027Y-108017115D01*
X212336325Y-108059797D01*
X212190000Y-108074209D01*
X212043675Y-108059797D01*
X211902973Y-108017115D01*
X211773302Y-107947805D01*
X211659644Y-107854528D01*
X211566367Y-107740870D01*
X211497057Y-107611199D01*
X211454375Y-107470497D01*
X211439963Y-107324172D01*
X211439963Y-107324022D01*
X211439963Y-105825121D01*
X211590000Y-105825121D01*
X211591319Y-105961385D01*
X211591758Y-106064242D01*
X211591319Y-106192154D01*
X211590000Y-106322703D01*
X211710000Y-106357429D01*
X211770989Y-106378857D01*
X211875714Y-106417648D01*
X211995495Y-106461165D01*
X212101648Y-106496769D01*
X212210659Y-106530176D01*
X212339011Y-106567099D01*
X212167253Y-106600176D01*
X212054615Y-106623802D01*
X211963846Y-106645780D01*
X211857692Y-106673912D01*
X211762527Y-106699297D01*
X211704725Y-106713033D01*
X211590000Y-106732374D01*
X211591319Y-106869517D01*
X211591758Y-106966220D01*
X211591319Y-107075890D01*
X211590000Y-107220286D01*
X211996154Y-107247539D01*
X212612418Y-107302044D01*
X212790000Y-107324022D01*
X212788681Y-107228198D01*
X212788242Y-107165780D01*
X212788681Y-107110396D01*
X212790000Y-107011055D01*
X212677473Y-107008418D01*
X212178132Y-106979407D01*
X211934615Y-106957429D01*
X212011978Y-106943363D01*
X212048901Y-106935451D01*
X212306484Y-106872154D01*
X212790000Y-106764022D01*
X212788681Y-106666000D01*
X212788242Y-106596989D01*
X212788681Y-106536110D01*
X212790000Y-106439626D01*
X212290659Y-106274352D01*
X211932857Y-106159187D01*
X212033077Y-106157429D01*
X212112051Y-106158601D01*
X212238791Y-106162117D01*
X212413297Y-106167978D01*
X212587411Y-106174620D01*
X212712979Y-106180481D01*
X212790000Y-106185561D01*
X212788681Y-106094791D01*
X212788242Y-106019407D01*
X212788681Y-105955451D01*
X212790000Y-105856769D01*
X212672198Y-105858528D01*
X212577692Y-105857813D01*
X212450659Y-105855670D01*
X212291099Y-105852099D01*
X212099011Y-105847099D01*
X211987418Y-105843747D01*
X211865385Y-105838967D01*
X211732912Y-105832758D01*
X211590000Y-105825121D01*
X211439963Y-105825121D01*
X211439963Y-105197429D01*
X211590000Y-105197429D01*
X211591319Y-105327319D01*
X211591758Y-105386440D01*
X211591319Y-105463802D01*
X211590000Y-105592154D01*
X211703407Y-105591275D01*
X211803654Y-105592072D01*
X211914066Y-105594462D01*
X212034643Y-105598445D01*
X212165385Y-105604022D01*
X212306291Y-105611192D01*
X212457363Y-105619956D01*
X212618599Y-105630313D01*
X212790000Y-105642264D01*
X212788681Y-105506440D01*
X212788242Y-105426000D01*
X212790000Y-105245780D01*
X212682210Y-105245194D01*
X212560452Y-105243436D01*
X212424725Y-105240506D01*
X212315687Y-105237429D01*
X212202637Y-105233473D01*
X212085577Y-105228637D01*
X211964505Y-105222923D01*
X211844359Y-105215793D01*
X211719524Y-105207294D01*
X211590000Y-105197429D01*
X211439963Y-105197429D01*
X211439963Y-103713473D01*
X211590000Y-103713473D01*
X211591319Y-103827758D01*
X211591758Y-103885780D01*
X211591319Y-103961605D01*
X211590000Y-104058967D01*
X211676252Y-104060090D01*
X211799035Y-104063460D01*
X211958352Y-104069077D01*
X212122747Y-104075768D01*
X212260769Y-104082362D01*
X212372418Y-104088857D01*
X212272198Y-104140725D01*
X211590000Y-104516989D01*
X211591319Y-104637209D01*
X211591758Y-104727099D01*
X211591319Y-104839626D01*
X211590000Y-104967978D01*
X211727143Y-104967978D01*
X211979451Y-104977648D01*
X212605385Y-105011934D01*
X212790000Y-105029517D01*
X212788681Y-104917868D01*
X212788242Y-104848418D01*
X212788681Y-104778308D01*
X212790000Y-104682264D01*
X212439231Y-104673473D01*
X212022527Y-104655011D01*
X212104286Y-104612594D01*
X212179011Y-104571495D01*
X212294176Y-104507099D01*
X212414615Y-104436989D01*
X212665165Y-104289297D01*
X212790000Y-104221605D01*
X212788681Y-104091495D01*
X212788242Y-103993033D01*
X212788681Y-103889956D01*
X212790000Y-103779407D01*
X212579890Y-103774132D01*
X211851978Y-103734572D01*
X211590000Y-103713473D01*
X211439963Y-103713473D01*
X211439963Y-103207978D01*
X212471758Y-103207978D01*
X212473736Y-103308198D01*
X212474396Y-103360945D01*
X212471758Y-103542044D01*
X212596203Y-103545756D01*
X212702283Y-103549858D01*
X212790000Y-103554352D01*
X212788681Y-103429517D01*
X212788242Y-103376769D01*
X212790000Y-103223802D01*
X212655788Y-103218137D01*
X212549707Y-103212862D01*
X212471758Y-103207978D01*
X211439963Y-103207978D01*
X211439963Y-103207828D01*
X211454375Y-103061503D01*
X211497057Y-102920802D01*
X211566367Y-102791130D01*
X211659644Y-102677472D01*
X211773302Y-102584195D01*
X211902973Y-102514885D01*
X212043675Y-102472203D01*
X212190000Y-102457791D01*
X212336325Y-102472203D01*
X212477027Y-102514885D01*
X212606698Y-102584195D01*
X212720356Y-102677472D01*
X212813633Y-102791130D01*
X212882943Y-102920802D01*
X212925625Y-103061503D01*
X212940037Y-103207828D01*
X212940037Y-103207978D01*
X212940037Y-103554352D01*
X212940037Y-105029517D01*
G37*
D11*
%TO.C,D1*%
X192053000Y-124840000D02*
X192053000Y-127700000D01*
X192053000Y-127700000D02*
X193973000Y-127700000D01*
X193973000Y-127700000D02*
X193973000Y-124840000D01*
D12*
%TO.C,kibuzzard-6786B9A9*%
G36*
X192558355Y-87118352D02*
G01*
X192626121Y-87145824D01*
X192682165Y-87189872D01*
X192722824Y-87248755D01*
X192747549Y-87318077D01*
X192755791Y-87393443D01*
X192746908Y-87472289D01*
X192720260Y-87547656D01*
X192676670Y-87613040D01*
X192616963Y-87661941D01*
X192545810Y-87692436D01*
X192467879Y-87702601D01*
X192393703Y-87693535D01*
X192323557Y-87666337D01*
X192264125Y-87623022D01*
X192222092Y-87565604D01*
X192197092Y-87497839D01*
X192188758Y-87423480D01*
X192197916Y-87341886D01*
X192225388Y-87265604D01*
X192269894Y-87200037D01*
X192330150Y-87150586D01*
X192402311Y-87119542D01*
X192482531Y-87109194D01*
X192558355Y-87118352D01*
G37*
G36*
X193227952Y-85242894D02*
G01*
X193295718Y-85270366D01*
X193351762Y-85314414D01*
X193392421Y-85373297D01*
X193417147Y-85442619D01*
X193425388Y-85517985D01*
X193416505Y-85596832D01*
X193389857Y-85672198D01*
X193346267Y-85737582D01*
X193286560Y-85786484D01*
X193215407Y-85816978D01*
X193137476Y-85827143D01*
X193063300Y-85818077D01*
X192993154Y-85790879D01*
X192933722Y-85747564D01*
X192891689Y-85690147D01*
X192866689Y-85622381D01*
X192858355Y-85548022D01*
X192867513Y-85466429D01*
X192894985Y-85390147D01*
X192939491Y-85324579D01*
X192999747Y-85275128D01*
X193071908Y-85244084D01*
X193152128Y-85233736D01*
X193227952Y-85242894D01*
G37*
G36*
X203312934Y-87118352D02*
G01*
X203380700Y-87145824D01*
X203436744Y-87189872D01*
X203477403Y-87248755D01*
X203502128Y-87318077D01*
X203510370Y-87393443D01*
X203501487Y-87472289D01*
X203474839Y-87547656D01*
X203431249Y-87613040D01*
X203371542Y-87661941D01*
X203300388Y-87692436D01*
X203222458Y-87702601D01*
X203148282Y-87693535D01*
X203078136Y-87666337D01*
X203018703Y-87623022D01*
X202976670Y-87565604D01*
X202951670Y-87497839D01*
X202943337Y-87423480D01*
X202952495Y-87341886D01*
X202979967Y-87265604D01*
X203024473Y-87200037D01*
X203084729Y-87150586D01*
X203156890Y-87119542D01*
X203237110Y-87109194D01*
X203312934Y-87118352D01*
G37*
G36*
X206264460Y-88176838D02*
G01*
X206014399Y-88176838D01*
X206007806Y-88176838D01*
X204949930Y-88176838D01*
X204492788Y-88176838D01*
X203215132Y-88176838D01*
X201758722Y-88176838D01*
X201308172Y-88176838D01*
X199332348Y-88176838D01*
X198344070Y-88176838D01*
X197615132Y-88176838D01*
X196402678Y-88176838D01*
X195004875Y-88176838D01*
X194292055Y-88176838D01*
X193182897Y-88176838D01*
X193130150Y-88176838D01*
X192460553Y-88176838D01*
X191026121Y-88176838D01*
X190679601Y-88176838D01*
X190429540Y-88176838D01*
X189405437Y-88176838D01*
X189786170Y-86907729D01*
X190679601Y-86907729D01*
X190820260Y-87303333D01*
X190999015Y-87818352D01*
X191026121Y-87907729D01*
X191140590Y-87906630D01*
X191211469Y-87906264D01*
X191281799Y-87906630D01*
X191387293Y-87907729D01*
X191430516Y-87814139D01*
X191469344Y-87734103D01*
X191623802Y-87427875D01*
X191871542Y-87427875D01*
X191880333Y-87532088D01*
X191906707Y-87626410D01*
X191954051Y-87711667D01*
X192025755Y-87788681D01*
X192117055Y-87851502D01*
X192223190Y-87894176D01*
X192339308Y-87918626D01*
X192460553Y-87926777D01*
X192583447Y-87918443D01*
X192634074Y-87907729D01*
X193182897Y-87907729D01*
X193275205Y-87907088D01*
X193374839Y-87906630D01*
X193481799Y-87906355D01*
X193596084Y-87906264D01*
X193714359Y-87906427D01*
X193836703Y-87906915D01*
X193963117Y-87907729D01*
X193979234Y-87686484D01*
X193902881Y-87689333D01*
X193862751Y-87690038D01*
X193805689Y-87691042D01*
X193687659Y-87691612D01*
X193627586Y-87691062D01*
X193523557Y-87689414D01*
X193526487Y-87587582D01*
X193548465Y-87172930D01*
X193551185Y-87131905D01*
X194023923Y-87131905D01*
X194336011Y-87123846D01*
X194333320Y-87244621D01*
X194329433Y-87362465D01*
X194324349Y-87477378D01*
X194318070Y-87589362D01*
X194310594Y-87698414D01*
X194301923Y-87804537D01*
X194292055Y-87907729D01*
X194402678Y-87906630D01*
X194460553Y-87906264D01*
X194516963Y-87906630D01*
X194615864Y-87907729D01*
X195004875Y-87907729D01*
X195084729Y-87906630D01*
X195136744Y-87906264D01*
X195182897Y-87906630D01*
X195265681Y-87907729D01*
X195267879Y-87813956D01*
X195292055Y-87397839D01*
X195310370Y-87194908D01*
X195322092Y-87259377D01*
X195328685Y-87290147D01*
X195381432Y-87504799D01*
X195471542Y-87907729D01*
X195553227Y-87906630D01*
X195610736Y-87906264D01*
X195661469Y-87906630D01*
X195741872Y-87907729D01*
X195879601Y-87491612D01*
X195975571Y-87193443D01*
X195977037Y-87276960D01*
X195976060Y-87342772D01*
X195973129Y-87448388D01*
X195968245Y-87593810D01*
X195962710Y-87738905D01*
X195957826Y-87843545D01*
X195953593Y-87907729D01*
X196029234Y-87906630D01*
X196092055Y-87906264D01*
X196145352Y-87906630D01*
X196227586Y-87907729D01*
X196402678Y-87907729D01*
X196506707Y-87906996D01*
X196829051Y-87906264D01*
X196933493Y-87906355D01*
X197033630Y-87906630D01*
X197129463Y-87907088D01*
X197220993Y-87907729D01*
X197227586Y-87793810D01*
X197235645Y-87683553D01*
X197122824Y-87689414D01*
X196971176Y-87693077D01*
X196873923Y-87694725D01*
X196816597Y-87695275D01*
X196732348Y-87695275D01*
X196741139Y-87517253D01*
X196860370Y-87513407D01*
X196967513Y-87512125D01*
X197050297Y-87512491D01*
X197162385Y-87513590D01*
X197169161Y-87392894D01*
X197176304Y-87290147D01*
X197033081Y-87293993D01*
X196957989Y-87295275D01*
X196850114Y-87294725D01*
X196756524Y-87293077D01*
X196764969Y-87131905D01*
X197347000Y-87131905D01*
X197659088Y-87123846D01*
X197656397Y-87244621D01*
X197652509Y-87362465D01*
X197647426Y-87477378D01*
X197641147Y-87589362D01*
X197633671Y-87698414D01*
X197625000Y-87804537D01*
X197615132Y-87907729D01*
X197725755Y-87906630D01*
X197783630Y-87906264D01*
X197840040Y-87906630D01*
X197938941Y-87907729D01*
X198344070Y-87907729D01*
X198448099Y-87906996D01*
X198770443Y-87906264D01*
X198874885Y-87906355D01*
X198975022Y-87906630D01*
X199070855Y-87907088D01*
X199162385Y-87907729D01*
X199332348Y-87907729D01*
X199425938Y-87906630D01*
X199485462Y-87906264D01*
X199543520Y-87906630D01*
X199644436Y-87907729D01*
X199645855Y-87803196D01*
X199647916Y-87697656D01*
X199650617Y-87591108D01*
X199653960Y-87483553D01*
X199659088Y-87346801D01*
X199664705Y-87224701D01*
X199670810Y-87117253D01*
X199734912Y-87115421D01*
X199788026Y-87114322D01*
X199899747Y-87126044D01*
X199952861Y-87161575D01*
X199969711Y-87216886D01*
X199947366Y-87287949D01*
X199881432Y-87337766D01*
X199784363Y-87353883D01*
X199706707Y-87346557D01*
X199782165Y-87553883D01*
X199812385Y-87637216D01*
X199834179Y-87699670D01*
X199855425Y-87766337D01*
X199881432Y-87853333D01*
X199897916Y-87907729D01*
X200001212Y-87906630D01*
X200070810Y-87906264D01*
X200132348Y-87906630D01*
X200233447Y-87907729D01*
X200210004Y-87852784D01*
X200111835Y-87638132D01*
X200077403Y-87559011D01*
X200039308Y-87465971D01*
X200104418Y-87437674D01*
X200108768Y-87435201D01*
X200741139Y-87435201D01*
X200750297Y-87543260D01*
X200777769Y-87640330D01*
X200826579Y-87725952D01*
X200899747Y-87799670D01*
X200989308Y-87857912D01*
X201087293Y-87897106D01*
X201193612Y-87919359D01*
X201308172Y-87926777D01*
X201393968Y-87924253D01*
X201487252Y-87916683D01*
X201558769Y-87907729D01*
X201758722Y-87907729D01*
X201851029Y-87907088D01*
X201950663Y-87906630D01*
X202057623Y-87906355D01*
X202171908Y-87906264D01*
X202290183Y-87906427D01*
X202412527Y-87906915D01*
X202538941Y-87907729D01*
X202555059Y-87686484D01*
X202478705Y-87689333D01*
X202381514Y-87691042D01*
X202263484Y-87691612D01*
X202203410Y-87691062D01*
X202099381Y-87689414D01*
X202102311Y-87587582D01*
X202110776Y-87427875D01*
X202626121Y-87427875D01*
X202634912Y-87532088D01*
X202661286Y-87626410D01*
X202708630Y-87711667D01*
X202780333Y-87788681D01*
X202871634Y-87851502D01*
X202977769Y-87894176D01*
X203093886Y-87918626D01*
X203215132Y-87926777D01*
X203338026Y-87918443D01*
X203456158Y-87893443D01*
X203563850Y-87850495D01*
X203655425Y-87788315D01*
X203729143Y-87708736D01*
X203783264Y-87613590D01*
X203816505Y-87505623D01*
X203823116Y-87435201D01*
X203925755Y-87435201D01*
X203934912Y-87543260D01*
X203962385Y-87640330D01*
X204011194Y-87725952D01*
X204084363Y-87799670D01*
X204173923Y-87857912D01*
X204271908Y-87897106D01*
X204378227Y-87919359D01*
X204492788Y-87926777D01*
X204578583Y-87924253D01*
X204671868Y-87916683D01*
X204743384Y-87907729D01*
X204949930Y-87907729D01*
X205058905Y-87906630D01*
X205117696Y-87906264D01*
X205276670Y-87907729D01*
X205294253Y-87454982D01*
X205298955Y-87380256D01*
X205316963Y-87380256D01*
X205399073Y-87513179D01*
X205471337Y-87632388D01*
X205533755Y-87737883D01*
X205586326Y-87829663D01*
X205629051Y-87907729D01*
X205748648Y-87906630D01*
X205827586Y-87906264D01*
X206007806Y-87907729D01*
X205701579Y-87463040D01*
X205647366Y-87376593D01*
X205705242Y-87298205D01*
X206014399Y-86907729D01*
X205889674Y-86908828D01*
X205839308Y-86909194D01*
X205768978Y-86908828D01*
X205654692Y-86907729D01*
X205613667Y-86970733D01*
X205481066Y-87156813D01*
X205316963Y-87380256D01*
X205298955Y-87380256D01*
X205328685Y-86907729D01*
X205225388Y-86908828D01*
X205170443Y-86909194D01*
X205105242Y-86908828D01*
X205001945Y-86907729D01*
X205001945Y-86970733D01*
X205000968Y-87036178D01*
X204998038Y-87127021D01*
X204993154Y-87243260D01*
X204987018Y-87374716D01*
X204981066Y-87491429D01*
X204975297Y-87593397D01*
X204969711Y-87680623D01*
X204961835Y-87782454D01*
X204949930Y-87907729D01*
X204743384Y-87907729D01*
X204772641Y-87904066D01*
X204789491Y-87784286D01*
X204810736Y-87663773D01*
X204726212Y-87684011D01*
X204657256Y-87696374D01*
X204544070Y-87704799D01*
X204456432Y-87696648D01*
X204383996Y-87672198D01*
X204325846Y-87632821D01*
X204281066Y-87579890D01*
X204252495Y-87514231D01*
X204242971Y-87436667D01*
X204254326Y-87349121D01*
X204288392Y-87269634D01*
X204342238Y-87203150D01*
X204412934Y-87154615D01*
X204497000Y-87124945D01*
X204590956Y-87115055D01*
X204689491Y-87122381D01*
X204750755Y-87133004D01*
X204828319Y-87150220D01*
X204823190Y-87066703D01*
X204818795Y-86978059D01*
X204817330Y-86916520D01*
X204716556Y-86901054D01*
X204627179Y-86891775D01*
X204549198Y-86888681D01*
X204433081Y-86896282D01*
X204320626Y-86919084D01*
X204214491Y-86959560D01*
X204117330Y-87020183D01*
X204035462Y-87099670D01*
X203975205Y-87196740D01*
X203938117Y-87309286D01*
X203925755Y-87435201D01*
X203823116Y-87435201D01*
X203827586Y-87387582D01*
X203817513Y-87277143D01*
X203787293Y-87180256D01*
X203736744Y-87095366D01*
X203665681Y-87020916D01*
X203577586Y-86961117D01*
X203475938Y-86920183D01*
X203365315Y-86896557D01*
X203250297Y-86888681D01*
X203132307Y-86896252D01*
X203022539Y-86918962D01*
X202920993Y-86956813D01*
X202831534Y-87008136D01*
X202758030Y-87071262D01*
X202700480Y-87146190D01*
X202659169Y-87231376D01*
X202634383Y-87325271D01*
X202626121Y-87427875D01*
X202110776Y-87427875D01*
X202124289Y-87172930D01*
X202141872Y-86907729D01*
X202055791Y-86908828D01*
X201992421Y-86909194D01*
X201909821Y-86908828D01*
X201815864Y-86907729D01*
X201815010Y-86999182D01*
X201812446Y-87106508D01*
X201808172Y-87229707D01*
X201803845Y-87328219D01*
X201798557Y-87427051D01*
X201792307Y-87526204D01*
X201785095Y-87625678D01*
X201778583Y-87705531D01*
X201769792Y-87799548D01*
X201758722Y-87907729D01*
X201558769Y-87907729D01*
X201588026Y-87904066D01*
X201604875Y-87784286D01*
X201626121Y-87663773D01*
X201541597Y-87684011D01*
X201472641Y-87696374D01*
X201359454Y-87704799D01*
X201271817Y-87696648D01*
X201199381Y-87672198D01*
X201141231Y-87632821D01*
X201096451Y-87579890D01*
X201067879Y-87514231D01*
X201058355Y-87436667D01*
X201069711Y-87349121D01*
X201103777Y-87269634D01*
X201157623Y-87203150D01*
X201228319Y-87154615D01*
X201312385Y-87124945D01*
X201406341Y-87115055D01*
X201504875Y-87122381D01*
X201566139Y-87133004D01*
X201643703Y-87150220D01*
X201638575Y-87066703D01*
X201634179Y-86978059D01*
X201632714Y-86916520D01*
X201531941Y-86901054D01*
X201442564Y-86891775D01*
X201364582Y-86888681D01*
X201248465Y-86896282D01*
X201136011Y-86919084D01*
X201029875Y-86959560D01*
X200932714Y-87020183D01*
X200850846Y-87099670D01*
X200790590Y-87196740D01*
X200753502Y-87309286D01*
X200741139Y-87435201D01*
X200108768Y-87435201D01*
X200153227Y-87409927D01*
X200220626Y-87344725D01*
X200259821Y-87264139D01*
X200272275Y-87172198D01*
X200260919Y-87089780D01*
X200229051Y-87022747D01*
X200177769Y-86971099D01*
X200101945Y-86931905D01*
X200001945Y-86910659D01*
X199923557Y-86905165D01*
X199834912Y-86903333D01*
X199753960Y-86904158D01*
X199670810Y-86906630D01*
X199592971Y-86909103D01*
X199527952Y-86909927D01*
X199462751Y-86909377D01*
X199379967Y-86907729D01*
X199379234Y-87012582D01*
X199377037Y-87148388D01*
X199374757Y-87247574D01*
X199371827Y-87343423D01*
X199368245Y-87435934D01*
X199361835Y-87563956D01*
X199354326Y-87675495D01*
X199344802Y-87785201D01*
X199332348Y-87907729D01*
X199162385Y-87907729D01*
X199168978Y-87793810D01*
X199177037Y-87683553D01*
X199064216Y-87689414D01*
X198912568Y-87693077D01*
X198815315Y-87694725D01*
X198757989Y-87695275D01*
X198673740Y-87695275D01*
X198682531Y-87517253D01*
X198801762Y-87513407D01*
X198908905Y-87512125D01*
X198991689Y-87512491D01*
X199103777Y-87513590D01*
X199110553Y-87392894D01*
X199117696Y-87290147D01*
X198974473Y-87293993D01*
X198899381Y-87295275D01*
X198791505Y-87294725D01*
X198697916Y-87293077D01*
X198706707Y-87125311D01*
X198822092Y-87122015D01*
X198876212Y-87121740D01*
X198964582Y-87121648D01*
X199071908Y-87123114D01*
X199201945Y-87127509D01*
X199203410Y-87075495D01*
X199207806Y-86995641D01*
X199211469Y-86931905D01*
X199212934Y-86907729D01*
X199123145Y-86908370D01*
X199026670Y-86908828D01*
X198923511Y-86909103D01*
X198813667Y-86909194D01*
X198695489Y-86909103D01*
X198586377Y-86908828D01*
X198486332Y-86908370D01*
X198395352Y-86907729D01*
X198396084Y-86972198D01*
X198395148Y-87033940D01*
X198392340Y-87127346D01*
X198387659Y-87252418D01*
X198382043Y-87384001D01*
X198376426Y-87496943D01*
X198370810Y-87591245D01*
X198364094Y-87683065D01*
X198355181Y-87788559D01*
X198344070Y-87907729D01*
X197938941Y-87907729D01*
X197940040Y-87801960D01*
X197943337Y-87667802D01*
X197946674Y-87567884D01*
X197950826Y-87465930D01*
X197955791Y-87361941D01*
X197962934Y-87247106D01*
X197972641Y-87122381D01*
X198023923Y-87122381D01*
X198097916Y-87123195D01*
X198184118Y-87125637D01*
X198282531Y-87129707D01*
X198283630Y-87073297D01*
X198287659Y-86978791D01*
X198292055Y-86907729D01*
X198196817Y-86908462D01*
X198020993Y-86908462D01*
X197840040Y-86909194D01*
X197705883Y-86909103D01*
X197580333Y-86908828D01*
X197463392Y-86908370D01*
X197355059Y-86907729D01*
X197353227Y-86982271D01*
X197350663Y-87050586D01*
X197347000Y-87131905D01*
X196764969Y-87131905D01*
X196765315Y-87125311D01*
X196880700Y-87122015D01*
X196934821Y-87121740D01*
X197023190Y-87121648D01*
X197130516Y-87123114D01*
X197260553Y-87127509D01*
X197262018Y-87075495D01*
X197266414Y-86995641D01*
X197270077Y-86931905D01*
X197271542Y-86907729D01*
X197181753Y-86908370D01*
X197085278Y-86908828D01*
X196982119Y-86909103D01*
X196872275Y-86909194D01*
X196754097Y-86909103D01*
X196644985Y-86908828D01*
X196544940Y-86908370D01*
X196453960Y-86907729D01*
X196454692Y-86972198D01*
X196453756Y-87033940D01*
X196450948Y-87127346D01*
X196446267Y-87252418D01*
X196440651Y-87384001D01*
X196435034Y-87496943D01*
X196429418Y-87591245D01*
X196422702Y-87683065D01*
X196413789Y-87788559D01*
X196402678Y-87907729D01*
X196227586Y-87907729D01*
X196226121Y-87809560D01*
X196226716Y-87730806D01*
X196228502Y-87624945D01*
X196231478Y-87491978D01*
X196235645Y-87331905D01*
X196238438Y-87238910D01*
X196242421Y-87137216D01*
X196247595Y-87026822D01*
X196253960Y-86907729D01*
X196140407Y-86908828D01*
X196054692Y-86909194D01*
X195986560Y-86908960D01*
X195948099Y-86908828D01*
X195839308Y-86907729D01*
X195810370Y-87007729D01*
X195792513Y-87058553D01*
X195760187Y-87145824D01*
X195723923Y-87245641D01*
X195694253Y-87334103D01*
X195666414Y-87424945D01*
X195635645Y-87531905D01*
X195608081Y-87388773D01*
X195588392Y-87294908D01*
X195570077Y-87219267D01*
X195546634Y-87130806D01*
X195525480Y-87051502D01*
X195514033Y-87003333D01*
X195497916Y-86907729D01*
X195383630Y-86908828D01*
X195303044Y-86909194D01*
X195211652Y-86908828D01*
X195091322Y-86907729D01*
X195068612Y-87246190D01*
X195023190Y-87759744D01*
X195004875Y-87907729D01*
X194615864Y-87907729D01*
X194616963Y-87801960D01*
X194620260Y-87667802D01*
X194623597Y-87567884D01*
X194627749Y-87465930D01*
X194632714Y-87361941D01*
X194639857Y-87247106D01*
X194649564Y-87122381D01*
X194700846Y-87122381D01*
X194774839Y-87123195D01*
X194861042Y-87125637D01*
X194959454Y-87129707D01*
X194960553Y-87073297D01*
X194964582Y-86978791D01*
X194968978Y-86907729D01*
X194873740Y-86908462D01*
X194820260Y-86908462D01*
X194697916Y-86908462D01*
X194516963Y-86909194D01*
X194382806Y-86909103D01*
X194257256Y-86908828D01*
X194140315Y-86908370D01*
X194031982Y-86907729D01*
X194030150Y-86982271D01*
X194027586Y-87050586D01*
X194023923Y-87131905D01*
X193551185Y-87131905D01*
X193566048Y-86907729D01*
X193479967Y-86908828D01*
X193416597Y-86909194D01*
X193333996Y-86908828D01*
X193240040Y-86907729D01*
X193239186Y-86999182D01*
X193236621Y-87106508D01*
X193232348Y-87229707D01*
X193228021Y-87328219D01*
X193222733Y-87427051D01*
X193216483Y-87526204D01*
X193209271Y-87625678D01*
X193202759Y-87705531D01*
X193193968Y-87799548D01*
X193182897Y-87907729D01*
X192634074Y-87907729D01*
X192701579Y-87893443D01*
X192809271Y-87850495D01*
X192900846Y-87788315D01*
X192974564Y-87708736D01*
X193028685Y-87613590D01*
X193061927Y-87505623D01*
X193073007Y-87387582D01*
X193062934Y-87277143D01*
X193032714Y-87180256D01*
X192982165Y-87095366D01*
X192911103Y-87020916D01*
X192823007Y-86961117D01*
X192721359Y-86920183D01*
X192610736Y-86896557D01*
X192495718Y-86888681D01*
X192377729Y-86896252D01*
X192267961Y-86918962D01*
X192166414Y-86956813D01*
X192076955Y-87008136D01*
X192003451Y-87071262D01*
X191945901Y-87146190D01*
X191904591Y-87231376D01*
X191879804Y-87325271D01*
X191871542Y-87427875D01*
X191623802Y-87427875D01*
X191722092Y-87233004D01*
X191782897Y-87114160D01*
X191839308Y-87005735D01*
X191891322Y-86907729D01*
X191791689Y-86908828D01*
X191731615Y-86909194D01*
X191673740Y-86908911D01*
X191656707Y-86908828D01*
X191560919Y-86907729D01*
X191534179Y-86974396D01*
X191519161Y-87009560D01*
X191263484Y-87569267D01*
X191229784Y-87653516D01*
X191208172Y-87574579D01*
X191190223Y-87512125D01*
X191082531Y-87165604D01*
X191051762Y-87068352D01*
X191032714Y-87006630D01*
X191006341Y-86907729D01*
X190918062Y-86908828D01*
X190856890Y-86909194D01*
X190773740Y-86908828D01*
X190763117Y-86908704D01*
X190679601Y-86907729D01*
X189786170Y-86907729D01*
X190048807Y-86032271D01*
X190763117Y-86032271D01*
X190882531Y-86031172D01*
X190934546Y-86030806D01*
X191092055Y-86032271D01*
X191673740Y-86032271D01*
X191766048Y-86031630D01*
X191865681Y-86031172D01*
X191972641Y-86030897D01*
X192086927Y-86030806D01*
X192205201Y-86030969D01*
X192327545Y-86031457D01*
X192453960Y-86032271D01*
X192470077Y-85811026D01*
X192393724Y-85813875D01*
X192296532Y-85815584D01*
X192178502Y-85816154D01*
X192118429Y-85815604D01*
X192014399Y-85813956D01*
X192017330Y-85712125D01*
X192025795Y-85552418D01*
X192541139Y-85552418D01*
X192549930Y-85656630D01*
X192576304Y-85750952D01*
X192623648Y-85836209D01*
X192695352Y-85913223D01*
X192786652Y-85976044D01*
X192892788Y-86018718D01*
X193008905Y-86043168D01*
X193130150Y-86051319D01*
X193253044Y-86042985D01*
X193303671Y-86032271D01*
X193862751Y-86032271D01*
X193961652Y-86031172D01*
X194015132Y-86030806D01*
X194160919Y-86032271D01*
X194820260Y-86032271D01*
X194919161Y-86031172D01*
X194972641Y-86030806D01*
X195118429Y-86032271D01*
X195118429Y-85937033D01*
X195119024Y-85889780D01*
X195120810Y-85811026D01*
X195123786Y-85700769D01*
X195127952Y-85559011D01*
X195131860Y-85447249D01*
X195136744Y-85342487D01*
X195142604Y-85244725D01*
X195204143Y-85240330D01*
X195259088Y-85238864D01*
X195307440Y-85242527D01*
X195346267Y-85258645D01*
X195371908Y-85290513D01*
X195379967Y-85334835D01*
X195343703Y-85421648D01*
X195233447Y-85457179D01*
X195166048Y-85450586D01*
X195192421Y-85549487D01*
X195214399Y-85649853D01*
X195305974Y-85658645D01*
X195408355Y-85648571D01*
X195500114Y-85618352D01*
X195576853Y-85567802D01*
X195634179Y-85496740D01*
X195669894Y-85411209D01*
X195681799Y-85317253D01*
X195669344Y-85223846D01*
X195631982Y-85142161D01*
X195568978Y-85079524D01*
X195483630Y-85040330D01*
X195431880Y-85032271D01*
X195678868Y-85032271D01*
X196014399Y-85630073D01*
X196011835Y-85709560D01*
X196004143Y-85830806D01*
X195994619Y-85952234D01*
X195986560Y-86032271D01*
X196078502Y-86031172D01*
X196147733Y-86030806D01*
X196215864Y-86031172D01*
X196307440Y-86032271D01*
X196310919Y-85904615D01*
X196315498Y-85788315D01*
X196320626Y-85676960D01*
X196321359Y-85669634D01*
X196321359Y-85662308D01*
X196322092Y-85654982D01*
X196346084Y-85614505D01*
X196418062Y-85506264D01*
X196739674Y-85032271D01*
X196638758Y-85033370D01*
X196574839Y-85033736D01*
X196487293Y-85033370D01*
X196396084Y-85032271D01*
X196366780Y-85083828D01*
X196322824Y-85156447D01*
X196284973Y-85219166D01*
X196239796Y-85296455D01*
X196187293Y-85388315D01*
X196151121Y-85303059D01*
X196105608Y-85206996D01*
X196060645Y-85112582D01*
X196026121Y-85032271D01*
X195936927Y-85033370D01*
X195861286Y-85033736D01*
X195779784Y-85033370D01*
X195678868Y-85032271D01*
X195431880Y-85032271D01*
X195423648Y-85030989D01*
X195338209Y-85027875D01*
X195262568Y-85028700D01*
X195171908Y-85031172D01*
X195084179Y-85033645D01*
X195017330Y-85034469D01*
X194949198Y-85033919D01*
X194862018Y-85032271D01*
X194862751Y-85135568D01*
X194862018Y-85219084D01*
X194853960Y-85478425D01*
X194834912Y-85844725D01*
X194820260Y-86032271D01*
X194160919Y-86032271D01*
X194160919Y-85937033D01*
X194161515Y-85889780D01*
X194163300Y-85811026D01*
X194166277Y-85700769D01*
X194170443Y-85559011D01*
X194174350Y-85447249D01*
X194179234Y-85342487D01*
X194185095Y-85244725D01*
X194246634Y-85240330D01*
X194301579Y-85238864D01*
X194349930Y-85242527D01*
X194388758Y-85258645D01*
X194414399Y-85290513D01*
X194422458Y-85334835D01*
X194386194Y-85421648D01*
X194275938Y-85457179D01*
X194208538Y-85450586D01*
X194234912Y-85549487D01*
X194256890Y-85649853D01*
X194348465Y-85658645D01*
X194450846Y-85648571D01*
X194542604Y-85618352D01*
X194619344Y-85567802D01*
X194676670Y-85496740D01*
X194712385Y-85411209D01*
X194724289Y-85317253D01*
X194711835Y-85223846D01*
X194674473Y-85142161D01*
X194611469Y-85079524D01*
X194526121Y-85040330D01*
X194466139Y-85030989D01*
X194380700Y-85027875D01*
X194305059Y-85028700D01*
X194214399Y-85031172D01*
X194126670Y-85033645D01*
X194059821Y-85034469D01*
X193991689Y-85033919D01*
X193904509Y-85032271D01*
X193905242Y-85135568D01*
X193904509Y-85219084D01*
X193896451Y-85478425D01*
X193877403Y-85844725D01*
X193862751Y-86032271D01*
X193303671Y-86032271D01*
X193371176Y-86017985D01*
X193478868Y-85975037D01*
X193570443Y-85912857D01*
X193644161Y-85833278D01*
X193698282Y-85738132D01*
X193731524Y-85630165D01*
X193742604Y-85512125D01*
X193732531Y-85401685D01*
X193702311Y-85304799D01*
X193651762Y-85219908D01*
X193580700Y-85145458D01*
X193492604Y-85085659D01*
X193390956Y-85044725D01*
X193280333Y-85021099D01*
X193165315Y-85013223D01*
X193047326Y-85020794D01*
X192937558Y-85043504D01*
X192836011Y-85081355D01*
X192746552Y-85132678D01*
X192673048Y-85195804D01*
X192615498Y-85270733D01*
X192574188Y-85355918D01*
X192549401Y-85449813D01*
X192541139Y-85552418D01*
X192025795Y-85552418D01*
X192039308Y-85297473D01*
X192056890Y-85032271D01*
X191970810Y-85033370D01*
X191907440Y-85033736D01*
X191824839Y-85033370D01*
X191730883Y-85032271D01*
X191730028Y-85123724D01*
X191727464Y-85231050D01*
X191723190Y-85354249D01*
X191718864Y-85452761D01*
X191713575Y-85551593D01*
X191707325Y-85650746D01*
X191700114Y-85750220D01*
X191693602Y-85830073D01*
X191684810Y-85924090D01*
X191673740Y-86032271D01*
X191092055Y-86032271D01*
X191092055Y-86000037D01*
X191092788Y-85901868D01*
X191100114Y-85638132D01*
X191210004Y-85635385D01*
X191311103Y-85634469D01*
X191383447Y-85635385D01*
X191486194Y-85638132D01*
X191488209Y-85544725D01*
X191494253Y-85421282D01*
X191402311Y-85422930D01*
X191337476Y-85423480D01*
X191218795Y-85423480D01*
X191112568Y-85421282D01*
X191119161Y-85250586D01*
X191216048Y-85249487D01*
X191264949Y-85249121D01*
X191409271Y-85249121D01*
X191460553Y-85249853D01*
X191511835Y-85250586D01*
X191575571Y-85252784D01*
X191578502Y-85171648D01*
X191587293Y-85032271D01*
X191467961Y-85033085D01*
X191345372Y-85033573D01*
X191219527Y-85033736D01*
X191122733Y-85033645D01*
X191022092Y-85033370D01*
X190917604Y-85032912D01*
X190809271Y-85032271D01*
X190809271Y-85112857D01*
X190808376Y-85183553D01*
X190805689Y-85288193D01*
X190801212Y-85426777D01*
X190795759Y-85571221D01*
X190790142Y-85693443D01*
X190784363Y-85793443D01*
X190776121Y-85898205D01*
X190763117Y-86032271D01*
X190048807Y-86032271D01*
X190429540Y-84763162D01*
X190679601Y-84763162D01*
X206014399Y-84763162D01*
X206264460Y-84763162D01*
X207288563Y-84763162D01*
X206264460Y-88176838D01*
G37*
D11*
%TO.C,R3*%
X193801936Y-128153000D02*
X194256064Y-128153000D01*
X193801936Y-129623000D02*
X194256064Y-129623000D01*
%TO.C,R6*%
X200700000Y-121629064D02*
X200700000Y-121174936D01*
X202170000Y-121629064D02*
X202170000Y-121174936D01*
D14*
%TO.C,mouse-bite-3mm-slot*%
X187000000Y-80000000D02*
G75*
G02*
X187000000Y-83000000I0J-1500000D01*
G01*
X193000000Y-83000000D02*
G75*
G02*
X193000000Y-80000000I0J1500000D01*
G01*
D11*
%TO.C,R1*%
X205994000Y-130184936D02*
X205994000Y-130639064D01*
X207464000Y-130184936D02*
X207464000Y-130639064D01*
%TO.C,R4*%
X206883000Y-111589064D02*
X206883000Y-111134936D01*
X208353000Y-111589064D02*
X208353000Y-111134936D01*
%TO.C,D2*%
X208944000Y-109502000D02*
X208944000Y-112362000D01*
X210864000Y-109502000D02*
X208944000Y-109502000D01*
X210864000Y-112362000D02*
X210864000Y-109502000D01*
D12*
%TO.C,kibuzzard-675B2D2F*%
G36*
X212267473Y-115549791D02*
G01*
X212357912Y-115581769D01*
X212436374Y-115634077D01*
X212495055Y-115705725D01*
X212531648Y-115791110D01*
X212543846Y-115884626D01*
X212532967Y-115973637D01*
X212500330Y-116057813D01*
X212448352Y-116129132D01*
X212379451Y-116179571D01*
X212298132Y-116209571D01*
X212208901Y-116219571D01*
X212110989Y-116208582D01*
X212019451Y-116175615D01*
X211940769Y-116122209D01*
X211881429Y-116049901D01*
X211844176Y-115963308D01*
X211831758Y-115867044D01*
X211842747Y-115776055D01*
X211875714Y-115694736D01*
X211928571Y-115627484D01*
X211999231Y-115578692D01*
X212082418Y-115549022D01*
X212172857Y-115539132D01*
X212267473Y-115549791D01*
G37*
G36*
X212962894Y-113620011D02*
G01*
X212962894Y-114427044D01*
X212962894Y-115893418D01*
X212962894Y-118047264D01*
X212962894Y-118047414D01*
X212959172Y-118123171D01*
X212948043Y-118198198D01*
X212929613Y-118271773D01*
X212904061Y-118343187D01*
X212871631Y-118411753D01*
X212832638Y-118476811D01*
X212787455Y-118537732D01*
X212736518Y-118593932D01*
X212680319Y-118644869D01*
X212619397Y-118690051D01*
X212554340Y-118729045D01*
X212485774Y-118761474D01*
X212414359Y-118787027D01*
X212340784Y-118805457D01*
X212265757Y-118816586D01*
X212190000Y-118820307D01*
X212114243Y-118816586D01*
X212039216Y-118805457D01*
X211965641Y-118787027D01*
X211894226Y-118761474D01*
X211825660Y-118729045D01*
X211760603Y-118690051D01*
X211699681Y-118644869D01*
X211643482Y-118593932D01*
X211592545Y-118537732D01*
X211547362Y-118476811D01*
X211508369Y-118411753D01*
X211475939Y-118343187D01*
X211450387Y-118271773D01*
X211431957Y-118198198D01*
X211420828Y-118123171D01*
X211417106Y-118047414D01*
X211417106Y-118047264D01*
X211417106Y-116744407D01*
X211590000Y-116744407D01*
X211591319Y-116866604D01*
X211591758Y-116929022D01*
X211590000Y-117137374D01*
X211672637Y-117135615D01*
X211736923Y-117136604D01*
X211840110Y-117139571D01*
X211950110Y-117143637D01*
X212034835Y-117147923D01*
X212035714Y-117626165D01*
X211900232Y-117620402D01*
X211751661Y-117611318D01*
X211590000Y-117598912D01*
X211591319Y-117711879D01*
X211591758Y-117785286D01*
X211591319Y-117871220D01*
X211590000Y-117991879D01*
X211674396Y-117991000D01*
X211804505Y-117992758D01*
X211960110Y-117997154D01*
X212310000Y-118012978D01*
X212790000Y-118047264D01*
X212788681Y-117925506D01*
X212788242Y-117859132D01*
X212790000Y-117655176D01*
X212302967Y-117640231D01*
X212302967Y-117161110D01*
X212437582Y-117165945D01*
X212563626Y-117172539D01*
X212681099Y-117180890D01*
X212790000Y-117191000D01*
X212788681Y-117058253D01*
X212788242Y-116985286D01*
X212790000Y-116793637D01*
X212641621Y-116793088D01*
X212504176Y-116791440D01*
X212377665Y-116788692D01*
X212262088Y-116784846D01*
X212164734Y-116780415D01*
X212048848Y-116774156D01*
X211914431Y-116766068D01*
X211761481Y-116756152D01*
X211590000Y-116744407D01*
X211417106Y-116744407D01*
X211417106Y-115851220D01*
X211567143Y-115851220D01*
X211576227Y-115992807D01*
X211603480Y-116124529D01*
X211648901Y-116246385D01*
X211710488Y-116353735D01*
X211786239Y-116441940D01*
X211876154Y-116511000D01*
X211978376Y-116560573D01*
X212091050Y-116590316D01*
X212214176Y-116600231D01*
X212339231Y-116589681D01*
X212452418Y-116558033D01*
X212554725Y-116501220D01*
X212647143Y-116415176D01*
X212722527Y-116305615D01*
X212773736Y-116178253D01*
X212803077Y-116038912D01*
X212812857Y-115893418D01*
X212802857Y-115745945D01*
X212772857Y-115604187D01*
X212721319Y-115474956D01*
X212646703Y-115365066D01*
X212551209Y-115276604D01*
X212437033Y-115211659D01*
X212307473Y-115171769D01*
X212165824Y-115158473D01*
X212033297Y-115170561D01*
X211917033Y-115206824D01*
X211815165Y-115267484D01*
X211725824Y-115352758D01*
X211654066Y-115458473D01*
X211604945Y-115580451D01*
X211576593Y-115713198D01*
X211567143Y-115851220D01*
X211417106Y-115851220D01*
X211417106Y-113760670D01*
X211590000Y-113760670D01*
X211591758Y-113939132D01*
X211591319Y-114029681D01*
X211590000Y-114148363D01*
X211733516Y-114152978D01*
X211859890Y-114158033D01*
X211987363Y-114165506D01*
X212127143Y-114175615D01*
X212267802Y-114187484D01*
X212346923Y-114196714D01*
X212424286Y-114217813D01*
X212477033Y-114250341D01*
X212507802Y-114285506D01*
X212529780Y-114337374D01*
X212539451Y-114416495D01*
X212523626Y-114511000D01*
X212476593Y-114581769D01*
X212400549Y-114616934D01*
X212288901Y-114626604D01*
X212161429Y-114622648D01*
X212065824Y-114617703D01*
X211963626Y-114610780D01*
X211590000Y-114584407D01*
X211591319Y-114689681D01*
X211591758Y-114771659D01*
X211591319Y-114848143D01*
X211590000Y-114965066D01*
X211937253Y-114980890D01*
X212031538Y-114985945D01*
X212099890Y-114990561D01*
X212240549Y-115001989D01*
X212363187Y-115009901D01*
X212426923Y-115011659D01*
X212543846Y-114995835D01*
X212626923Y-114957154D01*
X212695055Y-114886824D01*
X212757912Y-114769022D01*
X212781538Y-114697154D01*
X212798791Y-114616934D01*
X212809341Y-114523747D01*
X212812857Y-114427044D01*
X212808242Y-114317813D01*
X212794396Y-114209901D01*
X212769451Y-114108363D01*
X212731538Y-114018253D01*
X212684396Y-113943967D01*
X212631758Y-113889901D01*
X212501209Y-113827044D01*
X212399121Y-113811989D01*
X212243187Y-113804626D01*
X212214176Y-113803747D01*
X211590000Y-113760670D01*
X211417106Y-113760670D01*
X211417106Y-113016934D01*
X211584725Y-113016934D01*
X211585714Y-113114077D01*
X211588681Y-113213857D01*
X211591648Y-113307264D01*
X211592637Y-113385286D01*
X211591978Y-113463528D01*
X211590000Y-113562868D01*
X211715824Y-113563747D01*
X211878791Y-113566385D01*
X211997814Y-113569120D01*
X212112833Y-113572636D01*
X212223846Y-113576934D01*
X212377473Y-113584626D01*
X212511319Y-113593637D01*
X212642967Y-113605066D01*
X212790000Y-113620011D01*
X212788681Y-113507703D01*
X212788242Y-113436275D01*
X212788681Y-113366604D01*
X212790000Y-113245506D01*
X212664560Y-113243802D01*
X212537912Y-113241330D01*
X212410055Y-113238088D01*
X212280989Y-113234077D01*
X212116886Y-113227923D01*
X211970366Y-113221183D01*
X211841429Y-113213857D01*
X211839231Y-113136934D01*
X211837912Y-113073198D01*
X211851978Y-112939132D01*
X211894615Y-112875396D01*
X211960989Y-112855176D01*
X212046264Y-112881989D01*
X212106044Y-112961110D01*
X212125385Y-113077593D01*
X212116593Y-113170780D01*
X212365385Y-113080231D01*
X212465385Y-113043967D01*
X212540330Y-113017813D01*
X212620330Y-112992319D01*
X212724725Y-112961110D01*
X212790000Y-112941330D01*
X212788681Y-112817374D01*
X212788242Y-112733857D01*
X212788681Y-112660011D01*
X212790000Y-112538692D01*
X212724066Y-112566824D01*
X212466484Y-112684626D01*
X212371538Y-112725945D01*
X212259890Y-112771659D01*
X212225934Y-112693528D01*
X212192637Y-112634956D01*
X212114396Y-112554077D01*
X212017692Y-112507044D01*
X211907363Y-112492099D01*
X211808462Y-112505725D01*
X211728022Y-112543967D01*
X211666044Y-112605506D01*
X211619011Y-112696495D01*
X211593516Y-112816495D01*
X211586923Y-112910561D01*
X211584725Y-113016934D01*
X211417106Y-113016934D01*
X211417106Y-111884626D01*
X211567143Y-111884626D01*
X211579011Y-112031440D01*
X211623407Y-112165066D01*
X211700769Y-112265286D01*
X211797033Y-112321989D01*
X211902088Y-112340890D01*
X211986923Y-112329022D01*
X212065604Y-112291220D01*
X212149121Y-112218692D01*
X212220330Y-112137813D01*
X212364505Y-111972539D01*
X212401868Y-111937374D01*
X212432637Y-111920670D01*
X212461209Y-111916275D01*
X212527582Y-111961550D01*
X212550000Y-112083308D01*
X212532857Y-112218253D01*
X212509011Y-112300561D01*
X212471758Y-112393637D01*
X212555079Y-112384065D01*
X212655006Y-112375274D01*
X212771538Y-112367264D01*
X212794493Y-112230805D01*
X212808266Y-112110951D01*
X212812857Y-112007703D01*
X212808242Y-111917703D01*
X212794396Y-111832319D01*
X212769011Y-111752648D01*
X212729780Y-111679791D01*
X212677253Y-111618253D01*
X212611978Y-111572539D01*
X212538462Y-111544187D01*
X212461209Y-111534736D01*
X212403626Y-111540890D01*
X212350440Y-111559791D01*
X212292418Y-111596275D01*
X212228242Y-111652539D01*
X212172857Y-111713198D01*
X212122747Y-111776495D01*
X212043187Y-111875835D01*
X211993956Y-111926824D01*
X211954835Y-111953198D01*
X211920549Y-111960231D01*
X211857253Y-111914956D01*
X211831758Y-111801110D01*
X211844505Y-111685945D01*
X211862198Y-111615615D01*
X211889780Y-111538253D01*
X211782198Y-111549022D01*
X211712637Y-111554956D01*
X211601429Y-111561110D01*
X211582381Y-111674810D01*
X211570952Y-111782648D01*
X211567143Y-111884626D01*
X211417106Y-111884626D01*
X211417106Y-111534736D01*
X211417106Y-111534586D01*
X211420828Y-111458829D01*
X211431957Y-111383802D01*
X211450387Y-111310227D01*
X211475939Y-111238813D01*
X211508369Y-111170247D01*
X211547362Y-111105190D01*
X211592545Y-111044268D01*
X211643482Y-110988068D01*
X211699681Y-110937131D01*
X211760603Y-110891949D01*
X211825660Y-110852955D01*
X211894226Y-110820526D01*
X211965641Y-110794973D01*
X212039216Y-110776543D01*
X212114243Y-110765414D01*
X212190000Y-110761693D01*
X212265757Y-110765414D01*
X212340784Y-110776543D01*
X212414359Y-110794973D01*
X212485774Y-110820526D01*
X212554340Y-110852955D01*
X212619397Y-110891949D01*
X212680319Y-110937131D01*
X212736518Y-110988068D01*
X212787455Y-111044268D01*
X212832638Y-111105190D01*
X212871631Y-111170247D01*
X212904061Y-111238813D01*
X212929613Y-111310227D01*
X212948043Y-111383802D01*
X212959172Y-111458829D01*
X212962894Y-111534586D01*
X212962894Y-111534736D01*
X212962894Y-112007703D01*
X212962894Y-113620011D01*
G37*
D11*
%TO.C,C4*%
X200943252Y-128280000D02*
X200420748Y-128280000D01*
X200943252Y-129750000D02*
X200420748Y-129750000D01*
D12*
%TO.C,kibuzzard-675B2D7E*%
G36*
X212962894Y-94749791D02*
G01*
X212962894Y-96595066D01*
X212962894Y-97240341D01*
X212962894Y-97626275D01*
X212962894Y-97626425D01*
X212959172Y-97702182D01*
X212948043Y-97777209D01*
X212929613Y-97850784D01*
X212904061Y-97922198D01*
X212871631Y-97990764D01*
X212832638Y-98055822D01*
X212787455Y-98116743D01*
X212736518Y-98172943D01*
X212680319Y-98223880D01*
X212619397Y-98269062D01*
X212554340Y-98308056D01*
X212485774Y-98340485D01*
X212414359Y-98366038D01*
X212340784Y-98384468D01*
X212265757Y-98395597D01*
X212190000Y-98399318D01*
X212114243Y-98395597D01*
X212039216Y-98384468D01*
X211965641Y-98366038D01*
X211894226Y-98340485D01*
X211825660Y-98308056D01*
X211760603Y-98269062D01*
X211699681Y-98223880D01*
X211643482Y-98172943D01*
X211592545Y-98116743D01*
X211547362Y-98055822D01*
X211508369Y-97990764D01*
X211475939Y-97922198D01*
X211450387Y-97850784D01*
X211431957Y-97777209D01*
X211420828Y-97702182D01*
X211417106Y-97626425D01*
X211417106Y-97626275D01*
X211417106Y-97117264D01*
X211567143Y-97117264D01*
X211579011Y-97264077D01*
X211623407Y-97397703D01*
X211700769Y-97497923D01*
X211797033Y-97554626D01*
X211902088Y-97573528D01*
X211986923Y-97561659D01*
X212065604Y-97523857D01*
X212149121Y-97451330D01*
X212220330Y-97370451D01*
X212364505Y-97205176D01*
X212401868Y-97170011D01*
X212432637Y-97153308D01*
X212461209Y-97148912D01*
X212527582Y-97194187D01*
X212550000Y-97315945D01*
X212532857Y-97450890D01*
X212509011Y-97533198D01*
X212471758Y-97626275D01*
X212555079Y-97616702D01*
X212655006Y-97607911D01*
X212771538Y-97599901D01*
X212794493Y-97463442D01*
X212808266Y-97343589D01*
X212812857Y-97240341D01*
X212808242Y-97150341D01*
X212794396Y-97064956D01*
X212769011Y-96985286D01*
X212729780Y-96912429D01*
X212677253Y-96850890D01*
X212611978Y-96805176D01*
X212538462Y-96776824D01*
X212461209Y-96767374D01*
X212403626Y-96773528D01*
X212350440Y-96792429D01*
X212292418Y-96828912D01*
X212228242Y-96885176D01*
X212172857Y-96945835D01*
X212122747Y-97009132D01*
X212043187Y-97108473D01*
X211993956Y-97159462D01*
X211954835Y-97185835D01*
X211920549Y-97192868D01*
X211857253Y-97147593D01*
X211831758Y-97033747D01*
X211844505Y-96918582D01*
X211862198Y-96848253D01*
X211889780Y-96770890D01*
X211782198Y-96781659D01*
X211712637Y-96787593D01*
X211601429Y-96793747D01*
X211582381Y-96907447D01*
X211570952Y-97015286D01*
X211567143Y-97117264D01*
X211417106Y-97117264D01*
X211417106Y-95552429D01*
X211590000Y-95552429D01*
X211590769Y-95660176D01*
X211591319Y-95775945D01*
X211591648Y-95899736D01*
X211591758Y-96031550D01*
X211591648Y-96173363D01*
X211591319Y-96304297D01*
X211590769Y-96424352D01*
X211590000Y-96533528D01*
X211667363Y-96532648D01*
X211741453Y-96533772D01*
X211853541Y-96537142D01*
X212003626Y-96542758D01*
X212161526Y-96549498D01*
X212297057Y-96556238D01*
X212410220Y-96562978D01*
X212520403Y-96571037D01*
X212646996Y-96581733D01*
X212790000Y-96595066D01*
X212789121Y-96470231D01*
X212788242Y-96083418D01*
X212788352Y-95958088D01*
X212788681Y-95837923D01*
X212789231Y-95722923D01*
X212790000Y-95613088D01*
X212653297Y-95605176D01*
X212520989Y-95595506D01*
X212528022Y-95730890D01*
X212532418Y-95912868D01*
X212534396Y-96029571D01*
X212535055Y-96098363D01*
X212535055Y-96199462D01*
X212321429Y-96188912D01*
X212316813Y-96045835D01*
X212315275Y-95917264D01*
X212315714Y-95817923D01*
X212317033Y-95683418D01*
X212172198Y-95675286D01*
X212048901Y-95666714D01*
X212053516Y-95838582D01*
X212055055Y-95928692D01*
X212054396Y-96058143D01*
X212052418Y-96170451D01*
X211851099Y-96159901D01*
X211847143Y-96021440D01*
X211846813Y-95956495D01*
X211846703Y-95850451D01*
X211848462Y-95721659D01*
X211853736Y-95565615D01*
X211791319Y-95563857D01*
X211695495Y-95558582D01*
X211619011Y-95554187D01*
X211590000Y-95552429D01*
X211417106Y-95552429D01*
X211417106Y-94682099D01*
X211567143Y-94682099D01*
X211576264Y-94821440D01*
X211603626Y-94956385D01*
X211652198Y-95083747D01*
X211724945Y-95200341D01*
X211820330Y-95298582D01*
X211936813Y-95370890D01*
X212071868Y-95415396D01*
X212222967Y-95430231D01*
X212352637Y-95419242D01*
X212469121Y-95386275D01*
X212571868Y-95327703D01*
X212660330Y-95239901D01*
X212730220Y-95132429D01*
X212777253Y-95014846D01*
X212803956Y-94887264D01*
X212812857Y-94749791D01*
X212809829Y-94646836D01*
X212800745Y-94534895D01*
X212785604Y-94413967D01*
X212641868Y-94393747D01*
X212497253Y-94368253D01*
X212521538Y-94469681D01*
X212536374Y-94552429D01*
X212546484Y-94688253D01*
X212536703Y-94793418D01*
X212507363Y-94880341D01*
X212460110Y-94950121D01*
X212396593Y-95003857D01*
X212317802Y-95038143D01*
X212224725Y-95049571D01*
X212119670Y-95035945D01*
X212024286Y-94995066D01*
X211944505Y-94930451D01*
X211886264Y-94845615D01*
X211850659Y-94744736D01*
X211838791Y-94631989D01*
X211847582Y-94513747D01*
X211860330Y-94440231D01*
X211880989Y-94347154D01*
X211780769Y-94353308D01*
X211674396Y-94358582D01*
X211600549Y-94360341D01*
X211581990Y-94481269D01*
X211570855Y-94588521D01*
X211567143Y-94682099D01*
X211417106Y-94682099D01*
X211417106Y-93855725D01*
X212471758Y-93855725D01*
X212473736Y-93955945D01*
X212474396Y-94008692D01*
X212471758Y-94189791D01*
X212596203Y-94193503D01*
X212702283Y-94197606D01*
X212790000Y-94202099D01*
X212788681Y-94077264D01*
X212788242Y-94024517D01*
X212790000Y-93871550D01*
X212655788Y-93865884D01*
X212549707Y-93860609D01*
X212471758Y-93855725D01*
X211417106Y-93855725D01*
X211417106Y-93855575D01*
X211420828Y-93779818D01*
X211431957Y-93704791D01*
X211450387Y-93631216D01*
X211475939Y-93559802D01*
X211508369Y-93491236D01*
X211547362Y-93426179D01*
X211592545Y-93365257D01*
X211643482Y-93309057D01*
X211699681Y-93258120D01*
X211760603Y-93212938D01*
X211825660Y-93173944D01*
X211894226Y-93141515D01*
X211965641Y-93115962D01*
X212039216Y-93097532D01*
X212114243Y-93086403D01*
X212190000Y-93082682D01*
X212265757Y-93086403D01*
X212340784Y-93097532D01*
X212414359Y-93115962D01*
X212485774Y-93141515D01*
X212554340Y-93173944D01*
X212619397Y-93212938D01*
X212680319Y-93258120D01*
X212736518Y-93309057D01*
X212787455Y-93365257D01*
X212832638Y-93426179D01*
X212871631Y-93491236D01*
X212904061Y-93559802D01*
X212929613Y-93631216D01*
X212948043Y-93704791D01*
X212959172Y-93779818D01*
X212962894Y-93855575D01*
X212962894Y-93855725D01*
X212962894Y-94202099D01*
X212962894Y-94749791D01*
G37*
D11*
%TO.C,SW2*%
X187280000Y-72550000D02*
X187280000Y-75450000D01*
X187280000Y-72550000D02*
X187770000Y-72060000D01*
X187280000Y-75450000D02*
X187770000Y-75940000D01*
X188960000Y-71280000D02*
X191040000Y-71280000D01*
X188960000Y-76720000D02*
X191040000Y-76720000D01*
X192720000Y-72550000D02*
X192230000Y-72060000D01*
X192720000Y-72550000D02*
X192720000Y-75450000D01*
X192720000Y-75450000D02*
X192230000Y-75940000D01*
%TO.C,SW1*%
X188769000Y-135191000D02*
X188769000Y-137271000D01*
X190039000Y-133511000D02*
X189549000Y-134001000D01*
X190039000Y-138951000D02*
X189549000Y-138461000D01*
X192939000Y-133511000D02*
X190039000Y-133511000D01*
X192939000Y-133511000D02*
X193429000Y-134001000D01*
X192939000Y-138951000D02*
X190039000Y-138951000D01*
X192939000Y-138951000D02*
X193429000Y-138461000D01*
X194209000Y-135191000D02*
X194209000Y-137271000D01*
D12*
%TO.C,G\u002A\u002A\u002A*%
G36*
X178389803Y-121236905D02*
G01*
X178452202Y-121260865D01*
X178545519Y-121297464D01*
X178662801Y-121343972D01*
X178797099Y-121397659D01*
X178819318Y-121406579D01*
X178983284Y-121471942D01*
X179157578Y-121540569D01*
X179327537Y-121606742D01*
X179478499Y-121664745D01*
X179571249Y-121699750D01*
X179879384Y-121814653D01*
X179879384Y-122041407D01*
X179879384Y-122268161D01*
X179788756Y-122229267D01*
X179704174Y-122193958D01*
X179583767Y-122145048D01*
X179436852Y-122086220D01*
X179272740Y-122021162D01*
X179100747Y-121953558D01*
X178930186Y-121887094D01*
X178770371Y-121825454D01*
X178707262Y-121801346D01*
X178368918Y-121672547D01*
X178361969Y-121450429D01*
X178359971Y-121353571D01*
X178360380Y-121278103D01*
X178363036Y-121234685D01*
X178365272Y-121228311D01*
X178389803Y-121236905D01*
G37*
G36*
X182131316Y-124311485D02*
G01*
X182154030Y-124325705D01*
X182179619Y-124349835D01*
X182202013Y-124390319D01*
X182224113Y-124455382D01*
X182248819Y-124553248D01*
X182272745Y-124662271D01*
X182300717Y-124793915D01*
X182328620Y-124924484D01*
X182353041Y-125038043D01*
X182369226Y-125112561D01*
X182384432Y-125192148D01*
X182391544Y-125251272D01*
X182389511Y-125275621D01*
X182359666Y-125276696D01*
X182301351Y-125262397D01*
X182229761Y-125238072D01*
X182160096Y-125209068D01*
X182107551Y-125180734D01*
X182096748Y-125172607D01*
X182080708Y-125153501D01*
X182069275Y-125123408D01*
X182061709Y-125074827D01*
X182057272Y-125000256D01*
X182055225Y-124892193D01*
X182054825Y-124746973D01*
X182056256Y-124612715D01*
X182059968Y-124494089D01*
X182065486Y-124400139D01*
X182072338Y-124339909D01*
X182077012Y-124323525D01*
X182099035Y-124302247D01*
X182131316Y-124311485D01*
G37*
G36*
X178616217Y-128430186D02*
G01*
X178720165Y-128475129D01*
X178849154Y-128528883D01*
X178995170Y-128588310D01*
X179150196Y-128650277D01*
X179306216Y-128711647D01*
X179455214Y-128769285D01*
X179589175Y-128820056D01*
X179700082Y-128860824D01*
X179779919Y-128888454D01*
X179812923Y-128898274D01*
X179879384Y-128914484D01*
X179879384Y-129155699D01*
X179877522Y-129257039D01*
X179872502Y-129337402D01*
X179865172Y-129386548D01*
X179859383Y-129396913D01*
X179828433Y-129388298D01*
X179766277Y-129365684D01*
X179686217Y-129333919D01*
X179684169Y-129333077D01*
X179410212Y-129221646D01*
X179179922Y-129130659D01*
X178993186Y-129060076D01*
X178849891Y-129009858D01*
X178749925Y-128979965D01*
X178693175Y-128970356D01*
X178679166Y-128975505D01*
X178674872Y-129011537D01*
X178672528Y-129085493D01*
X178672271Y-129186996D01*
X178674238Y-129305667D01*
X178674616Y-129320056D01*
X178683095Y-129630653D01*
X178526006Y-129566271D01*
X178368918Y-129501889D01*
X178362459Y-128908142D01*
X178356001Y-128314396D01*
X178616217Y-128430186D01*
G37*
G36*
X178387043Y-119858398D02*
G01*
X178510633Y-119909611D01*
X178667217Y-119972749D01*
X178844448Y-120042986D01*
X179029980Y-120115498D01*
X179211467Y-120185462D01*
X179376561Y-120248052D01*
X179512917Y-120298445D01*
X179516872Y-120299876D01*
X179867300Y-120426561D01*
X179873772Y-121008692D01*
X179874760Y-121170648D01*
X179874087Y-121315274D01*
X179871911Y-121435979D01*
X179868390Y-121526173D01*
X179863684Y-121579264D01*
X179859752Y-121590823D01*
X179828153Y-121582302D01*
X179766118Y-121560090D01*
X179696192Y-121532648D01*
X179553123Y-121474473D01*
X179546447Y-121123857D01*
X179539771Y-120773241D01*
X179427346Y-120734934D01*
X179357969Y-120712576D01*
X179307903Y-120698774D01*
X179295060Y-120696627D01*
X179287273Y-120719209D01*
X179280920Y-120780625D01*
X179276671Y-120871379D01*
X179275197Y-120977139D01*
X179273952Y-121102426D01*
X179269781Y-121185253D01*
X179262030Y-121231441D01*
X179250045Y-121246811D01*
X179244988Y-121246089D01*
X179206415Y-121231931D01*
X179139634Y-121207925D01*
X179087900Y-121189496D01*
X178961020Y-121144464D01*
X178961020Y-120849780D01*
X178961020Y-120555095D01*
X178822058Y-120503963D01*
X178722642Y-120467158D01*
X178606598Y-120423878D01*
X178519964Y-120391360D01*
X178356834Y-120329890D01*
X178356834Y-120087742D01*
X178358306Y-119973114D01*
X178363252Y-119900695D01*
X178372470Y-119864434D01*
X178386757Y-119858280D01*
X178387043Y-119858398D01*
G37*
G36*
X178903059Y-122084427D02*
G01*
X178946861Y-122099639D01*
X179106294Y-122183982D01*
X179246286Y-122306139D01*
X179361881Y-122457807D01*
X179448120Y-122630686D01*
X179500045Y-122816474D01*
X179512699Y-123006869D01*
X179510248Y-123042954D01*
X179480526Y-123205160D01*
X179424055Y-123327377D01*
X179340252Y-123410255D01*
X179228536Y-123454444D01*
X179134386Y-123462713D01*
X178963276Y-123438144D01*
X178799862Y-123371038D01*
X178651034Y-123267188D01*
X178523682Y-123132385D01*
X178424694Y-122972421D01*
X178367106Y-122817660D01*
X178346331Y-122705168D01*
X178343592Y-122669155D01*
X178649193Y-122669155D01*
X178666021Y-122753770D01*
X178692873Y-122813966D01*
X178745262Y-122870620D01*
X178826695Y-122928860D01*
X178919722Y-122978791D01*
X179006896Y-123010516D01*
X179050352Y-123016703D01*
X179107990Y-123000081D01*
X179157081Y-122965648D01*
X179193267Y-122897329D01*
X179191816Y-122809455D01*
X179153337Y-122712028D01*
X179140351Y-122690896D01*
X179081235Y-122628740D01*
X178997981Y-122575866D01*
X178903132Y-122536398D01*
X178809228Y-122514458D01*
X178728811Y-122514170D01*
X178675844Y-122538188D01*
X178652093Y-122591235D01*
X178649193Y-122669155D01*
X178343592Y-122669155D01*
X178336591Y-122577098D01*
X178338327Y-122452902D01*
X178351977Y-122352029D01*
X178356222Y-122336211D01*
X178415712Y-122204626D01*
X178501688Y-122113035D01*
X178612603Y-122062058D01*
X178728811Y-122053628D01*
X178746909Y-122052315D01*
X178903059Y-122084427D01*
G37*
G36*
X177905469Y-126146478D02*
G01*
X177963711Y-126159314D01*
X178039921Y-126175328D01*
X178054741Y-126178362D01*
X178111789Y-126192633D01*
X178138687Y-126214009D01*
X178141406Y-126255599D01*
X178125915Y-126330513D01*
X178125272Y-126333241D01*
X178119846Y-126426418D01*
X178152031Y-126517375D01*
X178225412Y-126616125D01*
X178227338Y-126618264D01*
X178314123Y-126714325D01*
X178903414Y-126714325D01*
X179492705Y-126714325D01*
X179492705Y-126934719D01*
X179492705Y-127155113D01*
X179232904Y-127137566D01*
X179111396Y-127128381D01*
X178994708Y-127117868D01*
X178899414Y-127107598D01*
X178858309Y-127102037D01*
X178792039Y-127094327D01*
X178751009Y-127094704D01*
X178744396Y-127098571D01*
X178763707Y-127118243D01*
X178812567Y-127153688D01*
X178859191Y-127183896D01*
X178923741Y-127225766D01*
X179015396Y-127287492D01*
X179121972Y-127360775D01*
X179231285Y-127437317D01*
X179231763Y-127437655D01*
X179490421Y-127620604D01*
X179491563Y-127832070D01*
X179490958Y-127926390D01*
X179488370Y-127999036D01*
X179484287Y-128039069D01*
X179482156Y-128043535D01*
X179460224Y-128029479D01*
X179408004Y-127991117D01*
X179333094Y-127934154D01*
X179243094Y-127864297D01*
X179234440Y-127857515D01*
X179040831Y-127706159D01*
X178840936Y-127550789D01*
X178645752Y-127399905D01*
X178466273Y-127262007D01*
X178313496Y-127145594D01*
X178311871Y-127144363D01*
X178149005Y-127014730D01*
X178024992Y-126899516D01*
X177935373Y-126791685D01*
X177875688Y-126684203D01*
X177841476Y-126570036D01*
X177828277Y-126442151D01*
X177827953Y-126381116D01*
X177830992Y-126291384D01*
X177836163Y-126216893D01*
X177841812Y-126176584D01*
X177867653Y-126145497D01*
X177905469Y-126146478D01*
G37*
G36*
X177888656Y-124717292D02*
G01*
X177949780Y-124741179D01*
X178034886Y-124776021D01*
X178098266Y-124802631D01*
X178219796Y-124853112D01*
X178365683Y-124912098D01*
X178527165Y-124976208D01*
X178695478Y-125042055D01*
X178789791Y-125078448D01*
X178861860Y-125106257D01*
X179017548Y-125165430D01*
X179153780Y-125216190D01*
X179261793Y-125255153D01*
X179327091Y-125277166D01*
X179463570Y-125319873D01*
X179493884Y-125591854D01*
X179513026Y-125833813D01*
X179511491Y-126033459D01*
X179488990Y-126192302D01*
X179445233Y-126311854D01*
X179379929Y-126393626D01*
X179334397Y-126423207D01*
X179226328Y-126453270D01*
X179094377Y-126453880D01*
X178952097Y-126426161D01*
X178834245Y-126381682D01*
X178659260Y-126279994D01*
X178519463Y-126159347D01*
X178417125Y-126024322D01*
X178354518Y-125879497D01*
X178333914Y-125729455D01*
X178342956Y-125671893D01*
X178647511Y-125671893D01*
X178663238Y-125756579D01*
X178706605Y-125833499D01*
X178784054Y-125910153D01*
X178878468Y-125967185D01*
X178978007Y-126000925D01*
X179070826Y-126007707D01*
X179145083Y-125983861D01*
X179158499Y-125973471D01*
X179187488Y-125921078D01*
X179201883Y-125842413D01*
X179200762Y-125757567D01*
X179183205Y-125686627D01*
X179172486Y-125668094D01*
X179130963Y-125636980D01*
X179057633Y-125602049D01*
X178968091Y-125568925D01*
X178877934Y-125543231D01*
X178802758Y-125530590D01*
X178789791Y-125530119D01*
X178713417Y-125549070D01*
X178665114Y-125599525D01*
X178647511Y-125671893D01*
X178342956Y-125671893D01*
X178357583Y-125578774D01*
X178392984Y-125491922D01*
X178426050Y-125426412D01*
X178448002Y-125382284D01*
X178453403Y-125370807D01*
X178432566Y-125361607D01*
X178376996Y-125339715D01*
X178297311Y-125309159D01*
X178204130Y-125273970D01*
X178108071Y-125238174D01*
X178019751Y-125205801D01*
X177994322Y-125196630D01*
X177861401Y-125148949D01*
X177854452Y-124928687D01*
X177852855Y-124832280D01*
X177854360Y-124757303D01*
X177858615Y-124714457D01*
X177861726Y-124708426D01*
X177888656Y-124717292D01*
G37*
G36*
X177910965Y-123229435D02*
G01*
X177979374Y-123257431D01*
X178075148Y-123296756D01*
X178189630Y-123343858D01*
X178248080Y-123367937D01*
X178388997Y-123424894D01*
X178558905Y-123491828D01*
X178741314Y-123562341D01*
X178804969Y-123586493D01*
X178919738Y-123630039D01*
X179020602Y-123667599D01*
X179174373Y-123723668D01*
X179289676Y-123767337D01*
X179372371Y-123805489D01*
X179428312Y-123845004D01*
X179463357Y-123892764D01*
X179483362Y-123955651D01*
X179494184Y-124040547D01*
X179501680Y-124154331D01*
X179507002Y-124239115D01*
X179514646Y-124448518D01*
X179505455Y-124615900D01*
X179478202Y-124744988D01*
X179431658Y-124839507D01*
X179364593Y-124903183D01*
X179275982Y-124939694D01*
X179123451Y-124954344D01*
X178966038Y-124930232D01*
X178811145Y-124872785D01*
X178666173Y-124787429D01*
X178538523Y-124679590D01*
X178435598Y-124554696D01*
X178364799Y-124418172D01*
X178333529Y-124275445D01*
X178332666Y-124248105D01*
X178340105Y-124170675D01*
X178646335Y-124170675D01*
X178662221Y-124256508D01*
X178708662Y-124337814D01*
X178788803Y-124417720D01*
X178884597Y-124475508D01*
X178984576Y-124507681D01*
X179077274Y-124510737D01*
X179151225Y-124481179D01*
X179158499Y-124475089D01*
X179185280Y-124426031D01*
X179200840Y-124350136D01*
X179203421Y-124267964D01*
X179191268Y-124200077D01*
X179183378Y-124183762D01*
X179145587Y-124152486D01*
X179076005Y-124115736D01*
X178989774Y-124079594D01*
X178902036Y-124050144D01*
X178827933Y-124033468D01*
X178804969Y-124031737D01*
X178720332Y-124049953D01*
X178666580Y-124099045D01*
X178646335Y-124170675D01*
X178340105Y-124170675D01*
X178345024Y-124119479D01*
X178378896Y-124005689D01*
X178424555Y-123928877D01*
X178449287Y-123892792D01*
X178451342Y-123877525D01*
X178426234Y-123866085D01*
X178364716Y-123841197D01*
X178275644Y-123806365D01*
X178167871Y-123765093D01*
X178151411Y-123758855D01*
X177861401Y-123649095D01*
X177854413Y-123426620D01*
X177852462Y-123318899D01*
X177855340Y-123252509D01*
X177863833Y-123220614D01*
X177878581Y-123216321D01*
X177910965Y-123229435D01*
G37*
G36*
X184715128Y-128654596D02*
G01*
X184757700Y-128679743D01*
X184774767Y-128716584D01*
X184797944Y-128788053D01*
X184823312Y-128881494D01*
X184834425Y-128927459D01*
X184858136Y-129018779D01*
X184894258Y-129144461D01*
X184939359Y-129293203D01*
X184990008Y-129453703D01*
X185042773Y-129614658D01*
X185045798Y-129623684D01*
X185111499Y-129815030D01*
X185166921Y-129964326D01*
X185214808Y-130076072D01*
X185257903Y-130154763D01*
X185298952Y-130204900D01*
X185340699Y-130230980D01*
X185385887Y-130237500D01*
X185417837Y-130233494D01*
X185501234Y-130204161D01*
X185563302Y-130150299D01*
X185607191Y-130066049D01*
X185636049Y-129945552D01*
X185652022Y-129797779D01*
X185667490Y-129578169D01*
X185897081Y-129562600D01*
X186014615Y-129554699D01*
X186129514Y-129547091D01*
X186222536Y-129541046D01*
X186247509Y-129539463D01*
X186368347Y-129531895D01*
X186388831Y-129784623D01*
X186396916Y-129957714D01*
X186394794Y-130136004D01*
X186383436Y-130308229D01*
X186363818Y-130463125D01*
X186336912Y-130589426D01*
X186313451Y-130656609D01*
X186225934Y-130796007D01*
X186099112Y-130911336D01*
X185973483Y-130985182D01*
X185909381Y-131014720D01*
X185852225Y-131034092D01*
X185788970Y-131045411D01*
X185706571Y-131050791D01*
X185591985Y-131052345D01*
X185558737Y-131052384D01*
X185437634Y-131051763D01*
X185350807Y-131048056D01*
X185284199Y-131038493D01*
X185223753Y-131020303D01*
X185155412Y-130990719D01*
X185093102Y-130960649D01*
X184908295Y-130852725D01*
X184710881Y-130705234D01*
X184506184Y-130523497D01*
X184299527Y-130312833D01*
X184096233Y-130078563D01*
X183901626Y-129826007D01*
X183774653Y-129643045D01*
X183695978Y-129519186D01*
X183646997Y-129425600D01*
X183626917Y-129355051D01*
X183634947Y-129300303D01*
X183670296Y-129254119D01*
X183727532Y-129212171D01*
X183781828Y-129178383D01*
X183868381Y-129125097D01*
X183978117Y-129057875D01*
X184101960Y-128982276D01*
X184204840Y-128919659D01*
X184326270Y-128845426D01*
X184433894Y-128778832D01*
X184520662Y-128724301D01*
X184579523Y-128686262D01*
X184602914Y-128669689D01*
X184653205Y-128649462D01*
X184715128Y-128654596D01*
G37*
G36*
X182024675Y-123047255D02*
G01*
X182037487Y-123071483D01*
X182047074Y-123121165D01*
X182054899Y-123203912D01*
X182062430Y-123327337D01*
X182062464Y-123327963D01*
X182069699Y-123443838D01*
X182077820Y-123544093D01*
X182085807Y-123617645D01*
X182092330Y-123652658D01*
X182084329Y-123695950D01*
X182038314Y-123745520D01*
X181914391Y-123855102D01*
X181794790Y-123978011D01*
X181689360Y-124102917D01*
X181607954Y-124218493D01*
X181574747Y-124278631D01*
X181473769Y-124546735D01*
X181418272Y-124830084D01*
X181408272Y-125128828D01*
X181443784Y-125443117D01*
X181524823Y-125773100D01*
X181651404Y-126118927D01*
X181788777Y-126413614D01*
X182022603Y-126835034D01*
X182277797Y-127223101D01*
X182552127Y-127575376D01*
X182843362Y-127889419D01*
X183149271Y-128162789D01*
X183467622Y-128393049D01*
X183744618Y-128552178D01*
X183833532Y-128603022D01*
X183879499Y-128647430D01*
X183885779Y-128693153D01*
X183855630Y-128747941D01*
X183836685Y-128771145D01*
X183776412Y-128832804D01*
X183702792Y-128896509D01*
X183627700Y-128953293D01*
X183563010Y-128994188D01*
X183520595Y-129010228D01*
X183520099Y-129010233D01*
X183483634Y-128999542D01*
X183414846Y-128970521D01*
X183323975Y-128927748D01*
X183232578Y-128881695D01*
X182827504Y-128648282D01*
X182448459Y-128383271D01*
X182098052Y-128089916D01*
X181778893Y-127771471D01*
X181493591Y-127431191D01*
X181244754Y-127072329D01*
X181034994Y-126698141D01*
X180866918Y-126311880D01*
X180743136Y-125916802D01*
X180699783Y-125722733D01*
X180678280Y-125574770D01*
X180663483Y-125396439D01*
X180655674Y-125202875D01*
X180655136Y-125009211D01*
X180662150Y-124830581D01*
X180676999Y-124682119D01*
X180680012Y-124662830D01*
X180709460Y-124530747D01*
X180756013Y-124373563D01*
X180813656Y-124208623D01*
X180876373Y-124053275D01*
X180931863Y-123936608D01*
X181019463Y-123794704D01*
X181134197Y-123643302D01*
X181262850Y-123497940D01*
X181392201Y-123374156D01*
X181450269Y-123327256D01*
X181529678Y-123273200D01*
X181627846Y-123214347D01*
X181733840Y-123156320D01*
X181836726Y-123104742D01*
X181925573Y-123065234D01*
X181989446Y-123043418D01*
X182007170Y-123040871D01*
X182024675Y-123047255D01*
G37*
G36*
X178399127Y-131047966D02*
G01*
X178434533Y-131061109D01*
X178506543Y-131089324D01*
X178607026Y-131129374D01*
X178727853Y-131178022D01*
X178780036Y-131199193D01*
X178840183Y-131223594D01*
X179000175Y-131287920D01*
X179173906Y-131356435D01*
X179344509Y-131422568D01*
X179495116Y-131479751D01*
X179553123Y-131501272D01*
X179867300Y-131616626D01*
X179874203Y-131846889D01*
X179881106Y-132077151D01*
X179700573Y-131993740D01*
X179616632Y-131955354D01*
X179551446Y-131926294D01*
X179515812Y-131911347D01*
X179512414Y-131910325D01*
X179509176Y-131932764D01*
X179506620Y-131993175D01*
X179505083Y-132081196D01*
X179504788Y-132145958D01*
X179497288Y-132308249D01*
X179472261Y-132428685D01*
X179425918Y-132511751D01*
X179354470Y-132561934D01*
X179254128Y-132583721D01*
X179135865Y-132582748D01*
X178962184Y-132547845D01*
X178791016Y-132472983D01*
X178633217Y-132365758D01*
X178499642Y-132233766D01*
X178401144Y-132084603D01*
X178389827Y-132060686D01*
X178351444Y-131941322D01*
X178334311Y-131812501D01*
X178334982Y-131798058D01*
X178646843Y-131798058D01*
X178659173Y-131848879D01*
X178689375Y-131912748D01*
X178694572Y-131921430D01*
X178752060Y-131985330D01*
X178836991Y-132047432D01*
X178931872Y-132097490D01*
X179019208Y-132125259D01*
X179046974Y-132127836D01*
X179129151Y-132109682D01*
X179180541Y-132054779D01*
X179201681Y-131962468D01*
X179202325Y-131936792D01*
X179197905Y-131862675D01*
X179187210Y-131806625D01*
X179181718Y-131793826D01*
X179148160Y-131768782D01*
X179082061Y-131736760D01*
X178997632Y-131703043D01*
X178909087Y-131672916D01*
X178830638Y-131651662D01*
X178780036Y-131644486D01*
X178720322Y-131665820D01*
X178671310Y-131718766D01*
X178647383Y-131786741D01*
X178646843Y-131798058D01*
X178334982Y-131798058D01*
X178339853Y-131693181D01*
X178357255Y-131627260D01*
X178395499Y-131570825D01*
X178428225Y-131542902D01*
X178470755Y-131508586D01*
X178466627Y-131484248D01*
X178417253Y-131465390D01*
X178388086Y-131455698D01*
X178370233Y-131437745D01*
X178360922Y-131401300D01*
X178357381Y-131336131D01*
X178356834Y-131242444D01*
X178357761Y-131142170D01*
X178361791Y-131081613D01*
X178370793Y-131052171D01*
X178386638Y-131045242D01*
X178399127Y-131047966D01*
G37*
G36*
X178691541Y-129710234D02*
G01*
X178798878Y-129779088D01*
X178891700Y-129892749D01*
X178969417Y-130050392D01*
X179031443Y-130251191D01*
X179056843Y-130369942D01*
X179087093Y-130486861D01*
X179127351Y-130578354D01*
X179173204Y-130636449D01*
X179213947Y-130653621D01*
X179252883Y-130631975D01*
X179271862Y-130568584D01*
X179270795Y-130465764D01*
X179249592Y-130325832D01*
X179229998Y-130236732D01*
X179210271Y-130149693D01*
X179197521Y-130084177D01*
X179193839Y-130051285D01*
X179194738Y-130049434D01*
X179219787Y-130059453D01*
X179274180Y-130085255D01*
X179322549Y-130109354D01*
X179379050Y-130139240D01*
X179417908Y-130167692D01*
X179444081Y-130204719D01*
X179462527Y-130260329D01*
X179478203Y-130344530D01*
X179494543Y-130456573D01*
X179512061Y-130640708D01*
X179510502Y-130802732D01*
X179490896Y-130937404D01*
X179454276Y-131039485D01*
X179401672Y-131103737D01*
X179363589Y-131121772D01*
X179337662Y-131125643D01*
X179305100Y-131123744D01*
X179260234Y-131114245D01*
X179197400Y-131095318D01*
X179110929Y-131065137D01*
X178995155Y-131021873D01*
X178844412Y-130963698D01*
X178707262Y-130910071D01*
X178368918Y-130777366D01*
X178361991Y-130560099D01*
X178355065Y-130342831D01*
X178587595Y-130437807D01*
X178685996Y-130477271D01*
X178767799Y-130508719D01*
X178822685Y-130528264D01*
X178839704Y-130532783D01*
X178843386Y-130512434D01*
X178833534Y-130460131D01*
X178814080Y-130388989D01*
X178788954Y-130312123D01*
X178762086Y-130242648D01*
X178738664Y-130195654D01*
X178691461Y-130147070D01*
X178637139Y-130127468D01*
X178592161Y-130142785D01*
X178592127Y-130142819D01*
X178575893Y-130182496D01*
X178569561Y-130246363D01*
X178569776Y-130257161D01*
X178569928Y-130313304D01*
X178560531Y-130329251D01*
X178535699Y-130313002D01*
X178531432Y-130309295D01*
X178480909Y-130273075D01*
X178415188Y-130235017D01*
X178411211Y-130232984D01*
X178369491Y-130209561D01*
X178346076Y-130183589D01*
X178335795Y-130141585D01*
X178333473Y-130070064D01*
X178333612Y-130030688D01*
X178339019Y-129933936D01*
X178352129Y-129845743D01*
X178367176Y-129793251D01*
X178403983Y-129732292D01*
X178456136Y-129699448D01*
X178537316Y-129687561D01*
X178570276Y-129687013D01*
X178691541Y-129710234D01*
G37*
G36*
X183324601Y-122867345D02*
G01*
X183430314Y-122881619D01*
X183468252Y-122887783D01*
X183740695Y-122950665D01*
X184031816Y-123050153D01*
X184334511Y-123181969D01*
X184641673Y-123341834D01*
X184946197Y-123525473D01*
X185240977Y-123728606D01*
X185518907Y-123946956D01*
X185772882Y-124176245D01*
X185990729Y-124406332D01*
X186231547Y-124713062D01*
X186459205Y-125059511D01*
X186670273Y-125438056D01*
X186861322Y-125841072D01*
X187028921Y-126260932D01*
X187169640Y-126690012D01*
X187280051Y-127120687D01*
X187332475Y-127389230D01*
X187352959Y-127547351D01*
X187365492Y-127725789D01*
X187370047Y-127911069D01*
X187366597Y-128089718D01*
X187355113Y-128248263D01*
X187335569Y-128373230D01*
X187334508Y-128377810D01*
X187264888Y-128605032D01*
X187169136Y-128801698D01*
X187045118Y-128969017D01*
X186890706Y-129108200D01*
X186703768Y-129220459D01*
X186482173Y-129307003D01*
X186223790Y-129369044D01*
X185926488Y-129407792D01*
X185588135Y-129424458D01*
X185490655Y-129425327D01*
X185353475Y-129424877D01*
X185233823Y-129423276D01*
X185139763Y-129420730D01*
X185079358Y-129417445D01*
X185060595Y-129414343D01*
X185051925Y-129388068D01*
X185036814Y-129326624D01*
X185017859Y-129242322D01*
X184997655Y-129147476D01*
X184978797Y-129054399D01*
X184963880Y-128975403D01*
X184955499Y-128922801D01*
X184954550Y-128911227D01*
X184977312Y-128903559D01*
X185039980Y-128897046D01*
X185134133Y-128892207D01*
X185251345Y-128889563D01*
X185311020Y-128889227D01*
X185485306Y-128886964D01*
X185624563Y-128879609D01*
X185741933Y-128866029D01*
X185850560Y-128845092D01*
X185866289Y-128841397D01*
X186114312Y-128766240D01*
X186319878Y-128669538D01*
X186484182Y-128550499D01*
X186608420Y-128408334D01*
X186662698Y-128314751D01*
X186712860Y-128165561D01*
X186737128Y-127976979D01*
X186735565Y-127750387D01*
X186708236Y-127487165D01*
X186655204Y-127188694D01*
X186599742Y-126947121D01*
X186467513Y-126513375D01*
X186290422Y-126088152D01*
X186071799Y-125676288D01*
X185814978Y-125282623D01*
X185523290Y-124911994D01*
X185200067Y-124569238D01*
X184848640Y-124259194D01*
X184639342Y-124100644D01*
X184304264Y-123887987D01*
X183946504Y-123711033D01*
X183576820Y-123574755D01*
X183389707Y-123523139D01*
X183166158Y-123468537D01*
X183170221Y-123260746D01*
X183173233Y-123152655D01*
X183177585Y-123052015D01*
X183182452Y-122977056D01*
X183183616Y-122964802D01*
X183193247Y-122912746D01*
X183214400Y-122880654D01*
X183255407Y-122866272D01*
X183324601Y-122867345D01*
G37*
G36*
X183160219Y-124751891D02*
G01*
X183223586Y-124768777D01*
X183313314Y-124797847D01*
X183420208Y-124836060D01*
X183535074Y-124880370D01*
X183577005Y-124897393D01*
X183618439Y-124913587D01*
X183696764Y-124943428D01*
X183803559Y-124983735D01*
X183930403Y-125031330D01*
X184060354Y-125079860D01*
X184229632Y-125143030D01*
X184416548Y-125212942D01*
X184603204Y-125282892D01*
X184771701Y-125346175D01*
X184845797Y-125374070D01*
X185002857Y-125432549D01*
X185175938Y-125495826D01*
X185345891Y-125556965D01*
X185493566Y-125609033D01*
X185517844Y-125617438D01*
X185670402Y-125671454D01*
X185782988Y-125715295D01*
X185862021Y-125752371D01*
X185913916Y-125786086D01*
X185945090Y-125819850D01*
X185960542Y-125852500D01*
X185963895Y-125886264D01*
X185967134Y-125963593D01*
X185970187Y-126079718D01*
X185972980Y-126229871D01*
X185975442Y-126409280D01*
X185977499Y-126613178D01*
X185979079Y-126836794D01*
X185980109Y-127075359D01*
X185980295Y-127146928D01*
X185980841Y-127431674D01*
X185980943Y-127671860D01*
X185980337Y-127871261D01*
X185978762Y-128033652D01*
X185975954Y-128162807D01*
X185971650Y-128262501D01*
X185965587Y-128336510D01*
X185957502Y-128388607D01*
X185947133Y-128422568D01*
X185934216Y-128442168D01*
X185918489Y-128451180D01*
X185899688Y-128453380D01*
X185889313Y-128453117D01*
X185847760Y-128442544D01*
X185776830Y-128416751D01*
X185690607Y-128381676D01*
X185603173Y-128343256D01*
X185528611Y-128307427D01*
X185484134Y-128282294D01*
X185425816Y-128243128D01*
X185413732Y-127370484D01*
X185401648Y-126497841D01*
X185339182Y-126435413D01*
X185296234Y-126406837D01*
X185217694Y-126367534D01*
X185112907Y-126321071D01*
X184991220Y-126271014D01*
X184861979Y-126220931D01*
X184734530Y-126174389D01*
X184618218Y-126134954D01*
X184522391Y-126106193D01*
X184456394Y-126091674D01*
X184436685Y-126090975D01*
X184406066Y-126099202D01*
X184381671Y-126117352D01*
X184362802Y-126150390D01*
X184348761Y-126203281D01*
X184338850Y-126280992D01*
X184332370Y-126388487D01*
X184328625Y-126530733D01*
X184326916Y-126712695D01*
X184326553Y-126874496D01*
X184326328Y-127082485D01*
X184325106Y-127246820D01*
X184321685Y-127372181D01*
X184314864Y-127463247D01*
X184303445Y-127524698D01*
X184286225Y-127561214D01*
X184262004Y-127577476D01*
X184229581Y-127578163D01*
X184187757Y-127567956D01*
X184151565Y-127556620D01*
X184048271Y-127523935D01*
X184036187Y-127012845D01*
X184031801Y-126841402D01*
X184027366Y-126711592D01*
X184022169Y-126616719D01*
X184015499Y-126550087D01*
X184006645Y-126504998D01*
X183994895Y-126474757D01*
X183979536Y-126452667D01*
X183976258Y-126448956D01*
X183917799Y-126408852D01*
X183852133Y-126405061D01*
X183806923Y-126407877D01*
X183782515Y-126395025D01*
X183769722Y-126355110D01*
X183761225Y-126292262D01*
X183752182Y-126190111D01*
X183746915Y-126078744D01*
X183746387Y-126042478D01*
X183739011Y-125932241D01*
X183712116Y-125851248D01*
X183657919Y-125788963D01*
X183568639Y-125734848D01*
X183494794Y-125701836D01*
X183407531Y-125666722D01*
X183336563Y-125640398D01*
X183294334Y-125627417D01*
X183289607Y-125626789D01*
X183272771Y-125615571D01*
X183255156Y-125578659D01*
X183235454Y-125511168D01*
X183212357Y-125408210D01*
X183184558Y-125264901D01*
X183167204Y-125169422D01*
X183140466Y-125011646D01*
X183124498Y-124895692D01*
X183118868Y-124816365D01*
X183123146Y-124768468D01*
X183132406Y-124750234D01*
X183160219Y-124751891D01*
G37*
G36*
X183482287Y-121670242D02*
G01*
X183647138Y-121700317D01*
X183821596Y-121758957D01*
X184017440Y-121848448D01*
X184048271Y-121864100D01*
X184277281Y-122005402D01*
X184482919Y-122183155D01*
X184666859Y-122399445D01*
X184830777Y-122656358D01*
X184976348Y-122955978D01*
X185028233Y-123084138D01*
X185074711Y-123216285D01*
X185096037Y-123308260D01*
X185091495Y-123361594D01*
X185060370Y-123377818D01*
X185001945Y-123358464D01*
X184922654Y-123309994D01*
X184860322Y-123270839D01*
X184767983Y-123217214D01*
X184658718Y-123156555D01*
X184559019Y-123103296D01*
X184394206Y-123009725D01*
X184262710Y-122919734D01*
X184184423Y-122851602D01*
X184030127Y-122719146D01*
X183864569Y-122621467D01*
X183694145Y-122559728D01*
X183525248Y-122535090D01*
X183364274Y-122548718D01*
X183217618Y-122601774D01*
X183130566Y-122659947D01*
X183063275Y-122724620D01*
X183009778Y-122799495D01*
X182968705Y-122890443D01*
X182938683Y-123003337D01*
X182918341Y-123144047D01*
X182906307Y-123318447D01*
X182901208Y-123532407D01*
X182900812Y-123643454D01*
X182904643Y-123924049D01*
X182916301Y-124188757D01*
X182936996Y-124446937D01*
X182967942Y-124707948D01*
X183010350Y-124981146D01*
X183065432Y-125275891D01*
X183134400Y-125601540D01*
X183181144Y-125807837D01*
X183214943Y-125949380D01*
X183251826Y-126095829D01*
X183289399Y-126238492D01*
X183325268Y-126368675D01*
X183357040Y-126477684D01*
X183382320Y-126556826D01*
X183398405Y-126596884D01*
X183423783Y-126596902D01*
X183485384Y-126584869D01*
X183573248Y-126562983D01*
X183652450Y-126540824D01*
X183754955Y-126513154D01*
X183840195Y-126494369D01*
X183897709Y-126486520D01*
X183916404Y-126489093D01*
X183921310Y-126517092D01*
X183926746Y-126587768D01*
X183932471Y-126695467D01*
X183938248Y-126834538D01*
X183943837Y-126999328D01*
X183948999Y-127184184D01*
X183952840Y-127351274D01*
X183957484Y-127581030D01*
X183960646Y-127767082D01*
X183961963Y-127914049D01*
X183961071Y-128026548D01*
X183957606Y-128109198D01*
X183951205Y-128166618D01*
X183941505Y-128203425D01*
X183928142Y-128224239D01*
X183910751Y-128233676D01*
X183888971Y-128236356D01*
X183883155Y-128236505D01*
X183858791Y-128220894D01*
X183807335Y-128178118D01*
X183736334Y-128114721D01*
X183653564Y-128037463D01*
X183573838Y-127961549D01*
X183467487Y-127860253D01*
X183342875Y-127741544D01*
X183208364Y-127613388D01*
X183072317Y-127483752D01*
X183015112Y-127429237D01*
X182896226Y-127314419D01*
X182790019Y-127208936D01*
X182701288Y-127117790D01*
X182634829Y-127045984D01*
X182595436Y-126998521D01*
X182586526Y-126982170D01*
X182609235Y-126952321D01*
X182675031Y-126909096D01*
X182781099Y-126854264D01*
X182816117Y-126837774D01*
X182910724Y-126792183D01*
X182986333Y-126752359D01*
X183033763Y-126723350D01*
X183045321Y-126711789D01*
X183036943Y-126680013D01*
X183015325Y-126618802D01*
X182994171Y-126564173D01*
X182848583Y-126178602D01*
X182712960Y-125776318D01*
X182589970Y-125367258D01*
X182482284Y-124961360D01*
X182392570Y-124568562D01*
X182323498Y-124198803D01*
X182284348Y-123921587D01*
X182272351Y-123790667D01*
X182262921Y-123631075D01*
X182256138Y-123452636D01*
X182252079Y-123265173D01*
X182250824Y-123078510D01*
X182252451Y-122902471D01*
X182257040Y-122746881D01*
X182264667Y-122621562D01*
X182273340Y-122547717D01*
X182328682Y-122356250D01*
X182424858Y-122175264D01*
X182554751Y-122011877D01*
X182711245Y-121873206D01*
X182887223Y-121766370D01*
X183075569Y-121698485D01*
X183134291Y-121686636D01*
X183315265Y-121666444D01*
X183482287Y-121670242D01*
G37*
%TD*%
%LPC*%
D15*
%TO.C,J5*%
X216000000Y-106500000D03*
D16*
X216000000Y-104000000D03*
%TD*%
D17*
%TO.C,R7*%
X210650000Y-108314000D03*
X208650000Y-108314000D03*
%TD*%
D18*
%TO.C,H3*%
X213600000Y-136000000D03*
X214302944Y-134302944D03*
X214302944Y-137697056D03*
X216000000Y-133600000D03*
D19*
X216000000Y-136000000D03*
D18*
X216000000Y-138400000D03*
X217697056Y-134302944D03*
X217697056Y-137697056D03*
X218400000Y-136000000D03*
%TD*%
D20*
%TO.C,J2*%
X199675000Y-134375000D03*
X210325000Y-134375000D03*
D21*
X199675000Y-137975000D03*
X210325000Y-137975000D03*
D22*
X204500000Y-134025000D03*
D23*
X206520000Y-134025000D03*
D24*
X207750000Y-134025000D03*
D22*
X205500000Y-134025000D03*
D23*
X203480000Y-134025000D03*
D24*
X202250000Y-134025000D03*
%TD*%
D25*
%TO.C,J3*%
X216000000Y-128500000D03*
D26*
X216000000Y-126000000D03*
X216000000Y-123500000D03*
%TD*%
D27*
%TO.C,C5*%
X186028000Y-134327500D03*
X186028000Y-136402500D03*
%TD*%
D28*
%TO.C,C1*%
X205229500Y-126756500D03*
X207304500Y-126756500D03*
%TD*%
D18*
%TO.C,H4*%
X178600000Y-136000000D03*
X179302944Y-134302944D03*
X179302944Y-137697056D03*
X181000000Y-133600000D03*
D19*
X181000000Y-136000000D03*
D18*
X181000000Y-138400000D03*
X182697056Y-134302944D03*
X182697056Y-137697056D03*
X183400000Y-136000000D03*
%TD*%
D29*
%TO.C,SW3*%
X205150000Y-77100000D03*
X205150000Y-70900000D03*
X208850000Y-77100000D03*
X208850000Y-70900000D03*
%TD*%
D30*
%TO.C,U1*%
X203717000Y-121089500D03*
X204367000Y-121089500D03*
X205017000Y-121089500D03*
X205667000Y-121089500D03*
X206317000Y-121089500D03*
X206967000Y-121089500D03*
X207617000Y-121089500D03*
X208267000Y-121089500D03*
X208917000Y-121089500D03*
X209567000Y-121089500D03*
X209567000Y-115364500D03*
X208917000Y-115364500D03*
X208267000Y-115364500D03*
X207617000Y-115364500D03*
X206967000Y-115364500D03*
X206317000Y-115364500D03*
X205667000Y-115364500D03*
X205017000Y-115364500D03*
X204367000Y-115364500D03*
X203717000Y-115364500D03*
%TD*%
D31*
%TO.C,U2*%
X199337000Y-124782500D03*
X197437000Y-124782500D03*
X198387000Y-126657500D03*
%TD*%
D32*
%TO.C,mouse-bite-3mm-slot*%
X205488000Y-80000000D03*
X205488000Y-83000000D03*
X206238000Y-83000000D03*
X206250000Y-80000000D03*
X207000000Y-80000000D03*
X207000000Y-83000000D03*
X207750000Y-80000000D03*
X207750000Y-83000000D03*
X208524000Y-80000000D03*
X208524000Y-83000000D03*
%TD*%
D18*
%TO.C,H2*%
X213600000Y-87000000D03*
X214302944Y-85302944D03*
X214302944Y-88697056D03*
X216000000Y-84600000D03*
D19*
X216000000Y-87000000D03*
D18*
X216000000Y-89400000D03*
X217697056Y-85302944D03*
X217697056Y-88697056D03*
X218400000Y-87000000D03*
%TD*%
D33*
%TO.C,C6*%
X201586000Y-126681500D03*
X201586000Y-124606500D03*
%TD*%
D34*
%TO.C,C3*%
X201719500Y-131301000D03*
X199644500Y-131301000D03*
%TD*%
D35*
%TO.C,U3*%
X187260000Y-112512000D03*
X187260000Y-113782000D03*
X187260000Y-115052000D03*
X187260000Y-116322000D03*
X187260000Y-117592000D03*
X187260000Y-118862000D03*
X187260000Y-120132000D03*
X187260000Y-121402000D03*
X196560000Y-121402000D03*
X196560000Y-120132000D03*
X196560000Y-118862000D03*
X196560000Y-117592000D03*
X196560000Y-116322000D03*
X196560000Y-115052000D03*
X196560000Y-113782000D03*
X196560000Y-112512000D03*
%TD*%
D36*
%TO.C,R5*%
X199276000Y-120402000D03*
X199276000Y-122402000D03*
%TD*%
D27*
%TO.C,C8*%
X184631000Y-113753500D03*
X184631000Y-115828500D03*
%TD*%
D15*
%TO.C,J6*%
X216000000Y-97000000D03*
D16*
X216000000Y-94500000D03*
%TD*%
D15*
%TO.C,J4*%
X216000000Y-116000000D03*
D16*
X216000000Y-113500000D03*
%TD*%
D27*
%TO.C,C7*%
X195363000Y-124802500D03*
X195363000Y-126877500D03*
%TD*%
D37*
%TO.C,BT1*%
X180943000Y-99177000D03*
X210243000Y-99177000D03*
%TD*%
D38*
%TO.C,J7*%
X199505000Y-109711000D03*
D39*
X202045000Y-109711000D03*
X204585000Y-109711000D03*
%TD*%
D40*
%TO.C,R2*%
X204570000Y-131412000D03*
X204570000Y-129412000D03*
%TD*%
D18*
%TO.C,H5*%
X178600000Y-74000000D03*
X179302944Y-72302944D03*
X179302944Y-75697056D03*
X181000000Y-71600000D03*
D19*
X181000000Y-74000000D03*
D18*
X181000000Y-76400000D03*
X182697056Y-72302944D03*
X182697056Y-75697056D03*
X183400000Y-74000000D03*
%TD*%
D28*
%TO.C,C2*%
X205229500Y-124364500D03*
X207304500Y-124364500D03*
%TD*%
D41*
%TO.C,D1*%
X193013000Y-126865000D03*
X193013000Y-124815000D03*
%TD*%
D42*
%TO.C,R3*%
X193029000Y-128888000D03*
X195029000Y-128888000D03*
%TD*%
D18*
%TO.C,H1*%
X178600000Y-87000000D03*
X179302944Y-85302944D03*
X179302944Y-88697056D03*
X181000000Y-84600000D03*
D19*
X181000000Y-87000000D03*
D18*
X181000000Y-89400000D03*
X182697056Y-85302944D03*
X182697056Y-88697056D03*
X183400000Y-87000000D03*
%TD*%
D40*
%TO.C,R6*%
X201435000Y-122402000D03*
X201435000Y-120402000D03*
%TD*%
D18*
%TO.C,H6*%
X213600000Y-74000000D03*
X214302944Y-72302944D03*
X214302944Y-75697056D03*
X216000000Y-71600000D03*
D19*
X216000000Y-74000000D03*
D18*
X216000000Y-76400000D03*
X217697056Y-72302944D03*
X217697056Y-75697056D03*
X218400000Y-74000000D03*
%TD*%
D32*
%TO.C,mouse-bite-3mm-slot*%
X188488000Y-80000000D03*
X188488000Y-83000000D03*
X189238000Y-83000000D03*
X189250000Y-80000000D03*
X190000000Y-80000000D03*
X190000000Y-83000000D03*
X190750000Y-80000000D03*
X190750000Y-83000000D03*
X191524000Y-80000000D03*
X191524000Y-83000000D03*
%TD*%
D36*
%TO.C,R1*%
X206729000Y-129412000D03*
X206729000Y-131412000D03*
%TD*%
D40*
%TO.C,R4*%
X207618000Y-112362000D03*
X207618000Y-110362000D03*
%TD*%
D43*
%TO.C,D2*%
X209904000Y-110337000D03*
X209904000Y-112387000D03*
%TD*%
D34*
%TO.C,C4*%
X201719500Y-129015000D03*
X199644500Y-129015000D03*
%TD*%
D29*
%TO.C,SW2*%
X191850000Y-70900000D03*
X191850000Y-77100000D03*
X188150000Y-70900000D03*
X188150000Y-77100000D03*
%TD*%
D44*
%TO.C,SW1*%
X194589000Y-138081000D03*
X188389000Y-138081000D03*
X194589000Y-134381000D03*
X188389000Y-134381000D03*
%TD*%
D45*
%TO.C,J1*%
X198525000Y-71500000D03*
D26*
X198525000Y-74000000D03*
X198525000Y-76500000D03*
%TD*%
%LPD*%
M02*
