%TF.GenerationSoftware,KiCad,Pcbnew,8.0.5*%
%TF.CreationDate,2025-01-18T16:16:31+01:00*%
%TF.ProjectId,Floppy voltmeter clock,466c6f70-7079-4207-966f-6c746d657465,1.0*%
%TF.SameCoordinates,Original*%
%TF.FileFunction,Legend,Bot*%
%TF.FilePolarity,Positive*%
%FSLAX46Y46*%
G04 Gerber Fmt 4.6, Leading zero omitted, Abs format (unit mm)*
G04 Created by KiCad (PCBNEW 8.0.5) date 2025-01-18 16:16:31*
%MOMM*%
%LPD*%
G01*
G04 APERTURE LIST*
G04 Aperture macros list*
%AMRoundRect*
0 Rectangle with rounded corners*
0 $1 Rounding radius*
0 $2 $3 $4 $5 $6 $7 $8 $9 X,Y pos of 4 corners*
0 Add a 4 corners polygon primitive as box body*
4,1,4,$2,$3,$4,$5,$6,$7,$8,$9,$2,$3,0*
0 Add four circle primitives for the rounded corners*
1,1,$1+$1,$2,$3*
1,1,$1+$1,$4,$5*
1,1,$1+$1,$6,$7*
1,1,$1+$1,$8,$9*
0 Add four rect primitives between the rounded corners*
20,1,$1+$1,$2,$3,$4,$5,0*
20,1,$1+$1,$4,$5,$6,$7,0*
20,1,$1+$1,$6,$7,$8,$9,0*
20,1,$1+$1,$8,$9,$2,$3,0*%
G04 Aperture macros list end*
%ADD10C,0.120000*%
%ADD11RoundRect,0.250000X0.750000X-0.600000X0.750000X0.600000X-0.750000X0.600000X-0.750000X-0.600000X0*%
%ADD12O,2.000000X1.700000*%
%ADD13C,0.800000*%
%ADD14C,6.400000*%
%ADD15RoundRect,0.250000X0.725000X-0.600000X0.725000X0.600000X-0.725000X0.600000X-0.725000X-0.600000X0*%
%ADD16O,1.950000X1.700000*%
%ADD17C,0.500000*%
%ADD18R,1.700000X1.700000*%
%ADD19O,1.700000X1.700000*%
%ADD20RoundRect,0.250000X-0.725000X0.600000X-0.725000X-0.600000X0.725000X-0.600000X0.725000X0.600000X0*%
G04 APERTURE END LIST*
D10*
%TO.C,J1*%
X195775000Y-68650000D02*
X195775000Y-69900000D01*
X196065000Y-68940000D02*
X196065000Y-79060000D01*
X196065000Y-79060000D02*
X202035000Y-79060000D01*
X196075000Y-68950000D02*
X196075000Y-70750000D01*
X196075000Y-70750000D02*
X196825000Y-70750000D01*
X196075000Y-72250000D02*
X196075000Y-75750000D01*
X196075000Y-75750000D02*
X196825000Y-75750000D01*
X196075000Y-77250000D02*
X196075000Y-79050000D01*
X196075000Y-79050000D02*
X196825000Y-79050000D01*
X196825000Y-68950000D02*
X196075000Y-68950000D01*
X196825000Y-70750000D02*
X196825000Y-68950000D01*
X196825000Y-72250000D02*
X196075000Y-72250000D01*
X196825000Y-75750000D02*
X196825000Y-72250000D01*
X196825000Y-77250000D02*
X196075000Y-77250000D01*
X196825000Y-79050000D02*
X196825000Y-77250000D01*
X197025000Y-68650000D02*
X195775000Y-68650000D01*
X198325000Y-69700000D02*
X198325000Y-68950000D01*
X198325000Y-78300000D02*
X198325000Y-79050000D01*
X201275000Y-69700000D02*
X198325000Y-69700000D01*
X201275000Y-74000000D02*
X201275000Y-69700000D01*
X201275000Y-74000000D02*
X201275000Y-78300000D01*
X201275000Y-78300000D02*
X198325000Y-78300000D01*
X202035000Y-68940000D02*
X196065000Y-68940000D01*
X202035000Y-79060000D02*
X202035000Y-68940000D01*
%TD*%
%LPC*%
D11*
%TO.C,J5*%
X216000000Y-106500000D03*
D12*
X216000000Y-104000000D03*
%TD*%
D13*
%TO.C,H3*%
X213600000Y-136000000D03*
X214302944Y-134302944D03*
X214302944Y-137697056D03*
X216000000Y-133600000D03*
D14*
X216000000Y-136000000D03*
D13*
X216000000Y-138400000D03*
X217697056Y-134302944D03*
X217697056Y-137697056D03*
X218400000Y-136000000D03*
%TD*%
D15*
%TO.C,J3*%
X216000000Y-128500000D03*
D16*
X216000000Y-126000000D03*
X216000000Y-123500000D03*
%TD*%
D13*
%TO.C,H4*%
X178600000Y-136000000D03*
X179302944Y-134302944D03*
X179302944Y-137697056D03*
X181000000Y-133600000D03*
D14*
X181000000Y-136000000D03*
D13*
X181000000Y-138400000D03*
X182697056Y-134302944D03*
X182697056Y-137697056D03*
X183400000Y-136000000D03*
%TD*%
D17*
%TO.C,mouse-bite-3mm-slot*%
X205488000Y-80000000D03*
X205488000Y-83000000D03*
X206238000Y-83000000D03*
X206250000Y-80000000D03*
X207000000Y-80000000D03*
X207000000Y-83000000D03*
X207750000Y-80000000D03*
X207750000Y-83000000D03*
X208524000Y-80000000D03*
X208524000Y-83000000D03*
%TD*%
D13*
%TO.C,H2*%
X213600000Y-87000000D03*
X214302944Y-85302944D03*
X214302944Y-88697056D03*
X216000000Y-84600000D03*
D14*
X216000000Y-87000000D03*
D13*
X216000000Y-89400000D03*
X217697056Y-85302944D03*
X217697056Y-88697056D03*
X218400000Y-87000000D03*
%TD*%
D11*
%TO.C,J6*%
X216000000Y-97000000D03*
D12*
X216000000Y-94500000D03*
%TD*%
D11*
%TO.C,J4*%
X216000000Y-116000000D03*
D12*
X216000000Y-113500000D03*
%TD*%
D18*
%TO.C,J7*%
X199505000Y-109711000D03*
D19*
X202045000Y-109711000D03*
X204585000Y-109711000D03*
%TD*%
D13*
%TO.C,H5*%
X178600000Y-74000000D03*
X179302944Y-72302944D03*
X179302944Y-75697056D03*
X181000000Y-71600000D03*
D14*
X181000000Y-74000000D03*
D13*
X181000000Y-76400000D03*
X182697056Y-72302944D03*
X182697056Y-75697056D03*
X183400000Y-74000000D03*
%TD*%
%TO.C,H1*%
X178600000Y-87000000D03*
X179302944Y-85302944D03*
X179302944Y-88697056D03*
X181000000Y-84600000D03*
D14*
X181000000Y-87000000D03*
D13*
X181000000Y-89400000D03*
X182697056Y-85302944D03*
X182697056Y-88697056D03*
X183400000Y-87000000D03*
%TD*%
%TO.C,H6*%
X213600000Y-74000000D03*
X214302944Y-72302944D03*
X214302944Y-75697056D03*
X216000000Y-71600000D03*
D14*
X216000000Y-74000000D03*
D13*
X216000000Y-76400000D03*
X217697056Y-72302944D03*
X217697056Y-75697056D03*
X218400000Y-74000000D03*
%TD*%
D17*
%TO.C,mouse-bite-3mm-slot*%
X188488000Y-80000000D03*
X188488000Y-83000000D03*
X189238000Y-83000000D03*
X189250000Y-80000000D03*
X190000000Y-80000000D03*
X190000000Y-83000000D03*
X190750000Y-80000000D03*
X190750000Y-83000000D03*
X191524000Y-80000000D03*
X191524000Y-83000000D03*
%TD*%
D20*
%TO.C,J1*%
X198525000Y-71500000D03*
D16*
X198525000Y-74000000D03*
X198525000Y-76500000D03*
%TD*%
%LPD*%
M02*
