%TF.GenerationSoftware,KiCad,Pcbnew,8.0.5*%
%TF.CreationDate,2025-01-18T16:16:31+01:00*%
%TF.ProjectId,Floppy voltmeter clock,466c6f70-7079-4207-966f-6c746d657465,1.0*%
%TF.SameCoordinates,Original*%
%TF.FileFunction,Other,Comment*%
%FSLAX46Y46*%
G04 Gerber Fmt 4.6, Leading zero omitted, Abs format (unit mm)*
G04 Created by KiCad (PCBNEW 8.0.5) date 2025-01-18 16:16:31*
%MOMM*%
%LPD*%
G01*
G04 APERTURE LIST*
%ADD10C,0.150000*%
%ADD11C,0.100000*%
G04 APERTURE END LIST*
D10*
X225304819Y-115595237D02*
X225304819Y-116071427D01*
X225304819Y-116071427D02*
X225781009Y-116119046D01*
X225781009Y-116119046D02*
X225733390Y-116071427D01*
X225733390Y-116071427D02*
X225685771Y-115976189D01*
X225685771Y-115976189D02*
X225685771Y-115738094D01*
X225685771Y-115738094D02*
X225733390Y-115642856D01*
X225733390Y-115642856D02*
X225781009Y-115595237D01*
X225781009Y-115595237D02*
X225876247Y-115547618D01*
X225876247Y-115547618D02*
X226114342Y-115547618D01*
X226114342Y-115547618D02*
X226209580Y-115595237D01*
X226209580Y-115595237D02*
X226257200Y-115642856D01*
X226257200Y-115642856D02*
X226304819Y-115738094D01*
X226304819Y-115738094D02*
X226304819Y-115976189D01*
X226304819Y-115976189D02*
X226257200Y-116071427D01*
X226257200Y-116071427D02*
X226209580Y-116119046D01*
X225304819Y-115214284D02*
X225304819Y-114547618D01*
X225304819Y-114547618D02*
X226304819Y-114976189D01*
X226209580Y-114166665D02*
X226257200Y-114119046D01*
X226257200Y-114119046D02*
X226304819Y-114166665D01*
X226304819Y-114166665D02*
X226257200Y-114214284D01*
X226257200Y-114214284D02*
X226209580Y-114166665D01*
X226209580Y-114166665D02*
X226304819Y-114166665D01*
X225304819Y-113499999D02*
X225304819Y-113404761D01*
X225304819Y-113404761D02*
X225352438Y-113309523D01*
X225352438Y-113309523D02*
X225400057Y-113261904D01*
X225400057Y-113261904D02*
X225495295Y-113214285D01*
X225495295Y-113214285D02*
X225685771Y-113166666D01*
X225685771Y-113166666D02*
X225923866Y-113166666D01*
X225923866Y-113166666D02*
X226114342Y-113214285D01*
X226114342Y-113214285D02*
X226209580Y-113261904D01*
X226209580Y-113261904D02*
X226257200Y-113309523D01*
X226257200Y-113309523D02*
X226304819Y-113404761D01*
X226304819Y-113404761D02*
X226304819Y-113499999D01*
X226304819Y-113499999D02*
X226257200Y-113595237D01*
X226257200Y-113595237D02*
X226209580Y-113642856D01*
X226209580Y-113642856D02*
X226114342Y-113690475D01*
X226114342Y-113690475D02*
X225923866Y-113738094D01*
X225923866Y-113738094D02*
X225685771Y-113738094D01*
X225685771Y-113738094D02*
X225495295Y-113690475D01*
X225495295Y-113690475D02*
X225400057Y-113642856D01*
X225400057Y-113642856D02*
X225352438Y-113595237D01*
X225352438Y-113595237D02*
X225304819Y-113499999D01*
X225304819Y-112547618D02*
X225304819Y-112452380D01*
X225304819Y-112452380D02*
X225352438Y-112357142D01*
X225352438Y-112357142D02*
X225400057Y-112309523D01*
X225400057Y-112309523D02*
X225495295Y-112261904D01*
X225495295Y-112261904D02*
X225685771Y-112214285D01*
X225685771Y-112214285D02*
X225923866Y-112214285D01*
X225923866Y-112214285D02*
X226114342Y-112261904D01*
X226114342Y-112261904D02*
X226209580Y-112309523D01*
X226209580Y-112309523D02*
X226257200Y-112357142D01*
X226257200Y-112357142D02*
X226304819Y-112452380D01*
X226304819Y-112452380D02*
X226304819Y-112547618D01*
X226304819Y-112547618D02*
X226257200Y-112642856D01*
X226257200Y-112642856D02*
X226209580Y-112690475D01*
X226209580Y-112690475D02*
X226114342Y-112738094D01*
X226114342Y-112738094D02*
X225923866Y-112785713D01*
X225923866Y-112785713D02*
X225685771Y-112785713D01*
X225685771Y-112785713D02*
X225495295Y-112738094D01*
X225495295Y-112738094D02*
X225400057Y-112690475D01*
X225400057Y-112690475D02*
X225352438Y-112642856D01*
X225352438Y-112642856D02*
X225304819Y-112547618D01*
X225304819Y-111595237D02*
X225304819Y-111499999D01*
X225304819Y-111499999D02*
X225352438Y-111404761D01*
X225352438Y-111404761D02*
X225400057Y-111357142D01*
X225400057Y-111357142D02*
X225495295Y-111309523D01*
X225495295Y-111309523D02*
X225685771Y-111261904D01*
X225685771Y-111261904D02*
X225923866Y-111261904D01*
X225923866Y-111261904D02*
X226114342Y-111309523D01*
X226114342Y-111309523D02*
X226209580Y-111357142D01*
X226209580Y-111357142D02*
X226257200Y-111404761D01*
X226257200Y-111404761D02*
X226304819Y-111499999D01*
X226304819Y-111499999D02*
X226304819Y-111595237D01*
X226304819Y-111595237D02*
X226257200Y-111690475D01*
X226257200Y-111690475D02*
X226209580Y-111738094D01*
X226209580Y-111738094D02*
X226114342Y-111785713D01*
X226114342Y-111785713D02*
X225923866Y-111833332D01*
X225923866Y-111833332D02*
X225685771Y-111833332D01*
X225685771Y-111833332D02*
X225495295Y-111785713D01*
X225495295Y-111785713D02*
X225400057Y-111738094D01*
X225400057Y-111738094D02*
X225352438Y-111690475D01*
X225352438Y-111690475D02*
X225304819Y-111595237D01*
X225304819Y-110642856D02*
X225304819Y-110547618D01*
X225304819Y-110547618D02*
X225352438Y-110452380D01*
X225352438Y-110452380D02*
X225400057Y-110404761D01*
X225400057Y-110404761D02*
X225495295Y-110357142D01*
X225495295Y-110357142D02*
X225685771Y-110309523D01*
X225685771Y-110309523D02*
X225923866Y-110309523D01*
X225923866Y-110309523D02*
X226114342Y-110357142D01*
X226114342Y-110357142D02*
X226209580Y-110404761D01*
X226209580Y-110404761D02*
X226257200Y-110452380D01*
X226257200Y-110452380D02*
X226304819Y-110547618D01*
X226304819Y-110547618D02*
X226304819Y-110642856D01*
X226304819Y-110642856D02*
X226257200Y-110738094D01*
X226257200Y-110738094D02*
X226209580Y-110785713D01*
X226209580Y-110785713D02*
X226114342Y-110833332D01*
X226114342Y-110833332D02*
X225923866Y-110880951D01*
X225923866Y-110880951D02*
X225685771Y-110880951D01*
X225685771Y-110880951D02*
X225495295Y-110833332D01*
X225495295Y-110833332D02*
X225400057Y-110785713D01*
X225400057Y-110785713D02*
X225352438Y-110738094D01*
X225352438Y-110738094D02*
X225304819Y-110642856D01*
X226304819Y-109119046D02*
X225638152Y-109119046D01*
X225733390Y-109119046D02*
X225685771Y-109071427D01*
X225685771Y-109071427D02*
X225638152Y-108976189D01*
X225638152Y-108976189D02*
X225638152Y-108833332D01*
X225638152Y-108833332D02*
X225685771Y-108738094D01*
X225685771Y-108738094D02*
X225781009Y-108690475D01*
X225781009Y-108690475D02*
X226304819Y-108690475D01*
X225781009Y-108690475D02*
X225685771Y-108642856D01*
X225685771Y-108642856D02*
X225638152Y-108547618D01*
X225638152Y-108547618D02*
X225638152Y-108404761D01*
X225638152Y-108404761D02*
X225685771Y-108309522D01*
X225685771Y-108309522D02*
X225781009Y-108261903D01*
X225781009Y-108261903D02*
X226304819Y-108261903D01*
X226304819Y-107785713D02*
X225638152Y-107785713D01*
X225733390Y-107785713D02*
X225685771Y-107738094D01*
X225685771Y-107738094D02*
X225638152Y-107642856D01*
X225638152Y-107642856D02*
X225638152Y-107499999D01*
X225638152Y-107499999D02*
X225685771Y-107404761D01*
X225685771Y-107404761D02*
X225781009Y-107357142D01*
X225781009Y-107357142D02*
X226304819Y-107357142D01*
X225781009Y-107357142D02*
X225685771Y-107309523D01*
X225685771Y-107309523D02*
X225638152Y-107214285D01*
X225638152Y-107214285D02*
X225638152Y-107071428D01*
X225638152Y-107071428D02*
X225685771Y-106976189D01*
X225685771Y-106976189D02*
X225781009Y-106928570D01*
X225781009Y-106928570D02*
X226304819Y-106928570D01*
D11*
X216500000Y-140000000D02*
X227586420Y-140000000D01*
X216500000Y-83000000D02*
X227586420Y-83000000D01*
X227000000Y-140000000D02*
X227000000Y-83000000D01*
X227000000Y-140000000D02*
X227000000Y-83000000D01*
X227000000Y-140000000D02*
X226413579Y-138873496D01*
X227000000Y-140000000D02*
X227586421Y-138873496D01*
X227000000Y-83000000D02*
X227586421Y-84126504D01*
X227000000Y-83000000D02*
X226413579Y-84126504D01*
D10*
X194357143Y-143638152D02*
X194357143Y-144304819D01*
X194119048Y-143257200D02*
X193880953Y-143971485D01*
X193880953Y-143971485D02*
X194500000Y-143971485D01*
X194785715Y-143304819D02*
X195404762Y-143304819D01*
X195404762Y-143304819D02*
X195071429Y-143685771D01*
X195071429Y-143685771D02*
X195214286Y-143685771D01*
X195214286Y-143685771D02*
X195309524Y-143733390D01*
X195309524Y-143733390D02*
X195357143Y-143781009D01*
X195357143Y-143781009D02*
X195404762Y-143876247D01*
X195404762Y-143876247D02*
X195404762Y-144114342D01*
X195404762Y-144114342D02*
X195357143Y-144209580D01*
X195357143Y-144209580D02*
X195309524Y-144257200D01*
X195309524Y-144257200D02*
X195214286Y-144304819D01*
X195214286Y-144304819D02*
X194928572Y-144304819D01*
X194928572Y-144304819D02*
X194833334Y-144257200D01*
X194833334Y-144257200D02*
X194785715Y-144209580D01*
X195833334Y-144209580D02*
X195880953Y-144257200D01*
X195880953Y-144257200D02*
X195833334Y-144304819D01*
X195833334Y-144304819D02*
X195785715Y-144257200D01*
X195785715Y-144257200D02*
X195833334Y-144209580D01*
X195833334Y-144209580D02*
X195833334Y-144304819D01*
X196500000Y-143304819D02*
X196595238Y-143304819D01*
X196595238Y-143304819D02*
X196690476Y-143352438D01*
X196690476Y-143352438D02*
X196738095Y-143400057D01*
X196738095Y-143400057D02*
X196785714Y-143495295D01*
X196785714Y-143495295D02*
X196833333Y-143685771D01*
X196833333Y-143685771D02*
X196833333Y-143923866D01*
X196833333Y-143923866D02*
X196785714Y-144114342D01*
X196785714Y-144114342D02*
X196738095Y-144209580D01*
X196738095Y-144209580D02*
X196690476Y-144257200D01*
X196690476Y-144257200D02*
X196595238Y-144304819D01*
X196595238Y-144304819D02*
X196500000Y-144304819D01*
X196500000Y-144304819D02*
X196404762Y-144257200D01*
X196404762Y-144257200D02*
X196357143Y-144209580D01*
X196357143Y-144209580D02*
X196309524Y-144114342D01*
X196309524Y-144114342D02*
X196261905Y-143923866D01*
X196261905Y-143923866D02*
X196261905Y-143685771D01*
X196261905Y-143685771D02*
X196309524Y-143495295D01*
X196309524Y-143495295D02*
X196357143Y-143400057D01*
X196357143Y-143400057D02*
X196404762Y-143352438D01*
X196404762Y-143352438D02*
X196500000Y-143304819D01*
X197452381Y-143304819D02*
X197547619Y-143304819D01*
X197547619Y-143304819D02*
X197642857Y-143352438D01*
X197642857Y-143352438D02*
X197690476Y-143400057D01*
X197690476Y-143400057D02*
X197738095Y-143495295D01*
X197738095Y-143495295D02*
X197785714Y-143685771D01*
X197785714Y-143685771D02*
X197785714Y-143923866D01*
X197785714Y-143923866D02*
X197738095Y-144114342D01*
X197738095Y-144114342D02*
X197690476Y-144209580D01*
X197690476Y-144209580D02*
X197642857Y-144257200D01*
X197642857Y-144257200D02*
X197547619Y-144304819D01*
X197547619Y-144304819D02*
X197452381Y-144304819D01*
X197452381Y-144304819D02*
X197357143Y-144257200D01*
X197357143Y-144257200D02*
X197309524Y-144209580D01*
X197309524Y-144209580D02*
X197261905Y-144114342D01*
X197261905Y-144114342D02*
X197214286Y-143923866D01*
X197214286Y-143923866D02*
X197214286Y-143685771D01*
X197214286Y-143685771D02*
X197261905Y-143495295D01*
X197261905Y-143495295D02*
X197309524Y-143400057D01*
X197309524Y-143400057D02*
X197357143Y-143352438D01*
X197357143Y-143352438D02*
X197452381Y-143304819D01*
X198404762Y-143304819D02*
X198500000Y-143304819D01*
X198500000Y-143304819D02*
X198595238Y-143352438D01*
X198595238Y-143352438D02*
X198642857Y-143400057D01*
X198642857Y-143400057D02*
X198690476Y-143495295D01*
X198690476Y-143495295D02*
X198738095Y-143685771D01*
X198738095Y-143685771D02*
X198738095Y-143923866D01*
X198738095Y-143923866D02*
X198690476Y-144114342D01*
X198690476Y-144114342D02*
X198642857Y-144209580D01*
X198642857Y-144209580D02*
X198595238Y-144257200D01*
X198595238Y-144257200D02*
X198500000Y-144304819D01*
X198500000Y-144304819D02*
X198404762Y-144304819D01*
X198404762Y-144304819D02*
X198309524Y-144257200D01*
X198309524Y-144257200D02*
X198261905Y-144209580D01*
X198261905Y-144209580D02*
X198214286Y-144114342D01*
X198214286Y-144114342D02*
X198166667Y-143923866D01*
X198166667Y-143923866D02*
X198166667Y-143685771D01*
X198166667Y-143685771D02*
X198214286Y-143495295D01*
X198214286Y-143495295D02*
X198261905Y-143400057D01*
X198261905Y-143400057D02*
X198309524Y-143352438D01*
X198309524Y-143352438D02*
X198404762Y-143304819D01*
X199357143Y-143304819D02*
X199452381Y-143304819D01*
X199452381Y-143304819D02*
X199547619Y-143352438D01*
X199547619Y-143352438D02*
X199595238Y-143400057D01*
X199595238Y-143400057D02*
X199642857Y-143495295D01*
X199642857Y-143495295D02*
X199690476Y-143685771D01*
X199690476Y-143685771D02*
X199690476Y-143923866D01*
X199690476Y-143923866D02*
X199642857Y-144114342D01*
X199642857Y-144114342D02*
X199595238Y-144209580D01*
X199595238Y-144209580D02*
X199547619Y-144257200D01*
X199547619Y-144257200D02*
X199452381Y-144304819D01*
X199452381Y-144304819D02*
X199357143Y-144304819D01*
X199357143Y-144304819D02*
X199261905Y-144257200D01*
X199261905Y-144257200D02*
X199214286Y-144209580D01*
X199214286Y-144209580D02*
X199166667Y-144114342D01*
X199166667Y-144114342D02*
X199119048Y-143923866D01*
X199119048Y-143923866D02*
X199119048Y-143685771D01*
X199119048Y-143685771D02*
X199166667Y-143495295D01*
X199166667Y-143495295D02*
X199214286Y-143400057D01*
X199214286Y-143400057D02*
X199261905Y-143352438D01*
X199261905Y-143352438D02*
X199357143Y-143304819D01*
X200880953Y-144304819D02*
X200880953Y-143638152D01*
X200880953Y-143733390D02*
X200928572Y-143685771D01*
X200928572Y-143685771D02*
X201023810Y-143638152D01*
X201023810Y-143638152D02*
X201166667Y-143638152D01*
X201166667Y-143638152D02*
X201261905Y-143685771D01*
X201261905Y-143685771D02*
X201309524Y-143781009D01*
X201309524Y-143781009D02*
X201309524Y-144304819D01*
X201309524Y-143781009D02*
X201357143Y-143685771D01*
X201357143Y-143685771D02*
X201452381Y-143638152D01*
X201452381Y-143638152D02*
X201595238Y-143638152D01*
X201595238Y-143638152D02*
X201690477Y-143685771D01*
X201690477Y-143685771D02*
X201738096Y-143781009D01*
X201738096Y-143781009D02*
X201738096Y-144304819D01*
X202214286Y-144304819D02*
X202214286Y-143638152D01*
X202214286Y-143733390D02*
X202261905Y-143685771D01*
X202261905Y-143685771D02*
X202357143Y-143638152D01*
X202357143Y-143638152D02*
X202500000Y-143638152D01*
X202500000Y-143638152D02*
X202595238Y-143685771D01*
X202595238Y-143685771D02*
X202642857Y-143781009D01*
X202642857Y-143781009D02*
X202642857Y-144304819D01*
X202642857Y-143781009D02*
X202690476Y-143685771D01*
X202690476Y-143685771D02*
X202785714Y-143638152D01*
X202785714Y-143638152D02*
X202928571Y-143638152D01*
X202928571Y-143638152D02*
X203023810Y-143685771D01*
X203023810Y-143685771D02*
X203071429Y-143781009D01*
X203071429Y-143781009D02*
X203071429Y-144304819D01*
D11*
X220000000Y-136500000D02*
X220000000Y-145586420D01*
X177000000Y-136500000D02*
X177000000Y-145586420D01*
X220000000Y-145000000D02*
X177000000Y-145000000D01*
X220000000Y-145000000D02*
X177000000Y-145000000D01*
X220000000Y-145000000D02*
X218873496Y-145586421D01*
X220000000Y-145000000D02*
X218873496Y-144413579D01*
X177000000Y-145000000D02*
X178126504Y-144413579D01*
X177000000Y-145000000D02*
X178126504Y-145586421D01*
D10*
%TO.C,H3*%
X219200000Y-136000000D02*
G75*
G02*
X212800000Y-136000000I-3200000J0D01*
G01*
X212800000Y-136000000D02*
G75*
G02*
X219200000Y-136000000I3200000J0D01*
G01*
%TO.C,H4*%
X184200000Y-136000000D02*
G75*
G02*
X177800000Y-136000000I-3200000J0D01*
G01*
X177800000Y-136000000D02*
G75*
G02*
X184200000Y-136000000I3200000J0D01*
G01*
%TO.C,H2*%
X219200000Y-87000000D02*
G75*
G02*
X212800000Y-87000000I-3200000J0D01*
G01*
X212800000Y-87000000D02*
G75*
G02*
X219200000Y-87000000I3200000J0D01*
G01*
%TO.C,H5*%
X184200000Y-74000000D02*
G75*
G02*
X177800000Y-74000000I-3200000J0D01*
G01*
X177800000Y-74000000D02*
G75*
G02*
X184200000Y-74000000I3200000J0D01*
G01*
%TO.C,H1*%
X184200000Y-87000000D02*
G75*
G02*
X177800000Y-87000000I-3200000J0D01*
G01*
X177800000Y-87000000D02*
G75*
G02*
X184200000Y-87000000I3200000J0D01*
G01*
%TO.C,H6*%
X219200000Y-74000000D02*
G75*
G02*
X212800000Y-74000000I-3200000J0D01*
G01*
X212800000Y-74000000D02*
G75*
G02*
X219200000Y-74000000I3200000J0D01*
G01*
%TD*%
M02*
