M48
INCH
T1C0.0118
T2C0.0197
T3C0.0374
T4C0.0394
T5C0.1260
%
G90
G05
T1
X7.0839Y-4.3443
X7.0839Y-4.5843
X7.0839Y-4.8043
X7.0839Y-5.0243
X7.0839Y-5.1743
X7.4039Y-3.4343
X7.4039Y-3.9043
X7.4639Y-5.0243
X7.4639Y-5.1743
X7.5539Y-4.6643
X7.5839Y-4.3843
X7.5939Y-5.4443
X7.6915Y-4.8718
X7.7239Y-5.2393
X7.7739Y-5.0743
X7.8839Y-4.9443
X7.8939Y-3.9143
X8.0139Y-4.9043
X8.0739Y-5.4443
X8.0789Y-5.0393
X8.0889Y-3.9443
X8.0939Y-4.6443
X8.1374Y-4.0143
X8.1589Y-5.0393
X8.1939Y-4.6593
X8.2089Y-4.6093
X8.2089Y-5.0893
X8.2489Y-4.7093
X8.2507Y-4.4943
X8.2739Y-3.4243
X8.2739Y-3.7143
X8.3039Y-4.4243
X8.3339Y-5.1543
T2
X7.0315Y-2.9134
X7.0315Y-3.4252
X7.0315Y-5.3543
X7.0592Y-2.8466
X7.0592Y-2.9802
X7.0592Y-3.3584
X7.0592Y-3.492
X7.0592Y-5.2875
X7.0592Y-5.4211
X7.126Y-2.8189
X7.126Y-3.0079
X7.126Y-3.3307
X7.126Y-3.5197
X7.126Y-5.2598
X7.126Y-5.4488
X7.1928Y-2.8466
X7.1928Y-2.9802
X7.1928Y-3.3584
X7.1928Y-3.492
X7.1928Y-5.2875
X7.1928Y-5.4211
X7.2205Y-2.9134
X7.2205Y-3.4252
X7.2205Y-5.3543
X8.4094Y-2.9134
X8.4094Y-3.4252
X8.4094Y-5.3543
X8.4371Y-2.8466
X8.4371Y-2.9802
X8.4371Y-3.3584
X8.4371Y-3.492
X8.4371Y-5.2875
X8.4371Y-5.4211
X8.5039Y-2.8189
X8.5039Y-3.0079
X8.5039Y-3.3307
X8.5039Y-3.5197
X8.5039Y-5.2598
X8.5039Y-5.4488
X8.5708Y-2.8466
X8.5708Y-2.9802
X8.5708Y-3.3584
X8.5708Y-3.492
X8.5708Y-5.2875
X8.5708Y-5.4211
X8.5984Y-2.9134
X8.5984Y-3.4252
X8.5984Y-5.3543
T3
X7.8159Y-2.815
X7.8159Y-2.9134
X7.8159Y-3.0118
X8.5039Y-4.8622
X8.5039Y-4.9606
X8.5039Y-5.0591
T4
X7.8545Y-4.3193
X7.9545Y-4.3193
X8.0545Y-4.3193
X8.5039Y-3.7205
X8.5039Y-3.8189
X8.5039Y-4.0945
X8.5039Y-4.1929
X8.5039Y-4.4685
X8.5039Y-4.5669
T5
X7.126Y-2.9134
X7.126Y-3.4252
X7.126Y-5.3543
X8.5039Y-2.9134
X8.5039Y-3.4252
X8.5039Y-5.3543
M30
