M48
INCH
T1C0.0197
%
G90
G05
T1
X7.4208Y-3.1496
X7.4208Y-3.2677
X7.4503Y-3.2677
X7.4508Y-3.1496
X7.4803Y-3.1496
X7.4803Y-3.2677
X7.5098Y-3.1496
X7.5098Y-3.2677
X7.5403Y-3.1496
X7.5403Y-3.2677
X8.0901Y-3.1496
X8.0901Y-3.2677
X8.1196Y-3.2677
X8.1201Y-3.1496
X8.1496Y-3.1496
X8.1496Y-3.2677
X8.1791Y-3.1496
X8.1791Y-3.2677
X8.2096Y-3.1496
X8.2096Y-3.2677
M30
